<svg xmlns="http://www.w3.org/2000/svg" width="150.452" height="215.758" viewBox="0 0 150.452 215.758">
  <g id="Group_30" data-name="Group 30" transform="translate(-63.548 -59)">
    <g id="Group_29" data-name="Group 29" transform="translate(-671.452 61)">
      <g id="Group_26" data-name="Group 26" transform="translate(795.047 183.521)">
        <path id="Path_576" data-name="Path 576" d="M859.49,342.968a1.171,1.171,0,0,1,1.571-.738c1.143.473-.372,1.789-.372,1.789" transform="translate(-846.711 -342.12)" fill="none" stroke="#f2f2f2" stroke-miterlimit="10" stroke-width="1"/>
        <path id="Path_577" data-name="Path 577" d="M855.795,344.362s2.069,1.988,3.555.383" transform="translate(-842.723 -343.245)" fill="none" stroke="#f2f2f2" stroke-linecap="round" stroke-linejoin="round" stroke-width="1"/>
        <path id="Path_578" data-name="Path 578" d="M854.737,342.613s19.358,3.64,10.743,9.707l-17.158,4.289s-3.691-3.643-1.038-12.133Z" transform="translate(-846.324 -342.368)" fill="#213344"/>
        <path id="Path_579" data-name="Path 579" d="M867.26,355.109s.5,1.787-2.221,3.554l-17.26,4.533s-.941-.817-1.434-3.484C846.107,359.563,867.26,355.109,867.26,355.109Z" transform="translate(-845.941 -348.637)" fill="#f2f2f2"/>
        <path id="Path_580" data-name="Path 580" d="M866.9,343.114s-3.821-1.6-3.593.717S866.9,343.114,866.9,343.114Z" transform="translate(-854.027 -342.349)" fill="none" stroke="#f2f2f2" stroke-linecap="round" stroke-linejoin="round" stroke-width="1"/>
        <path id="Path_581" data-name="Path 581" d="M863.133,347.4s1.4-2.474.744-3.578" transform="translate(-851.097 -342.974)" fill="none" stroke="#f2f2f2" stroke-miterlimit="10" stroke-width="1"/>
      </g>
      <g id="Group_27" data-name="Group 27" transform="translate(760.285 201.4)">
        <path id="Path_582" data-name="Path 582" d="M925.166,380.888a1.174,1.174,0,0,1,1.737-.02c.842.9-1.085,1.473-1.085,1.473" transform="translate(-910.439 -379.24)" fill="none" stroke="#f2f2f2" stroke-miterlimit="10" stroke-width="1"/>
        <path id="Path_583" data-name="Path 583" d="M922.226,381.514s1.193,2.252,3.12,1.682" transform="translate(-907.198 -379.763)" fill="none" stroke="#f2f2f2" stroke-linecap="round" stroke-linejoin="round" stroke-width="1"/>
        <path id="Path_584" data-name="Path 584" d="M926,378s17.942,8.1,8.129,11.964l-17.69.122s-2.719-4.409,1.876-12.033Z" transform="translate(-915.626 -378)" fill="#213344"/>
        <path id="Path_585" data-name="Path 585" d="M937.091,395.748s.063,1.856-3,2.93l-17.847.336s-.72-1.016-.565-3.723C915.48,395.088,937.091,395.748,937.091,395.748Z" transform="translate(-915.654 -386.655)" fill="#f2f2f2"/>
        <path id="Path_586" data-name="Path 586" d="M932.482,380.68s-2.809-3.035-3.568-.835S932.482,380.68,932.482,380.68Z" transform="translate(-917.635 -378.524)" fill="none" stroke="#f2f2f2" stroke-linecap="round" stroke-linejoin="round" stroke-width="1"/>
        <path id="Path_587" data-name="Path 587" d="M929.052,384.254s2.306-1.671,2.169-2.947" transform="translate(-916.495 -379.659)" fill="none" stroke="#f2f2f2" stroke-miterlimit="10" stroke-width="1"/>
      </g>
      <path id="Path_588" data-name="Path 588" d="M924.6,278.282a31.182,31.182,0,0,1,7.122,7.06C929.974,281.2,927.656,278.445,924.6,278.282Z" transform="translate(-154.478 -126.571)" fill="#56769a"/>
      <path id="Path_589" data-name="Path 589" d="M991.5,279.691a13.4,13.4,0,0,0,2.011,4.512,5.341,5.341,0,0,0,.339.441A15.709,15.709,0,0,1,991.5,279.691Z" transform="translate(-250.076 -127.278)" fill="#56769a"/>
      <path id="Path_590" data-name="Path 590" d="M874.17,170.651s13.959,4.329,5.124,11.6l-5.785-4.949Z" transform="translate(-79.415 -72.572)" fill="#d3a394"/>
      <path id="Path_591" data-name="Path 591" d="M735,150.23l77.833-32.318-72.022,34.473Z" transform="translate(59.281 -46.113)" fill="none" stroke="#5b5957" stroke-miterlimit="10" stroke-width="2"/>
      <path id="Path_592" data-name="Path 592" d="M886.129,147.406l20.578,11.587L904.6,173.144l-18.468-10.152Z" transform="translate(-110.212 -60.91)" fill="#ce63a8"/>
      <path id="Path_593" data-name="Path 593" d="M947.48,115.813c-3.561,1.271-5.183,9.311-5.183,9.311l10.235.526c-1.188-1.689.862-5.822.862-5.822l1.161-3.052-5.135-3.847Z" transform="translate(-186.165 -43.613)" fill="#e5af9a"/>
      <path id="Path_594" data-name="Path 594" d="M940.331,132.727s14.084,6.462,14.586,14.082,0,46.812,0,46.812H916.332v-40.28s.5-18.507,12.528-21.228Z" transform="translate(-173.757 -53.237)" fill="#e56eb5"/>
      <ellipse id="Ellipse_46" data-name="Ellipse 46" cx="5.232" cy="5.21" rx="5.232" ry="5.21" transform="translate(793.237 103.156)" fill="#e5af9a"/>
      <path id="Path_595" data-name="Path 595" d="M746.995,117.912l-5.368,97.74V218.4s3.443,2.745.291,4.392c0,0-5.254.2-5.885-3.09" transform="translate(124.603 -46.113)" fill="none" stroke="#5b5957" stroke-linecap="round" stroke-miterlimit="10" stroke-width="2"/>
      <path id="Path_596" data-name="Path 596" d="M883.929,188.494s17.323-2.084,22.206-4.168l1.4,7.641s-21.393,5.557-25.345,2.779" transform="translate(-109.062 -79.433)" fill="#e5af9a"/>
      <g id="Group_28" data-name="Group 28" transform="translate(735 26)">
        <path id="Path_597" data-name="Path 597" d="M975.614,35s-.212-12.951-15-7.785,9.377,40.557-18.46,37.729c0,0,11.388,17.678,24.634,5.174C966.783,70.12,954.626,57.812,975.614,35Z" transform="translate(-942.149 -26)" fill="#42210b"/>
        <ellipse id="Ellipse_47" data-name="Ellipse 47" cx="21.863" cy="24.222" rx="21.863" ry="24.222" transform="translate(18.506 6.065)" fill="#e5af9a"/>
        <path id="Path_598" data-name="Path 598" d="M926.988,58.019s-19.711,6.424-31.687-5.477c0,0-5.2,23.6-15.8,22.741S872.46,42.515,891.468,35.57,925.345,35.971,926.988,58.019Z" transform="translate(-859.232 -29.535)" fill="#42210b"/>
        <path id="Path_599" data-name="Path 599" d="M950.777,37.671s-6.205.816-7.4,4.206" transform="translate(-917.924 -31.855)" fill="none" stroke="#fbff00" stroke-linecap="round" stroke-linejoin="round" stroke-width="3"/>
      </g>
      <path id="Path_600" data-name="Path 600" d="M931.1,161.229l17.439,12.5-3.488,12.5s-20.927-1.389-22.322-12.5" transform="translate(-170.359 -67.845)" fill="#ce63a8"/>
      <path id="Path_601" data-name="Path 601" d="M993.89,256.46" transform="translate(-251.315 -115.623)" fill="#56769a"/>
      <path id="Path_602" data-name="Path 602" d="M849.669,265.438c.061.37.137.746.23,1.122a15.707,15.707,0,0,0,2.35,4.953,17.233,17.233,0,0,0,9.735,6.456l.1-.049a16.9,16.9,0,0,1,5.367,11.719v26.4h23.716s.41-29.3-5.444-43.121a31.186,31.186,0,0,0-7.122-7.06c3.055.163,5.373,2.918,7.122,7.06a35.157,35.157,0,0,1,2.8,4.354l10.385,24.555,24.416-7.174c-10.735-30.183-34.5-40.585-34.5-40.585l-37.419-.55A22.762,22.762,0,0,0,849.669,265.438Z" transform="translate(-108.476 -114.147)" fill="#56769a"/>
      <path id="Path_603" data-name="Path 603" d="M996.2,277.4q.123.587.279,1.143c-.093-.376-.169-.751-.23-1.122Z" transform="translate(-255.052 -126.127)" fill="#56769a"/>
      <path id="Path_604" data-name="Path 604" d="M970.95,305.8" transform="translate(-216.896 -140.376)" fill="#56769a"/>
      <path id="Path_605" data-name="Path 605" d="M756.02,323.238c-1.313.986-3.589,2.961-4.193,5.2a.978.978,0,0,1-1.677.408c-3.064-3.458-9.3-10.137-12.661-11.248a.967.967,0,0,1-.487-1.485c1.591-2.217,4.811-6.03,7.236-4.5a.961.961,0,0,1,.274.271c.589.851,3.509,4.938,5.758,5.685,1.8.6,4.473,2.919,5.834,4.179A.969.969,0,0,1,756.02,323.238Z" transform="translate(114.79 -143.116)" fill="#07ad2e"/>
      <path id="Path_607" data-name="Path 607" d="M2.569,6.614c1.419,0,2.572-1.485,2.576-3.31S4,0,2.583.005.011,1.49.007,3.315,1.15,6.617,2.569,6.614Z" transform="translate(860.757 180.961) rotate(-131.786)" fill="#1ac63b"/>
      <path id="Path_606" data-name="Path 606" d="M754.664,325.45s-2.186,0-2.186-3.266" transform="translate(108.705 -148.597)" fill="none" stroke="#5b5957" stroke-linecap="round" stroke-miterlimit="10" stroke-width="2"/>
    </g>
    <ellipse id="Ellipse_48" data-name="Ellipse 48" cx="37" cy="28" rx="37" ry="28" transform="translate(140 59)" fill="#fff"/>
    <path id="Polygon_1" data-name="Polygon 1" d="M8.5,0,17,14H0Z" transform="matrix(-0.643, -0.766, 0.766, -0.643, 146.601, 115.011)" fill="#fff"/>
    <text id="HOME" transform="translate(152.5 93)" fill="#aed0ed" stroke="#aed0ed" stroke-width="1" font-size="15" font-family="MicrosoftJhengHeiRegular, Microsoft JhengHei" letter-spacing="0.05em"><tspan x="0" y="0">HOME</tspan></text>
  </g>
</svg>
