<?xml version="1.0"?>
<svg xmlns="http://www.w3.org/2000/svg" id="Layer_1" enable-background="new 0 0 511.838 511.838" height="512px" viewBox="0 0 511.838 511.838" width="512px" class="hovered-paths"><g><path d="m255.919 69.463c-74.57 0-135.237 60.667-135.237 135.237s60.667 135.237 135.237 135.237 135.237-60.667 135.237-135.237-60.667-135.237-135.237-135.237zm0 240.475c-58.028 0-105.237-47.209-105.237-105.237s47.209-105.238 105.237-105.238 105.237 47.209 105.237 105.237-47.209 105.238-105.237 105.238z" data-original="#000000" class="hovered-path active-path" data-old_color="#000000" fill="#FFFFFF"/><path d="m255.919 0c-112.872 0-204.7 91.829-204.7 204.701 0 59.312 33.131 127.943 98.473 203.987 47.758 55.58 94.805 93.895 96.784 95.498l9.443 7.652 9.443-7.652c1.979-1.604 49.026-39.918 96.784-95.498 65.342-76.044 98.473-144.675 98.473-203.987 0-112.872-91.828-204.701-204.7-204.701zm-.004 472.857c-37.639-32.711-174.696-159.323-174.696-268.156 0-96.33 78.37-174.701 174.7-174.701s174.7 78.371 174.7 174.701c0 108.717-137.076 235.429-174.704 268.156z" data-original="#000000" class="hovered-path active-path" data-old_color="#000000" fill="#FFFFFF"/><path d="m270.919 174.815h-53.927v30h23.927v38.122h-25.979v30h81.957v-30h-25.978z" data-original="#000000" class="hovered-path active-path" data-old_color="#000000" fill="#FFFFFF"/><path d="m239.006 125.78h31.913v31.913h-31.913z" data-original="#000000" class="hovered-path active-path" data-old_color="#000000" fill="#FFFFFF"/></g> </svg>
