<svg id="Group_16" data-name="Group 16" xmlns="http://www.w3.org/2000/svg" width="868.37" height="307.183" viewBox="0 0 868.37 307.183">
  <g id="Group_19" data-name="Group 19" transform="translate(12.76)">
    <g id="Group_16-2" data-name="Group 16">
      <g id="Group_15" data-name="Group 15">
        <path id="Path_536" data-name="Path 536" d="M234.965,284.368l-54.828-99.843q-7.18-13.082-15.655-31.819l-.6.328q4.079,14.528,4.574,19.45L184.044,312.33l-15.674,8.61L59.025,233.751q-4.156-3.311-14.453-15.2l-.6.328q8.674,13.43,19.529,33.2l53.349,97.146L94.584,361.457,9.658,206.8l33.448-18.37,97.922,79.17q11.469,9.3,17.4,16.3l.7-.382q-1.555-7.328-4.084-24.007l-13.39-125.2,32.15-17.656L258.73,271.314Z" transform="translate(-9.658 -66.268)" fill="#f7f7f7"/>
        <path id="Path_537" data-name="Path 537" d="M91.031,210.631q-6.722-41.259,12.23-70.486t58.19-35.626q36.76-5.992,63.05,15.114t32.6,59.78q6.694,41.04-11.883,70.143t-57.239,35.413q-36.88,6.011-63.75-14.771T91.031,210.631Zm28.018-6.527q4.69,28.778,22.449,44.984t42.83,12.125q26.312-4.289,38.04-24.38t6.816-50.216q-5.014-30.8-22.061-46.495T164,128.685q-25.41,4.141-37.547,25.277t-7.4,50.138Z" transform="translate(163.948 -95.631)" fill="#f7f7f7"/>
        <path id="Path_538" data-name="Path 538" d="M153.4,275.691l23.473-174.875,53.063,7.121q92.571,12.428,81.132,97.662-5.5,40.983-35.127,61.774t-70.833,15.258Zm47.446-147.982L183.616,256.07l23.823,3.2q30.93,4.151,50.925-10.808t24.179-46.116q4.1-30.591-10.569-48.826T225.348,131Z" transform="translate(303.802 -100.816)" fill="#f7f7f7"/>
        <path id="Path_539" data-name="Path 539" d="M296.51,313.936l-90.629-36.584,66.046-163.615,86.93,35.089-8.782,21.759-61.583-24.857-19.44,48.164,57.143,23.069-8.74,21.651-57.143-23.063-20.3,50.276,65.279,26.348Z" transform="translate(418.233 -72.64)" fill="#f7f7f7"/>
        <path id="Path_540" data-name="Path 540" d="M320.974,334.671,240.806,281.4l97.642-146.961,22.77,15.13L276.559,276.99l57.4,38.136Z" transform="translate(494.392 -27.488)" fill="#f7f7f7"/>
      </g>
    </g>
  </g>
  <g id="Group_20" data-name="Group 20">
    <g id="Group_16-3" data-name="Group 16">
      <g id="Group_15-2" data-name="Group 15">
        <path id="Path_536-2" data-name="Path 536" d="M234.965,284.368l-54.828-99.843q-7.18-13.082-15.655-31.819l-.6.328q4.079,14.528,4.574,19.45L184.044,312.33l-15.674,8.61L59.025,233.751q-4.156-3.311-14.453-15.2l-.6.328q8.674,13.43,19.529,33.2l53.349,97.146L94.584,361.457,9.658,206.8l33.448-18.37,97.922,79.17q11.469,9.3,17.4,16.3l.7-.382q-1.555-7.328-4.084-24.007l-13.39-125.2,32.15-17.656L258.73,271.314Z" transform="translate(-9.658 -66.268)" fill="#172d6d"/>
        <path id="Path_537-2" data-name="Path 537" d="M91.031,210.631q-6.722-41.259,12.23-70.486t58.19-35.626q36.76-5.992,63.05,15.114t32.6,59.78q6.694,41.04-11.883,70.143t-57.239,35.413q-36.88,6.011-63.75-14.771T91.031,210.631Zm28.018-6.527q4.69,28.778,22.449,44.984t42.83,12.125q26.312-4.289,38.04-24.38t6.816-50.216q-5.014-30.8-22.061-46.495T164,128.685q-25.41,4.141-37.547,25.277t-7.4,50.138Z" transform="translate(163.948 -95.631)" fill="#172d6d"/>
        <path id="Path_538-2" data-name="Path 538" d="M153.4,275.691l23.473-174.875,53.063,7.121q92.571,12.428,81.132,97.662-5.5,40.983-35.127,61.774t-70.833,15.258Zm47.446-147.982L183.616,256.07l23.823,3.2q30.93,4.151,50.925-10.808t24.179-46.116q4.1-30.591-10.569-48.826T225.348,131Z" transform="translate(303.802 -100.816)" fill="#172d6d"/>
        <path id="Path_539-2" data-name="Path 539" d="M296.51,313.936l-90.629-36.584,66.046-163.615,86.93,35.089-8.782,21.759-61.583-24.857-19.44,48.164,57.143,23.069-8.74,21.651-57.143-23.063-20.3,50.276,65.279,26.348Z" transform="translate(418.233 -72.64)" fill="#172d6d"/>
        <path id="Path_540-2" data-name="Path 540" d="M320.974,334.671,240.806,281.4l97.642-146.961,22.77,15.13L276.559,276.99l57.4,38.136Z" transform="translate(494.392 -27.488)" fill="#172d6d"/>
      </g>
    </g>
  </g>
</svg>
