<svg id="81ee6b9e-6a76-4493-a890-78e37eab3bc4" data-name="圖層 1" xmlns="http://www.w3.org/2000/svg" viewBox="0 0 220 250"><defs><style>.\32 380919b-a106-4a41-8281-3749786e5013{fill:#ecc9d1;}.c85750e9-b46c-4fbe-aa0f-850f3a4852ea{fill:#ece788;}.\39 9fe1f72-9f1b-4bfa-8f21-6024c027faa6{fill:#050306;}.e60e1270-1aa4-488b-8ffb-f7066dccfef7{fill:none;stroke:#ece788;stroke-linecap:round;stroke-miterlimit:10;stroke-width:3px;}</style></defs><title>q2</title><polygon class="2380919b-a106-4a41-8281-3749786e5013" points="69.9 230.45 66.27 253.4 56.7 253.4 59.98 228.37 69.9 230.45"/><path class="c85750e9-b46c-4fbe-aa0f-850f3a4852ea" d="M75.89,228.17l-23.67-4.23s-.78-50,43-47.95l37.53-.06s39.87,4.75,40.13,45.93l-22.15,4.52-.39,26.4L75.67,251Z"/><path class="2380919b-a106-4a41-8281-3749786e5013" d="M153.06,120.92c-2.67,26.74-24.83,46.71-49.52,44.62S61,140.08,63.68,113.35s24.83-46.71,49.52-44.62S155.72,94.19,153.06,120.92Z"/><circle class="99fe1f72-9f1b-4bfa-8f21-6024c027faa6" cx="110" cy="47.23" r="21.28" transform="translate(-0.2 93.99) rotate(-46.23)"/><path class="e60e1270-1aa4-488b-8ffb-f7066dccfef7" d="M94.75,62.12s15.06-9.18,31.55-.5"/><polygon class="2380919b-a106-4a41-8281-3749786e5013" points="105.42 158.38 103.33 173.68 113.53 189.34 121.77 173.86 118.8 158.38 105.42 158.38"/><polygon points="103.33 173.68 113.53 189.34 121.77 173.86 125.77 178.09 113.6 198.78 99.92 177.6 103.33 173.68"/><polygon points="52.22 223.94 52.22 227.82 75.85 232.1 75.89 228.17 52.22 223.94"/><polygon points="150.85 226.25 150.85 230.12 173.37 225.72 172.87 221.86 150.85 226.25"/><polygon class="2380919b-a106-4a41-8281-3749786e5013" points="158.07 228.84 161.71 251.79 171.28 251.79 167.99 226.77 158.07 228.84"/><path class="2380919b-a106-4a41-8281-3749786e5013" d="M68.46,121.41s-16.69,21,3.33,21.55"/><path class="2380919b-a106-4a41-8281-3749786e5013" d="M150.54,117.91s16.69,21-3.33,21.55"/><path class="99fe1f72-9f1b-4bfa-8f21-6024c027faa6" d="M153.6,125l-.28-.58c-3.86.16-10.27-21.46-10.46-22.13a0,0,0,0,1,0,0s-27.65,19.14-53.5,15.64L92,100.5c2-3.78-11.61,32.64-27.69,27.53,0,0-19-59.06,44.45-70.15C108.76,57.88,167.08,52,153.6,125Z"/></svg>