<svg id="190ee498-3a31-4cdf-ad06-f0af35eb165d" data-name="圖層 1" xmlns="http://www.w3.org/2000/svg" viewBox="0 0 220 250"><defs><style>.\31 25be832-dcfb-4165-9714-9bc4dc1f2d3c{fill:#ecc9d1;}.\33 98cde5f-bde1-4963-990a-8aa71b7b1411{fill:#ac97d9;}.\37 045bd5a-c761-413b-bb2a-3d6399b2379f{fill:#050306;}.f0e166db-0325-4f01-8619-7461cdd7a2bb{fill:#144182;}.d9f50e2b-856c-4c7a-bd14-9960511e858b{fill:#1a4696;}.\32 2e7f229-3e1d-49c6-9ae9-8f15f11f60b1{font-size:18.03px;fill:#ece788;stroke:#ece788;stroke-miterlimit:10;stroke-width:2px;font-family:DFYuan-Lt-HK-BF, DFYuanLight-B5;}.\34 3089d92-9ff3-4736-b196-04fd2983b66f{fill:#f6e1a8;}</style></defs><title>q3</title><polygon class="125be832-dcfb-4165-9714-9bc4dc1f2d3c" points="58.74 220.96 55.11 251.83 45.54 251.83 48.82 218.17 58.74 220.96"/><polygon class="125be832-dcfb-4165-9714-9bc4dc1f2d3c" points="161.92 217.29 165.56 251.83 175.12 251.83 171.84 214.17 161.92 217.29"/><path class="398cde5f-bde1-4963-990a-8aa71b7b1411" d="M67.28,223.16l-27.58-4.92s-.91-58.3,50.1-55.87l43.72-.07s46.46,5.54,46.76,53.51l-25.81,5.26L154,251.83H67Z"/><path class="7045bd5a-c761-413b-bb2a-3d6399b2379f" d="M48.79,67.18s-31,84.5,28,72.87l-7-71.64Z"/><path class="7045bd5a-c761-413b-bb2a-3d6399b2379f" d="M167,71.22s31,84.5-28,72.87l4.65-76.68Z"/><path class="125be832-dcfb-4165-9714-9bc4dc1f2d3c" d="M61.18,86.73l3,37.14S74.46,150,107.69,151s41.42-22,41.42-22L153,88.13Z"/><path class="f0e166db-0325-4f01-8619-7461cdd7a2bb" d="M55.56,68s-.85,42.37,49.66,39.56a20.38,20.38,0,0,1,4.13.18c8.34,1.24,42.23,3.62,50.6-37.9Z"/><path class="d9f50e2b-856c-4c7a-bd14-9960511e858b" d="M108.14,20.92S55,17.37,48.79,67.18l6.78.82L166.8,71.22S169.2,24.14,108.14,20.92Z"/><path class="d9f50e2b-856c-4c7a-bd14-9960511e858b" d="M99.41,21.17s-.45-4.15,8-4.28,9.66,4.88,9.66,4.88Z"/><text class="22e7f229-3e1d-49c6-9ae9-8f15f11f60b1" transform="translate(103.5 62.92)">C</text><path class="125be832-dcfb-4165-9714-9bc4dc1f2d3c" d="M99.55,148.91s-3,11.36-9.88,10.74c0,0-8.16,18.26,16.87,19.23s20-19.07,20-19.07-8.08-.25-10.73-11.62Z"/><path class="125be832-dcfb-4165-9714-9bc4dc1f2d3c" d="M90.29,159.61s-17.47.85-18,7.95,37.93,20.94,75.34,1.17c0,0-.27-5.43-27.26-9.92"/><path class="43089d92-9ff3-4736-b196-04fd2983b66f" d="M73,160.93s33.09,19.76,70.74,1.91l10.21,4s-42.75,35.25-88.05-1.68Z"/></svg>