<svg id="7df514af-ef31-4789-8a34-cb417f43d06b" data-name="圖層 1" xmlns="http://www.w3.org/2000/svg" viewBox="0 0 220 250"><defs><style>.f7b44a91-d55e-4516-8a28-0c9c694d1ef9{fill:#053518;}.\32 c55c6e9-2d19-447d-b270-0ea4c871a333{fill:#ecc9d1;}.\38 5654f3e-e83b-4d03-b710-76eca3018bf8{fill:#1c1c1a;}</style></defs><title>q4</title><path class="f7b44a91-d55e-4516-8a28-0c9c694d1ef9" d="M70.71,165.88s-35.28,23.46-39.16,85.49H182s-12.18-79.94-37.11-89.6"/><path class="2c55c6e9-2d19-447d-b270-0ea4c871a333" d="M145.72,95.91s4.1,59.31-38.23,65.23c0,0-44.45,3.34-42-65.23S97.94,43.28,97.94,43.28,152.54,44.79,145.72,95.91Z"/><path class="85654f3e-e83b-4d03-b710-76eca3018bf8" d="M65.47,95.91s7.66-18.51,4.93-30.79c0,0,4.32,9.33,13.42,7.28s24.57-13.65,38.45-13.65,20,15.93,21.39,34.59c0,0,10.69,6.6,10.92-43.91,0,0-1.59-13.88-21.16-8,0,0,8.19-25.48-15.93-25.94s-61.89,22.3-61.43,36C56.07,51.47,56.68,88.94,65.47,95.91Z"/><path class="85654f3e-e83b-4d03-b710-76eca3018bf8" d="M129.57,149.73s6.19-2.28,8.46,4.56c0,0,8.14,2.93,6.84,7.49S139,171.87,127,173.5L110.69,163.4S127,154,129.57,149.73Z"/><path class="85654f3e-e83b-4d03-b710-76eca3018bf8" d="M82.76,152S69,154.29,71.62,159.17c0,0,3.5,1.91.33,4.6,0,0-6.09,2.2-.72,5.49s30.91,16.77,63.31,2.4l-14.81-13.89S99.91,161.13,82.76,152Z"/><path class="85654f3e-e83b-4d03-b710-76eca3018bf8" d="M98.48,202l10.84-24-16.38-.89L84.8,191.67a5.79,5.79,0,0,0,1.87,7.67c3,2,7.3,3.82,11.81,2.64"/><path class="85654f3e-e83b-4d03-b710-76eca3018bf8" d="M109.32,178s-14.63,27.87-12.57,33.73c0,0,1.33,15.63,15.24,9.77,6.26-2.63,7.08-28.57,7.08-28.57,0-5.62,9.62-19,9.62-19l-19.37,4"/></svg>