<svg id="78026914-c33a-491d-8c97-93ee82c4b836" data-name="圖層 1" xmlns="http://www.w3.org/2000/svg" viewBox="0 0 220 250"><defs><style>.bfb665e5-1375-48a0-a021-dd3ecd801803{fill:#e5af9a;}.\30 803d448-19b6-4121-af43-49f455f5eedb{fill:#363c44;}.\31 eeedf8e-2bba-4f5a-b9a3-efcd5c8f0112{fill:#eae8e8;}.\38 7773f09-5f4f-475f-aa42-e8678fae169a{fill:#c4c4c4;}.\32 7ca1aac-6867-44d5-8335-7899341b10e1{fill:#1d2e49;}</style></defs><title>q5</title><path class="bfb665e5-1375-48a0-a021-dd3ecd801803" d="M55.55,62.55s-18.81,88.81,48.37,81.16c0,0,79.39,13.69,56.47-91.7L90,33Z"/><polygon class="0803d448-19b6-4121-af43-49f455f5eedb" points="68.84 177.14 86.82 160.59 145.71 162.42 159.5 170.53 158.15 254.65 70.44 255.65 68.84 177.14"/><polygon class="1eeedf8e-2bba-4f5a-b9a3-efcd5c8f0112" points="83.09 169.46 114.67 226.07 143.63 173.37 121.15 148.93 103.23 148.63 83.09 169.46"/><path class="87773f09-5f4f-475f-aa42-e8678fae169a" d="M95,35.63s23,44.95,84.75,5.8c0,0-17.81-6.17-18-12.61,0,0-39.85-40.36-66.24-7.77,0,0-55.68,10.17-46.29,37.51C49.18,58.57,66.68,74.16,95,35.63Z"/><circle class="bfb665e5-1375-48a0-a021-dd3ecd801803" cx="52.96" cy="91" r="8.28" transform="translate(-39.74 140.93) rotate(-88.11)"/><circle class="bfb665e5-1375-48a0-a021-dd3ecd801803" cx="165.9" cy="84.12" r="8.28" transform="matrix(0.03, -1, 1, 0.03, 76.35, 247.15)"/><path class="87773f09-5f4f-475f-aa42-e8678fae169a" d="M108.18,105.56s1.54-14.43,27.42.91c0,0,11.63,8.43,19.49,4.18,0,0,2.69,13-23.84,9.19S108.18,105.56,108.18,105.56Z"/><path class="87773f09-5f4f-475f-aa42-e8678fae169a" d="M110.78,107.63s-.59-14.5-27.42-.91c0,0-12.16,7.64-19.72,2.89,0,0-3.54,12.75,23.18,10.74S110.78,107.63,110.78,107.63Z"/><polygon class="bfb665e5-1375-48a0-a021-dd3ecd801803" points="102.5 141.78 101.86 151.65 101.34 159.78 124.12 159.41 122.55 141.03 102.5 141.78"/><polygon class="1eeedf8e-2bba-4f5a-b9a3-efcd5c8f0112" points="102.12 147.7 85.07 162.07 80.26 180.02 101.41 158.62 102.12 147.7"/><polygon class="1eeedf8e-2bba-4f5a-b9a3-efcd5c8f0112" points="122.66 145.82 145.71 162.42 146.95 178.31 124.31 156.44 122.66 145.82"/><polygon class="27ca1aac-6867-44d5-8335-7899341b10e1" points="107.26 171.02 119.24 171.8 124.18 158.58 101.41 158.62 107.26 171.02"/><polygon class="27ca1aac-6867-44d5-8335-7899341b10e1" points="97.98 196.16 108.37 168.02 117.5 168.02 130.78 196.75 114.67 226.07 97.98 196.16"/><path class="1eeedf8e-2bba-4f5a-b9a3-efcd5c8f0112" d="M68.84,177.14s-30.3,60.4-17,72.86l18.47.61Z"/><path class="1eeedf8e-2bba-4f5a-b9a3-efcd5c8f0112" d="M159.5,170.53S190.06,235.26,175,250.2l-16.75-.55Z"/></svg>