<svg xmlns="http://www.w3.org/2000/svg" width="413.24" height="626.645" viewBox="0 0 413.24 626.645">
  <g id="question-mark" transform="translate(0)">
    <path id="Path_575" data-name="Path 575" d="M203.477,0c108.391,0,215.1,49.919,215.1,169.321,0,110.109-126.176,152.455-153.274,192.242-20.343,29.6-13.549,71.181-69.443,71.181-36.41,0-54.2-29.616-54.2-56.713,0-100.837,148.158-123.658,148.158-206.69,0-45.7-30.415-72.8-81.253-72.8-108.391,0-66.066,111.748-148.158,111.748-29.636,0-55.075-17.785-55.075-51.638C5.32,73.6,100.142,0,203.477,0ZM199.26,487.719c38.049,0,69.443,31.294,69.443,69.463a69.453,69.453,0,1,1-69.443-69.463Z" transform="translate(-5.34)" fill="rgba(247,247,247,0.62)"/>
  </g>
</svg>
