<svg xmlns="http://www.w3.org/2000/svg" width="396.685" height="150" viewBox="0 0 396.685 150">
  <g id="Group_15" data-name="Group 15" transform="translate(0.041 0.225)">
    <g id="圖片4" transform="translate(315.449 56.71)">
      <path id="Path_486" data-name="Path 486" d="M94.158,27.064a47.837,47.837,0,0,1,6.089,2.05c5.522,2.368,8.686,6.758,10.592,12.219,3.01,8.628,1.333,16.883-2.33,24.857A21.435,21.435,0,0,1,98.258,76.536,15.93,15.93,0,0,1,94.595,77.9c-.81.178-.981.543-.909,1.346a34.51,34.51,0,0,1-4.162,19.872c-3.786,7-9.909,10.784-17.795,11.713a27.485,27.485,0,0,1-13.141-1.616C51.96,106.7,48.1,101.735,46.011,95.12c-1.684-5.33-1.333-10.667-.3-16.011.236-1.22.062-1.708-1.158-2.19C38.624,74.63,34.9,70.212,32.9,64.277a31.406,31.406,0,0,1,1.667-24.307c2.6-5.426,7.548-8.443,12.984-10.664a49.5,49.5,0,0,1,7.459-1.965c.222-.055.509.021.6-.3H57.82a11.057,11.057,0,0,0,3.683,0h.492a21.236,21.236,0,0,1,10.787,4.493,1.168,1.168,0,0,0,1.459.137,32.183,32.183,0,0,1,13.291-4.63h2.457a8.4,8.4,0,0,0,3.191,0Z" transform="translate(-31.199 -27.04)"/>
      <path id="Path_488" data-name="Path 488" d="M112.763,27.11a5.754,5.754,0,0,1-3.683,0Z" transform="translate(-82.469 -27.086)" fill="#141414"/>
      <path id="Path_489" data-name="Path 489" d="M206.431,27.11a4.387,4.387,0,0,1-3.191,0Z" transform="translate(-144.456 -27.086)" fill="#131313"/>
      <path id="Path_490" data-name="Path 490" d="M81.9,168.608a29.51,29.51,0,0,0,12.427-1.452,21.765,21.765,0,0,0,6.058-3.4c.342-.267.581-.622,1.131-.188,5.433,4.271,11.706,5.518,18.451,5.026a4.538,4.538,0,0,1,.485,0,.475.475,0,0,0,.342.157c0-.123-.171-.062-.174-.174.557-.236.994-.342,1.066.526.683,8.252-1.069,15.878-6.314,22.384-3.864,4.784-9.266,6.731-15.3,7.083a9.041,9.041,0,0,0-3.188,0c-8.443-.28-15.8-4.654-18.629-13.91-1.633-5.358-1.3-10.729-.372-16.131.082-.475.178-.745.759-.6,1.025.253,2.05.437,3.1.649-.106.2-.318.116-.472.181C81.481,168.707,81.734,168.82,81.9,168.608Z" transform="translate(-61.427 -116.785)" fill="#fefefe"/>
      <path id="Path_491" data-name="Path 491" d="M173.731,33.189c9.092-.27,18.827,4.442,20.614,16.982a31.2,31.2,0,0,1-4.982,22.1c-2.6,3.967-6.437,6.29-10.924,7.657-.823.249-.847-.232-1-.762a24.606,24.606,0,0,0-4.835-9.41,18.587,18.587,0,0,0-8.146-5.255c-.861-.311-1.1-.659-.851-1.585a29.488,29.488,0,0,0,.912-12.984,25.6,25.6,0,0,0-4.6-11.108c-.437-.577-.362-.817.243-1.175C164.669,34.959,169.429,33.158,173.731,33.189Z" transform="translate(-115.757 -31.081)" fill="#fefefe"/>
      <path id="Path_492" data-name="Path 492" d="M64.706,33.58a18.627,18.627,0,0,1,10.35,4.244c.752.588.044.817-.253,1.076a19.636,19.636,0,0,0-6.239,10.445c-.342,1.384-.595,2.785-.888,4.179-.147-.072-.089-.246-.171-.342.072.26-.065.554.137.789a4.015,4.015,0,0,1-.2,1.77c-.219-.239-.137-.533-.147-.9-.017.366-.072.656.147.892a29.834,29.834,0,0,0,.236,8.419c.185.847-.478.8-.943.953A28.872,28.872,0,0,0,55.8,71.442a18.639,18.639,0,0,0-4.954,7.49c-.263.752-.454,1-1.339.653-6.571-2.624-10.028-7.7-11.573-14.344-.13-.554-.174-1.124-.26-1.688.195-.181.126-.42.137-.642-.021.222.041.461-.137.653-.769-2.908-.454-5.843-.15-8.761.342-3.208.738-6.413,2.392-9.3,2.556-4.507,6.557-7.3,11.1-9.448a22.668,22.668,0,0,1,9.519-2.46A30.26,30.26,0,0,0,64.706,33.58Z" transform="translate(-35.147 -31.345)" fill="#fefefe"/>
      <path id="Path_493" data-name="Path 493" d="M143.771,69.023a24.492,24.492,0,0,1-1,6.266c-.106.451-.342.536-.8.482a25.841,25.841,0,0,0-9.366.475c-.755.188-.994,0-1.1-.762a36.71,36.71,0,0,1,1.268-15.4,16.651,16.651,0,0,1,5.617-7.879c.577-.5.748-.082,1.025.26a20.392,20.392,0,0,1,4.1,9.957,9.972,9.972,0,0,1,.253,2.918A34.792,34.792,0,0,0,143.771,69.023Z" transform="translate(-97.028 -43.459)" fill="#a7a9a1"/>
      <path id="Path_494" data-name="Path 494" d="M88.341,145.218a34.328,34.328,0,0,1-5.969-.577c-.823-.15-.854-.468-.584-1.131a19.493,19.493,0,0,1,7.777-9.051,34.961,34.961,0,0,1,7.107-3.547c.683-.253.905-.089,1.107.557a23.313,23.313,0,0,0,4.319,8.31c.533.629.062.837-.342,1.124a22.216,22.216,0,0,1-10.391,4.032C90.254,145.092,89.11,145.15,88.341,145.218Z" transform="translate(-64.402 -95.346)" fill="#a7a9a1"/>
      <path id="Path_495" data-name="Path 495" d="M166.344,144.772a23.065,23.065,0,0,1-13.411-4.015c-.718-.506-.974-.851-.232-1.633a22.151,22.151,0,0,0,4.784-8.2c.284-.83.6-.96,1.394-.646a18.27,18.27,0,0,1,11.59,13.326c.188.762-.024.912-.711.953C168.633,144.6,167.5,144.809,166.344,144.772Z" transform="translate(-110.892 -94.9)" fill="#a7a9a1"/>
      <path id="Path_496" data-name="Path 496" d="M147.058,127.5a3.915,3.915,0,0,1-1.657,2.884c-1.661,1.025-3.208,2.221-4.807,3.345-.342.243-.738.718-.994-.048-.164-.489-1.093-.923-.021-1.551C142.028,130.691,144.41,129.15,147.058,127.5Z" transform="translate(-102.212 -93.175)" fill="#809fdd"/>
      <path id="Path_497" data-name="Path 497" d="M142.644,127.088c-1.982,1.346-4.1,2.2-5.833,3.625-.205.167-.441.3-.571-.041s-.608-.837-.126-1.069C138.175,128.6,139.7,126.234,142.644,127.088Z" transform="translate(-100.128 -92.783)" fill="#809fdd"/>
      <path id="Path_498" data-name="Path 498" d="M148.312,141a18.733,18.733,0,0,1-2.918,4.244c-.383.444-.683.236-.83-.13s-1.11-.683-.4-1.237C145.408,142.931,146.741,142.09,148.312,141Z" transform="translate(-105.396 -102.062)" fill="#809fdd"/>
      <path id="Path_499" data-name="Path 499" d="M136.436,128.035c-.622.427-1.063.741-1.514,1.025-.267.178-.591.413-.755-.082-.12-.342-.325-.834.342-.919A2.93,2.93,0,0,1,136.436,128.035Z" transform="translate(-98.901 -93.416)" fill="#809fdd"/>
      <path id="Path_500" data-name="Path 500" d="M109.672,33.275a7.606,7.606,0,0,1-4.172,0,13.818,13.818,0,0,1,4.172,0Z" transform="translate(-80.112 -31.04)" fill="#fcfcfc"/>
      <path id="Path_501" data-name="Path 501" d="M167.42,94.763a5.785,5.785,0,0,1,0-3.683,10.791,10.791,0,0,1,0,3.683Z" transform="translate(-120.677 -69.199)" fill="#aeb0a8"/>
      <path id="Path_502" data-name="Path 502" d="M135,265.872a4.534,4.534,0,0,1,3.188,0A11.211,11.211,0,0,1,135,265.872Z" transform="translate(-99.533 -184.077)" fill="#fcfcfc"/>
      <path id="Path_503" data-name="Path 503" d="M125.849,91.347c-.342-.263-.2-.615-.226-.977.342.106.171.379.26.54Z" transform="translate(-93.354 -68.731)" fill="#f9f9f9"/>
      <path id="Path_504" data-name="Path 504" d="M89.208,178.585c-.253.379-.6.239-1,.243.253-.369.591-.144.837-.267l.089-.041Z" transform="translate(-68.73 -126.762)" fill="#fafafa"/>
      <path id="Path_505" data-name="Path 505" d="M204.1,178.571c.229.1.554-.058.779.4-.4-.1-.728-.031-.943-.376l.075-.061Z" transform="translate(-144.917 -126.768)" fill="#fcfcfc"/>
      <path id="Path_506" data-name="Path 506" d="M130.445,192.584c.543-3.878,2.05-7.459,3.454-11.067a9.322,9.322,0,0,1,.741-1.544c.287-.461.4-1.2,1.09-1.2.745,0,1.1.659,1.411,1.223a9.326,9.326,0,0,1,.782,1.79,22.208,22.208,0,0,0,2.337,5.241,10.923,10.923,0,0,1,1.5,5.241,48.59,48.59,0,0,0,.413,6.222c.243.205.181.431.048.659a23.055,23.055,0,0,0,.215,3.533c.089,1.62-.533,2.494-2.115,2.525-2.33.044-4.626.372-6.94.557-2.183.174-2.9-.513-2.932-2.733-.051-3.26-.031-6.523-.041-9.786A.489.489,0,0,1,130.445,192.584Z" transform="translate(-96.437 -126.926)"/>
      <path id="Path_507" data-name="Path 507" d="M165.078,235.1l-.048-.659.1-1.063C165.276,233.964,165.5,234.552,165.078,235.1Z" transform="translate(-119.302 -162.877)" fill="#fafafa"/>
      <path id="Path_508" data-name="Path 508" d="M130.186,217.653l-.041.683c-.407-.465-.208-.974-.062-1.486Z" transform="translate(-96.178 -151.995)" fill="#f9f9f9"/>
      <path id="Path_509" data-name="Path 509" d="M205.465,83.518a13.669,13.669,0,0,0-3.4-.28c-1.811-.1-2.238-.492-2.231-2.306,0-2.692.13-5.382.15-8.074a48.729,48.729,0,0,0-.448-7.551c-.089-.031-.12-.065-.1-.109s.051-.068.079-.068c.048-1.134.683-1.565,1.763-1.524,3.075.116,6.13.178,9.195.3,1.367.058,1.961.595,2,1.975.14,4.866.26,9.731.294,14.6,0,1.886-.622,2.481-2.484,2.921a23.36,23.36,0,0,1-4.4.144C205.742,83.682,205.6,83.706,205.465,83.518Z" transform="translate(-141.953 -51.11)" fill="#010101"/>
      <path id="Path_510" data-name="Path 510" d="M216.046,121.89l.427.027c-.263.342-.6.27-.964.191C215.613,121.808,215.886,121.989,216.046,121.89Z" transform="translate(-152.534 -89.481)" fill="#fcfcfc"/>
      <path id="Path_511" data-name="Path 511" d="M199.181,68.07a.1.1,0,0,1,.017.178l-.116.981C198.871,68.7,198.823,68.364,199.181,68.07Z" transform="translate(-141.611 -54.051)" fill="#fcfcfc"/>
      <path id="Path_512" data-name="Path 512" d="M67.988,77a3.151,3.151,0,0,0-1.746-3.417,9.483,9.483,0,0,1-4.2-6.1C60.6,61.507,66.557,55.7,72.594,57.168a10.934,10.934,0,0,1,6.492,4.51c2.487,3.533,2.248,7.131-.813,10.162a5.031,5.031,0,0,0-1.667,4.233c.137,2-.342,2.522-2.313,2.9-1.2.229-2.423.342-3.618.6C68.357,80.078,67.783,79.589,67.988,77Z" transform="translate(-51.361 -46.723)"/>
      <path id="Path_513" data-name="Path 513" d="M83.513,124.5H81.9v-.12h1.63Z" transform="translate(-64.576 -91.121)" fill="#f9f9f9"/>
      <path id="Path_514" data-name="Path 514" d="M117.88,84.787V83.42h.1v1.343Z" transform="translate(-88.262 -64.156)" fill="#fafafa"/>
      <path id="Path_515" data-name="Path 515" d="M125.212,96.425c-.4-.3-.273-.666-.1-1.025l.1,1.025Z" transform="translate(-92.916 -72.043)" fill="#fbfbfb"/>
      <path id="Path_516" data-name="Path 516" d="M38.6,119.032l.058-1.192c.246.571.287.892-.062,1.186Z" transform="translate(-36.071 -86.815)" fill="#fafafa"/>
      <path id="Path_517" data-name="Path 517" d="M148,216.885a3.139,3.139,0,0,0,3.28.089c.41-.249.581-.065.615.372.263,3.506.536,7.011.8,10.52.048.639-.28.933-.912,1.069-3.034.653-3.191.533-3.321-2.535S148.15,220.2,148,216.885Z" transform="translate(-108.091 -152.003)" fill="#fefefe"/>
      <path id="Path_518" data-name="Path 518" d="M137.981,216.59c.171,4.046.321,7.842.5,11.634.027.581-.174.752-.755.8-3.017.26-3.02.28-3.263-2.733-.215-2.7-.072-5.4-.092-8.091,0-.728.082-1.339,1.155-1.025A3.093,3.093,0,0,0,137.981,216.59Z" transform="translate(-99.097 -151.824)" fill="#fefefe"/>
      <path id="Path_519" data-name="Path 519" d="M138.627,195.069c.246,0,.615.137.885.024,1.476-.622,1.91.342,2.392,1.418a27.021,27.021,0,0,0,1.579,2.9c.536.882.226,1.428-.564,1.883a1.459,1.459,0,0,1-2.153-.307c-.94-1.268-.946-1.268-2-.188a2.491,2.491,0,0,1-1.367.741c-1.22.215-1.613-.171-1.24-1.315.519-1.589,1.11-3.154,1.667-4.729C137.94,195.147,138.012,194.727,138.627,195.069Z" transform="translate(-100.207 -137.543)" fill="#fefefe"/>
      <path id="Path_520" data-name="Path 520" d="M144.272,184.5a7.391,7.391,0,0,1,.888,1.893.465.465,0,0,1-.27.683,2.05,2.05,0,0,1-1.64.027c-.321-.167,0-.509.079-.745A5.832,5.832,0,0,1,144.272,184.5Z" transform="translate(-104.872 -130.699)" fill="#fefefe"/>
      <path id="Path_521" data-name="Path 521" d="M204.674,84.04a2.192,2.192,0,0,1-.683-1.989c.027-1.179.13-2.358.243-3.533a55.128,55.128,0,0,0-.2-9.762c-.13-1.568-.079-1.582,1.445-1.493,1.462.082,2.921.188,4.384.284a7,7,0,0,0,2.692,0c1.216-.085,1.643.509,1.671,1.691.1,4.336.14,8.672.089,13.008-.024,1.951-.133,2.129-2.129,2.238a5.985,5.985,0,0,1-.612-.027c-.554-.256-1.148,0-1.708-.147C208.145,84.221,206.413,84.163,204.674,84.04Z" transform="translate(-144.947 -53.5)" fill="#fefefe"/>
      <path id="Path_522" data-name="Path 522" d="M206,115.5c.1-.229.3-.56.489-.458,1.367.741,2.863.232,4.285.42a1.339,1.339,0,0,1,.41.222q.13.075.085.15c-.027.051-.058.075-.085.075h-.253c-1.251-.284-2.532.075-3.782-.195A1.281,1.281,0,0,1,206,115.5Z" transform="translate(-146.273 -84.961)" fill="#71d182"/>
      <path id="Path_523" data-name="Path 523" d="M209.4,116.886c1.261.075,2.542-.284,3.782.195A21.531,21.531,0,0,1,209.4,116.886Z" transform="translate(-148.512 -86.148)" fill="#71d081"/>
      <path id="Path_524" data-name="Path 524" d="M223.912,67.893a3.417,3.417,0,0,1-2.692,0A7.428,7.428,0,0,1,223.912,67.893Z" transform="translate(-156.293 -53.853)" fill="#74d685"/>
      <path id="Path_525" data-name="Path 525" d="M221.21,117.143v-.229c.571.092,1.192-.215,1.708.232Z" transform="translate(-156.286 -86.194)" fill="#75d886"/>
      <path id="Path_526" data-name="Path 526" d="M75.435,70.459c-.188.584.468,1.292-.42,1.661-.577.239-1.069.465-1.2-.489a4.8,4.8,0,0,0-.683-1.831c-.386-.642-.888-1.134-1.684-.936a1.758,1.758,0,0,0-1.336,1.708,2.593,2.593,0,0,0,1.948,2.658,1.4,1.4,0,0,1,1.069,1.387A36.066,36.066,0,0,0,73.85,80.2c.232.864-.509.622-.909.738-.6.174-.683-.147-.629-.656a4.932,4.932,0,0,0-2.641-5.163A8.058,8.058,0,0,1,66.254,66.8a7.647,7.647,0,0,1,6.082-5.689c4.507-.683,9.646,3.475,9.875,8.026a4.784,4.784,0,0,1-1.336,3.694c-.472.5-.981.974-1.5,1.445a4.172,4.172,0,0,0-1.367,3.383c0,.83.789,2.392-.612,2.392-1.025,0-.369-1.531-.485-2.361-.205-1.452-.2-2.935-.318-4.4a1.76,1.76,0,0,1,.492-1.544,3.2,3.2,0,0,0,.95-2.177c.021-.786,0-1.684-1.025-1.794s-1.415.663-1.565,1.534A6.667,6.667,0,0,0,75.435,70.459Z" transform="translate(-54.162 -49.418)" fill="#fefefe"/>
      <path id="Path_527" data-name="Path 527" d="M91.359,96.34a58.546,58.546,0,0,1,.29,6.717c0,.434-.1.748-.577.735s-.359-.472-.359-.755a22.281,22.281,0,0,0-.595-5.1C89.87,96.8,90.252,96.371,91.359,96.34Z" transform="translate(-69.939 -72.661)" fill="#f3f3f3"/>
      <path id="Path_528" data-name="Path 528" d="M95.667,85.507c-.038,0-.1-.017-.109-.044a1.883,1.883,0,0,1,.379-2.118.26.26,0,0,1,.407.051C96.641,83.771,96.361,84.687,95.667,85.507Z" transform="translate(-73.454 -64.056)" fill="#f3f3f3"/>
      <path id="Path_529" data-name="Path 529" d="M83.027,89.954c-.718-.431-1.244-.823-1.128-1.637.038-.267.342-.468.536-.342C83.232,88.382,83.054,89.12,83.027,89.954Z" transform="translate(-64.565 -67.129)" fill="#f3f3f3"/>
      <path id="Path_530" data-name="Path 530" d="M216.589,81.585c.024,1.186-.3,1.989-1.274,2.221-.683.164-.752.454-.571,1.025.147.458.017.864-.5.912s-.748-.366-.683-.81a1.549,1.549,0,0,0-1.042-1.8,3.1,3.1,0,0,1-1.315-1.418.536.536,0,0,1,.041-.683c.226-.208.451-.075.663.062.615.4,1.216.827,1.852,1.192a1.007,1.007,0,0,0,1.257,0c.379-.362.113-.847-.075-1.237a4.4,4.4,0,0,0-1.6-1.479c-1.872-1.333-1.965-2.8-.208-4.261.478-.4.376-.851.465-1.305s.02-1,.683-.977.536.54.492.929c-.068.612.174.878.762.994a1.4,1.4,0,0,1,1.025.817c.154.342.366.718.072,1.025-.4.42-.629-.072-.9-.267-.776-.567-1.555-.622-2.139.2s-.044,1.49.663,1.913C215.488,79.388,216.6,80.194,216.589,81.585Z" transform="translate(-149.629 -57.315)" fill="#010201"/>
    </g>
    <text id="_03" data-name="03" transform="translate(241.959 44.775)" fill="#f7f7f7" font-size="42" font-family="MicrosoftJhengHeiBold, Microsoft JhengHei" letter-spacing="0.05em"><tspan x="0" y="0">03</tspan></text>
    <text id="整合所需用到的所有資料_" data-name="整合所需用到的所有資料
" transform="translate(-0.041 111.775)" fill="#f7f7f7" font-size="24" font-family="MicrosoftJhengHeiBold, Microsoft JhengHei" letter-spacing="0.05em"><tspan x="0" y="0">整合所需用到的所有資料</tspan><tspan x="0" y="32"></tspan></text>
  </g>
</svg>
