<svg xmlns="http://www.w3.org/2000/svg" width="473" height="150" viewBox="0 0 473 150">
  <g id="Group_13" data-name="Group 13" transform="translate(0 -0.104)">
    <g id="圖片3" transform="translate(0 62.381)">
      <path id="Path_467" data-name="Path 467" d="M88.033,58.963h28.439c4.566,0,7.119,2.571,7.123,7.17,0,5.877.026,11.755-.022,17.632,0,.929.246,1.216,1.15,1.128a8.374,8.374,0,0,1,2.057.059,3.809,3.809,0,0,1,3.306,3.89c.026,3.24,0,6.483,0,9.723V127c0,3.089-1.447,4.555-4.515,4.555H87.908c-3.012,0-4.485-1.469-4.493-4.452,0-2.024-.066-4.041.026-6.076.048-1.018-.323-1.172-1.227-1.168q-11.362.05-22.727,0c-4.625,0-7.2-2.571-7.2-7.233,0-15.476.07-30.952-.048-46.424a6.961,6.961,0,0,1,7.347-7.3C69.071,59.077,78.552,58.963,88.033,58.963Z" transform="translate(-52.239 -58.906)"/>
      <path id="Path_468" data-name="Path 468" d="M185.684,157.478V176.19c0,1.657-.342,2.013-1.969,2.013H146.169c-1.583,0-1.94-.367-1.94-1.917V138.619c0-1.616.309-1.929,1.906-1.929h37.681c1.569,0,1.884.327,1.884,1.951Q185.688,148.059,185.684,157.478Z" transform="translate(-110.439 -108.117)" fill="#fefefe"/>
      <path id="Path_469" data-name="Path 469" d="M92.561,65.994h28.318c3.306,0,4.739,1.469,4.739,4.742,0,5.833-.022,11.667.026,17.5,0,.933-.261,1.142-1.153,1.128-2.755-.044-2.755,0-2.755-2.759v-7.17c0-2.068-1-3.045-3.064-3.045H66.411c-2.131,0-3.023.893-3.027,3.031v35.367c0,2.2.885,3.1,3.089,3.1,6.807,0,13.613.022,20.417-.018.9,0,1.157.2,1.139,1.124-.055,2.8,0,2.8-2.862,2.8H64.14c-3.229,0-4.65-1.433-4.65-4.68V70.688c0-3.306,1.422-4.7,4.753-4.7Z" transform="translate(-56.827 -63.388)" fill="#fefefe"/>
      <path id="Path_470" data-name="Path 470" d="M129.627,106.535c-6.561,0-13.125-.026-19.686.026-1,0-1.245-.294-1.179-1.223a31.518,31.518,0,0,0,0-3.28c0-.522.165-.753.7-.705.242.022.485,0,.735,0q19.384,0,38.765-.022c.992,0,1.5.121,1.348,1.282-.169,1.267.533,2.986-.279,3.71-.709.632-2.384.2-3.633.206Q138.014,106.546,129.627,106.535Z" transform="translate(-87.993 -85.746)" fill="#fefefe"/>
      <path id="Path_471" data-name="Path 471" d="M129.61,122.533c6.524,0,13.048.037,19.572-.033,1.242,0,1.069.617,1.1,1.4.055.9-.14,1.234-1.161,1.231-8.467-.048-16.938,0-25.4-.037-1.8,0-3.269.514-4.14,2.2-.209.408-.507.437-.893.437-3.038,0-6.079-.022-9.117,0-.632,0-.856-.173-.83-.819a31.1,31.1,0,0,0,0-3.4c-.062-.863.3-.988,1.051-.984C116.4,122.544,123.005,122.533,129.61,122.533Z" transform="translate(-87.98 -99.14)" fill="#fefefe"/>
      <path id="Path_472" data-name="Path 472" d="M113.774,148.67c-1.469,0-2.917-.037-4.375,0-.735.026-.918-.228-.867-.9.11-1.4-.577-3.236.287-4.077.694-.68,2.535-.2,3.868-.209,1.7,0,3.405.066,5.1-.029,1.01-.055,1.223.312,1.157,1.22a23.34,23.34,0,0,0,0,3.034c.04.735-.136,1-.922.962C116.61,148.618,115.188,148.67,113.774,148.67Z" transform="translate(-87.755 -112.317)" fill="#fefefe"/>
      <path id="Path_473" data-name="Path 473" d="M114.006,165c1.469,0,2.917.029,4.371,0,.632,0,.845.169.819.812-.051,1.212-.044,2.428,0,3.644.022.606-.213.735-.771.735q-4.434-.033-8.867,0c-.573,0-.79-.154-.771-.735.037-1.212.048-2.432,0-3.644-.029-.68.253-.812.856-.8C111.1,165,112.555,165,114.006,165Z" transform="translate(-88.013 -126.028)" fill="#fefefe"/>
      <path id="Path_474" data-name="Path 474" d="M113.978,191.265c-1.418,0-2.836-.033-4.25,0-.709.026-1.029-.121-.984-.918.066-1.172.044-2.347,0-3.523-.018-.591.195-.768.771-.764q4.434.033,8.867,0c.555,0,.8.114.779.735-.048,1.212-.044,2.428,0,3.644.022.628-.158.849-.812.827C116.916,191.232,115.447,191.265,113.978,191.265Z" transform="translate(-87.985 -139.352)" fill="#fefefe"/>
      <path id="Path_475" data-name="Path 475" d="M81.587,101.394c1.212,0,2.424.044,3.637,0,.771-.04.966.25.933.973-.055,1.128-.04,2.263,0,3.394.022.61-.136.856-.8.849-2.505-.037-5.01-.026-7.516,0-.529,0-.827-.081-.808-.716q.059-1.877,0-3.758c-.018-.624.268-.735.8-.735C79.082,101.412,80.324,101.394,81.587,101.394Z" transform="translate(-67.922 -85.784)" fill="#fdfdfd"/>
      <path id="Path_476" data-name="Path 476" d="M81.489,127.757c-1.253,0-2.505-.018-3.758,0-.525,0-.713-.173-.7-.694.026-1.253.022-2.505,0-3.758,0-.485.1-.735.661-.735q3.879.029,7.758,0c.522,0,.713.176.7.7-.026,1.253-.037,2.505,0,3.758.018.61-.228.735-.786.735C84.075,127.735,82.782,127.757,81.489,127.757Z" transform="translate(-67.923 -99.184)" fill="#fdfdfd"/>
      <path id="Path_477" data-name="Path 477" d="M81.588,148.924H77.83c-.518,0-.834-.055-.812-.7.044-1.253.04-2.505,0-3.758-.018-.624.264-.735.8-.735,2.505,0,5.01.026,7.516,0,.65,0,.834.22.812.841-.04,1.172-.055,2.347,0,3.515.037.735-.287.863-.926.841C84.016,148.895,82.8,148.924,81.588,148.924Z" transform="translate(-67.915 -112.571)" fill="#fdfdfd"/>
      <path id="Path_478" data-name="Path 478" d="M81.5,170.06c-1.212,0-2.424-.026-3.637,0-.606.018-.874-.125-.849-.793.048-1.209.04-2.424,0-3.637,0-.588.191-.768.764-.76q3.817.037,7.633,0c.624,0,.735.264.735.8-.029,1.212-.033,2.424,0,3.637,0,.584-.184.771-.764.757C84.088,170.06,82.792,170.06,81.5,170.06Z" transform="translate(-67.914 -125.945)" fill="#fdfdfd"/>
      <path id="Path_479" data-name="Path 479" d="M81.494,191.283H77.74c-.514,0-.735-.154-.713-.687.026-1.293.022-2.571,0-3.875,0-.485.206-.624.654-.621h7.754c.514,0,.735.162.709.694-.026,1.253-.033,2.505,0,3.754,0,.6-.209.764-.779.735-1.293-.033-2.571,0-3.875,0Z" transform="translate(-67.921 -139.377)" fill="#fdfdfd"/>
      <path id="Path_480" data-name="Path 480" d="M165.713,162.125c-2.887,0-2.862,0-3.126,2.887q-.478,5.26-1.025,10.517a5.183,5.183,0,0,1-10.285.294c-.176-.966,0-1.8,1.043-1.965.992-.158,1.385.518,1.506,1.469a2.57,2.57,0,0,0,5.128-.084c.422-4.066.79-8.14,1.242-12.2.088-.808-.143-.973-.882-.929-.929.059-1.862,0-2.792,0s-1.414-.463-1.4-1.322c0-.8.558-1.223,1.37-1.234.973,0,1.947-.055,2.913,0,.838.055,1.186-.129,1.256-1.08.242-3.229.6-6.447.937-9.668a5.179,5.179,0,0,1,10.285-.2c.114.86-.04,1.605-1,1.774s-1.436-.426-1.565-1.389a2.575,2.575,0,0,0-5.146.081c-.331,3.141-.6,6.285-.962,9.422-.107.911.195,1.1,1.025,1.058,1.212-.062,2.428-.022,3.644,0,.849,0,1.44.393,1.433,1.289s-.591,1.271-1.447,1.271Z" transform="translate(-114.859 -112.827)" fill="#809fdd"/>
      <path id="Path_481" data-name="Path 481" d="M205.8,207.313c-.239-.257-.426-.467-.621-.661-1.315-1.319-2.623-2.641-3.949-3.945-.654-.646-1-1.355-.25-2.1s1.469-.367,2.1.272c1.278,1.293,2.6,2.535,3.85,3.872.555.591.9.691,1.5.033,1.231-1.341,2.571-2.571,3.842-3.883.672-.683,1.407-1.1,2.182-.264.735.768.3,1.469-.338,2.1-1.355,1.333-2.674,2.707-4.041,4.019-.463.441-.448.7,0,1.131,1.344,1.286,2.634,2.63,3.964,3.934.665.654,1.164,1.374.367,2.2s-1.521.367-2.2-.309c-1.3-1.33-2.652-2.615-3.927-3.967-.481-.511-.735-.485-1.22,0-1.311,1.378-2.685,2.7-4.019,4.041-.639.646-1.344,1.021-2.1.283s-.415-1.469.239-2.1c1.352-1.337,2.693-2.685,4.041-4.041A7.488,7.488,0,0,0,205.8,207.313Z" transform="translate(-146.042 -148.281)" fill="#809fdd"/>
      <path id="Path_482" data-name="Path 482" d="M159.707,79.233H146.222a3.931,3.931,0,0,1-1.1-.073,1.2,1.2,0,0,1-.918-1.271,1.142,1.142,0,0,1,.885-1.164,4.673,4.673,0,0,1,1.2-.1h26.852a5.293,5.293,0,0,1,1.1.051,1.212,1.212,0,0,1,1.047,1.3,1.227,1.227,0,0,1-1.124,1.234,6.34,6.34,0,0,1-.97.026Z" transform="translate(-110.418 -70.111)" fill="#020202"/>
      <path id="Path_483" data-name="Path 483" d="M119.859,79.214c-.849,0-1.7.026-2.549,0a1.2,1.2,0,0,1-1.315-1.3,1.216,1.216,0,0,1,1.311-1.3c1.7-.04,3.4-.037,5.1,0a1.213,1.213,0,0,1,1.322,1.289c0,.874-.58,1.293-1.433,1.3s-1.62,0-2.428,0Z" transform="translate(-92.573 -70.095)" fill="#030303"/>
      <path id="Path_484" data-name="Path 484" d="M76.1,79.2c-.4,0-.8.026-1.2,0A1.243,1.243,0,0,1,73.606,77.9a1.194,1.194,0,0,1,1.2-1.264,18.913,18.913,0,0,1,2.77,0,1.175,1.175,0,0,1,1.161,1.289,1.2,1.2,0,0,1-1.194,1.267,13.468,13.468,0,0,1-1.447,0Z" transform="translate(-65.756 -70.089)" fill="#040404"/>
      <path id="Path_485" data-name="Path 485" d="M97.435,79.229a12.589,12.589,0,0,1-1.447,0,1.223,1.223,0,0,1-1.2-1.271,1.15,1.15,0,0,1,1.062-1.26,17.4,17.4,0,0,1,3.008,0,1.142,1.142,0,0,1,1.073,1.245,1.212,1.212,0,0,1-1.175,1.289A11.046,11.046,0,0,1,97.435,79.229Z" transform="translate(-79.156 -70.121)" fill="#040404"/>
    </g>
    <text id="_04" data-name="04" transform="translate(113 45.104)" fill="#f7f7f7" font-size="42" font-family="MicrosoftJhengHeiBold, Microsoft JhengHei" letter-spacing="0.05em"><tspan x="0" y="0">04</tspan></text>
    <text id="將資料切割成X和Y提供程式學習_" data-name="將資料切割成X和Y提供程式學習
" transform="translate(113 112.104)" fill="#f7f7f7" font-size="24" font-family="MicrosoftJhengHeiBold, Microsoft JhengHei" letter-spacing="0.05em"><tspan x="0" y="0">將資料切割成X和Y提供程式學習</tspan><tspan x="0" y="32"></tspan></text>
  </g>
</svg>
