<svg xmlns="http://www.w3.org/2000/svg" width="487.626" height="147" viewBox="0 0 487.626 147">
  <g id="Group_12" data-name="Group 12" transform="translate(0.5 -0.082)">
    <g id="Group_10" data-name="Group 10" transform="translate(0 55.292)">
      <path id="Path_428" data-name="Path 428" d="M40.151,99.826c0-3.764.081-7.531-.028-11.292a6.537,6.537,0,0,1,3.054-5.848,22.285,22.285,0,0,1,9.795-3.52c1.434-.221,2.886-.358,4.335-.434.688-.036.84-.276.828-.912-.036-1.967-.061-3.937.009-5.9.03-.833-.264-1.066-1.038-1.185A15.269,15.269,0,0,1,44.448,59.176a15.373,15.373,0,1,1,30.12-6.031c.136.925.443,1.164,1.355,1.145,3.079-.064,6.161-.079,9.238.005,1.067.029,1.279-.335,1.219-1.286-.076-1.193-.029-2.394-.016-3.592a3.857,3.857,0,0,1,4.19-4.134c3.165-.014,6.331-.028,9.5.014a1.82,1.82,0,0,0,1.7-.817c3.536-4.809,2.811-4.328,8.755-4.335,1.754,0,3.508-.023,5.261.006a3.8,3.8,0,0,1,3.962,3.969q.036,10.137,0,20.275a3.816,3.816,0,0,1-4.077,3.985c-3.379.021-6.759.041-10.137-.018-.93-.016-1.219.177-1.208,1.17.057,5.261.047,10.522.006,15.783-.007.856.228,1.142,1.09,1.264a16.662,16.662,0,1,1-18.8,18.959c-.127-.93-.394-1.287-1.394-1.238-1.878.093-3.764.061-5.645.01-.737-.02-.934.212-.917.93.046,1.967-.07,3.94.038,5.9a5.2,5.2,0,0,1-2.656,4.915,20.373,20.373,0,0,1-7.524,2.781,44.628,44.628,0,0,1-21.688-.913,13.687,13.687,0,0,1-4.771-2.42,4.817,4.817,0,0,1-1.909-4C40.185,107.611,40.151,103.718,40.151,99.826Z" transform="translate(-40.119 -40.135)" stroke="#809fdd" stroke-width="1"/>
      <path id="Path_429" data-name="Path 429" d="M114.825,123.453c0-1.882-.074-3.768.018-5.645a6.269,6.269,0,0,0-2.8-5.589,21.689,21.689,0,0,0-9.861-3.687c-1.474-.239-2.971-.35-4.462-.458-.6-.043-.911-.118-.891-.852q.085-3.077,0-6.159c-.018-.689.258-.845.852-.953,7.259-1.329,11.842-5.895,13.086-13.057.119-.685.354-.9,1.051-.89,3.25.038,6.5.049,9.752-.005.832-.014.986.257.968,1.014-.049,2.138-.03,4.277-.014,6.416a3.853,3.853,0,0,0,4.182,4.141c3.379.015,6.759.023,10.138-.01.76-.008,1.114.08,1.105,1q-.075,8.02,0,16.04c.008.87-.326,1.045-1.066,1.153a16.486,16.486,0,0,0-14.152,14.177c-.114.774-.344,1.069-1.178,1.038-1.965-.07-3.935-.053-5.9-.006-.692.016-.857-.215-.847-.869C114.847,127.988,114.825,125.72,114.825,123.453Z" transform="translate(-76.284 -69.482)" fill="#809fdd"/>
      <path id="Path_430" data-name="Path 430" d="M188.979,75.55c4.32,0,8.641.028,12.961-.023.906-.011,1.136.226,1.12,1.125-.058,3.293-.017,6.587-.025,9.881,0,1.455-.38,1.849-1.8,1.85q-12.32.01-24.639,0c-1.42,0-1.8-.393-1.8-1.846-.008-3.336.023-6.673-.021-10.009-.011-.781.176-1.006.983-1C180.167,75.572,184.573,75.55,188.979,75.55Z" transform="translate(-125.987 -62.703)" fill="#fefefe"/>
      <path id="Path_431" data-name="Path 431" d="M200.622,196.637a11.839,11.839,0,0,0-6.526-5.8,7.889,7.889,0,0,0,2.5-6.64,7.515,7.515,0,0,0-2.644-4.978,7.665,7.665,0,0,0-10.2.164c-3.278,3.011-3.3,6.941-.041,11.485a11.758,11.758,0,0,0-6.432,5.763c-3.235-4.087-3.908-12.329,1.9-17.911a14.084,14.084,0,0,1,19.314-.194C203.625,183.244,204.635,191.662,200.622,196.637Z" transform="translate(-126.02 -126)" fill="#fefefe"/>
      <path id="Path_432" data-name="Path 432" d="M63.493,166.3a31.987,31.987,0,0,1-11.411-2.034,11.8,11.8,0,0,1-3.321-1.9c-1.927-1.636-1.938-3.3-.032-4.941a11.33,11.33,0,0,1,3.91-2.144,35.618,35.618,0,0,1,22.658-.016,12.616,12.616,0,0,1,2.989,1.448c3.164,2.069,3.178,4.248.033,6.3a19.113,19.113,0,0,1-6.544,2.494A38.507,38.507,0,0,1,63.493,166.3Z" transform="translate(-44.704 -112.375)" fill="#fefefe"/>
      <path id="Path_433" data-name="Path 433" d="M47.246,185.076c11.151,5.424,22.195,5.422,33.367.009,0,1.2.053,2.592-.017,3.975-.051,1.012-.883,1.525-1.643,1.995a19.837,19.837,0,0,1-7.353,2.477,42.608,42.608,0,0,1-19.033-.88,13.669,13.669,0,0,1-4.055-1.857,2.6,2.6,0,0,1-1.283-2.469C47.309,187.193,47.246,186.051,47.246,185.076Z" transform="translate(-44.647 -132.56)" fill="#fefefe"/>
      <path id="Path_434" data-name="Path 434" d="M47.142,228.5c8.09,4.827,25.328,4.811,33.175.116.918,3.379.263,4.954-2.877,6.285-5.406,2.291-11.111,2.6-16.879,2.258a31.605,31.605,0,0,1-9.276-1.814c-.559-.209-1.106-.455-1.646-.709-1.727-.812-2.881-1.961-2.513-4.089A12.952,12.952,0,0,0,47.142,228.5Z" transform="translate(-44.544 -160.248)" fill="#fefefe"/>
      <path id="Path_435" data-name="Path 435" d="M47.164,207.968a42.035,42.035,0,0,0,33.2.07c.437,4.028.6,4.505-3.039,6.1-5.338,2.332-11.028,2.569-16.751,2.228a30.992,30.992,0,0,1-9.394-1.866c-.556-.215-1.1-.468-1.637-.725-1.632-.781-2.718-1.883-2.4-3.9A11.737,11.737,0,0,0,47.164,207.968Z" transform="translate(-44.565 -147.157)" fill="#fefefe"/>
      <path id="Path_436" data-name="Path 436" d="M196.789,234.517a14.291,14.291,0,0,1-9.08-3.319,1.128,1.128,0,0,1-.416-1.6,8.731,8.731,0,0,1,6.314-5.119,15.982,15.982,0,0,1,6.361,0,8.73,8.73,0,0,1,6.31,5.124,1.127,1.127,0,0,1-.425,1.6A14.279,14.279,0,0,1,196.789,234.517Z" transform="translate(-133.854 -157.479)" fill="#fefefe"/>
      <path id="Path_437" data-name="Path 437" d="M188.783,54.93c-4.235,0-8.47.013-12.7-.018-.505,0-1.365.45-1.307-.757.046-.967.241-1.723,1.363-1.78.854-.044,1.711-.012,2.566-.012,2.866,0,5.732-.026,8.6.018a1.672,1.672,0,0,0,1.578-.8c.829-1.193,1.746-2.324,2.6-3.5a1.929,1.929,0,0,1,1.738-.861c2.694.03,5.389,0,8.084.016,1.336.007,1.722.412,1.733,1.783.013,1.625-.044,3.253.022,4.876.034.836-.205,1.068-1.051,1.059C197.595,54.906,193.189,54.93,188.783,54.93Z" transform="translate(-125.981 -44.65)" fill="#fefefe"/>
      <path id="Path_438" data-name="Path 438" d="M204.716,199.23a5.131,5.131,0,1,1,5.185-5.077A5.148,5.148,0,0,1,204.716,199.23Z" transform="translate(-141.841 -135.042)" fill="#fefefe"/>
      <path id="Path_439" data-name="Path 439" d="M84.336,79.719c-1.28,0-2.561-.028-3.84.012-.617.019-.921-.15-1.028-.8a18.617,18.617,0,0,1,0-6.114c.107-.649.4-.817,1.025-.809,2.56.03,5.122.039,7.681,0,.729-.012.941.277,1.046.936a18.938,18.938,0,0,1,0,5.861c-.117.771-.446.972-1.177.939C86.813,79.678,85.573,79.719,84.336,79.719Z" transform="translate(-65.05 -60.453)" fill="#809fdd" stroke="#809fdd" stroke-width="1"/>
      <path id="Path_440" data-name="Path 440" d="M84.951,104.414a16.744,16.744,0,0,1-2.265-4.025h7.688a15.4,15.4,0,0,1-2.235,4.019A6.134,6.134,0,0,1,84.951,104.414Z" transform="translate(-67.263 -78.557)" fill="#809fdd" stroke="#809fdd" stroke-width="1"/>
      <path id="Path_441" data-name="Path 441" d="M88.265,53.49A16.594,16.594,0,0,1,90.5,57.442H82.873a14.9,14.9,0,0,1,2.2-3.946A6.142,6.142,0,0,1,88.265,53.49Z" transform="translate(-67.382 -48.519)" fill="#809fdd" stroke="#809fdd" stroke-width="1"/>
      <path id="Path_442" data-name="Path 442" d="M119.692,72.077c2.951-.183,3.023-.123,3.257,2.778a15.381,15.381,0,0,1-.236,3.7c-.143.891-.5,1.365-1.49,1.192a11.07,11.07,0,0,0-1.53-.062A26.4,26.4,0,0,0,119.692,72.077Z" transform="translate(-90.86 -60.465)" fill="#fdfdfd"/>
      <path id="Path_443" data-name="Path 443" d="M61.212,79.616c-2.95.184-3.023.124-3.256-2.778a15.235,15.235,0,0,1,.235-3.7c.145-.89.5-1.365,1.49-1.193a11.014,11.014,0,0,0,1.53.062A26.415,26.415,0,0,0,61.212,79.616Z" transform="translate(-51.471 -60.401)" fill="#fdfdfd"/>
      <path id="Path_444" data-name="Path 444" d="M115.956,72a10.343,10.343,0,0,1,0,7.6c-2.173.132-2.152.134-1.931-2.015a13.037,13.037,0,0,0-.108-4.2c-.262-1.163.059-1.653,1.275-1.44A7.015,7.015,0,0,0,115.956,72Z" transform="translate(-87.124 -60.393)" fill="#809fdd" stroke="#809fdd" stroke-width="1"/>
      <path id="Path_445" data-name="Path 445" d="M65.724,79.695a10.319,10.319,0,0,1,0-7.6.93.93,0,0,1,.126-.022c2.066-.095,2.047-.1,1.82,1.911a13.157,13.157,0,0,0,.094,4.329c.257,1.166-.062,1.65-1.276,1.439A7.1,7.1,0,0,0,65.724,79.695Z" transform="translate(-55.983 -60.479)" fill="#809fdd" stroke="#809fdd" stroke-width="1"/>
      <path id="Path_446" data-name="Path 446" d="M65.907,54.554H62.776a13.057,13.057,0,0,1,7.484-5.848L67.9,52.745C67.269,53.385,66.805,54.209,65.907,54.554Z" transform="translate(-54.567 -45.601)" fill="#fcfcfc"/>
      <path id="Path_447" data-name="Path 447" d="M105.638,53.108a31.777,31.777,0,0,0-2.352-3.828c2.434.18,5.831,2.767,7.38,5.64h-3.035C106.732,54.575,106.268,53.75,105.638,53.108Z" transform="translate(-80.399 -45.967)" fill="#fcfcfc"/>
      <path id="Path_448" data-name="Path 448" d="M68.066,102.306a31.512,31.512,0,0,0,2.348,3.831c-2.393-.145-5.824-2.754-7.373-5.631h3.037C66.973,100.849,67.43,101.676,68.066,102.306Z" transform="translate(-54.736 -78.632)" fill="#fcfcfc"/>
      <path id="Path_449" data-name="Path 449" d="M107.615,100.507h3.136a13.068,13.068,0,0,1-7.486,5.844l2.36-4.04C106.26,101.678,106.719,100.852,107.615,100.507Z" transform="translate(-80.386 -78.633)" fill="#fcfcfc"/>
      <path id="Path_450" data-name="Path 450" d="M92.145,50.761a5.775,5.775,0,0,1-3.188.005C90.8,48.42,90.3,48.41,92.145,50.761Z" transform="translate(-71.262 -45.789)" fill="#f7f7f6"/>
      <path id="Path_451" data-name="Path 451" d="M88.938,111.1a5.781,5.781,0,0,1,3.188-.005C90.28,113.44,90.786,113.444,88.938,111.1Z" transform="translate(-71.249 -85.241)" fill="#f7f7f6"/>
      <path id="Path_452" data-name="Path 452" d="M73.41,102.164a5.858,5.858,0,0,1-1.988-1.8C73.005,99.947,73.052,101.227,73.41,102.164Z" transform="translate(-60.08 -78.489)" fill="#809fdd" stroke="#809fdd" stroke-width="1"/>
      <path id="Path_453" data-name="Path 453" d="M111.769,100.364a5.83,5.83,0,0,1-1.989,1.8C110.138,101.23,110.182,99.946,111.769,100.364Z" transform="translate(-84.54 -78.49)" fill="#809fdd" stroke="#809fdd" stroke-width="1"/>
      <path id="Path_454" data-name="Path 454" d="M109.776,59.846a5.98,5.98,0,0,1,1.994,1.812C110.157,62.1,110.135,60.786,109.776,59.846Z" transform="translate(-84.537 -52.704)" fill="#809fdd" stroke="#809fdd" stroke-width="1"/>
      <path id="Path_455" data-name="Path 455" d="M71.417,61.662a5.976,5.976,0,0,1,1.991-1.809C73.05,60.792,73.027,62.1,71.417,61.662Z" transform="translate(-60.077 -52.709)" fill="#809fdd" stroke="#809fdd" stroke-width="1"/>
      <path id="Path_456" data-name="Path 456" d="M205.049,99.444h-2.586a2.184,2.184,0,0,1,0-2.488h2.586A2.185,2.185,0,0,1,205.049,99.444Z" transform="translate(-143.393 -76.368)" fill="#809fdd" stroke="#809fdd" stroke-width="1"/>
      <path id="Path_457" data-name="Path 457" d="M210.284,99.305q0-1.245,0-2.489c.382-.013.768,0,1.146-.046.981-.115,1.533.018,1.466,1.294-.055,1.047-.271,1.471-1.339,1.292A9.6,9.6,0,0,0,210.284,99.305Z" transform="translate(-148.628 -76.229)" fill="#040403" stroke="#809fdd" stroke-width="1"/>
      <path id="Path_458" data-name="Path 458" d="M197.944,96.957q0,1.244,0,2.488H195.4a2.1,2.1,0,0,1,0-2.487Z" transform="translate(-138.874 -76.369)" fill="#030202" stroke="#809fdd" stroke-width="1"/>
      <path id="Path_459" data-name="Path 459" d="M184.369,99.285c-.382.014-.768,0-1.147.047-.98.115-1.533-.017-1.467-1.293.055-1.048.272-1.471,1.34-1.292a9.661,9.661,0,0,0,1.274.051A2.1,2.1,0,0,1,184.369,99.285Z" transform="translate(-130.433 -76.209)" fill="#040403" stroke="#809fdd" stroke-width="1"/>
      <path id="Path_460" data-name="Path 460" d="M188.978,99.445V96.957h2.585v2.487Z" transform="translate(-135.042 -76.369)" fill="#809fdd" stroke="#809fdd" stroke-width="1"/>
      <path id="Path_461" data-name="Path 461" d="M75.319,168.3c-2.094,0-4.188.017-6.282,0a3.848,3.848,0,1,1-.022-7.689q6.281-.033,12.563,0a3.845,3.845,0,1,1,.022,7.686C79.507,168.322,77.413,168.3,75.319,168.3Z" transform="translate(-55.995 -116.946)" fill="#809fdd" stroke="#809fdd" stroke-width="1"/>
      <path id="Path_462" data-name="Path 462" d="M226.906,56.771a9.66,9.66,0,0,0-1.274.051c-1.067.179-1.332-.233-1.332-1.295s.264-1.474,1.332-1.295a9.658,9.658,0,0,0,1.274.051A2.105,2.105,0,0,1,226.906,56.771Z" transform="translate(-157.566 -49.099)" fill="#040403" stroke="#809fdd" stroke-width="1"/>
      <path id="Path_463" data-name="Path 463" d="M231.491,56.93q0-1.244,0-2.488h2.586a2.186,2.186,0,0,1,0,2.489Z" transform="translate(-162.151 -49.258)" fill="#809fdd" stroke="#809fdd" stroke-width="1"/>
      <path id="Path_464" data-name="Path 464" d="M238.627,56.772V54.283a9.654,9.654,0,0,0,1.273-.05c1.068-.179,1.331.234,1.331,1.295S240.968,57,239.9,56.822A9.594,9.594,0,0,0,238.627,56.772Z" transform="translate(-166.701 -49.099)" fill="#040403" stroke="#809fdd" stroke-width="1"/>
      <path id="Path_465" data-name="Path 465" d="M98.04,79.068c1.183-.322,1.365.215,1.4,1.243.033,1.112-.339,1.32-1.366,1.313-.991-.007-1.334-.246-1.268-1.27C96.861,79.451,96.8,78.648,98.04,79.068Z" transform="translate(-76.259 -64.888)" stroke="#809fdd" stroke-width="1"/>
      <path id="Path_466" data-name="Path 466" d="M83.908,79.073c1.236-.345,1.31.295,1.365,1.27.066,1.171-.421,1.257-1.392,1.286-1.057.032-1.267-.335-1.242-1.3S82.735,78.681,83.908,79.073Z" transform="translate(-67.232 -64.894)" stroke="#809fdd" stroke-width="1"/>
    </g>
    <text id="_02" data-name="02" transform="translate(116.126 45.082)" fill="#f7f7f7" font-size="42" font-family="MicrosoftJhengHeiBold, Microsoft JhengHei" letter-spacing="0.05em"><tspan x="0" y="0">02</tspan></text>
    <text id="對變數進行清洗_刪除無效項等等_" data-name="對變數進行清洗(刪除無效項等等)
" transform="translate(116.126 109.082)" fill="#f7f7f7" font-size="24" font-family="MicrosoftJhengHeiBold, Microsoft JhengHei" letter-spacing="0.05em"><tspan x="0" y="0">對變數進行清洗(刪除無效項等等)</tspan><tspan x="0" y="32"></tspan></text>
  </g>
</svg>
