<svg xmlns="http://www.w3.org/2000/svg" width="393.466" height="134.402" viewBox="0 0 393.466 134.402">
  <g id="Group_14" data-name="Group 14" transform="translate(0.041 -0.284)">
    <g id="data-1" transform="translate(314.031 55.292)">
      <path id="Path_409" data-name="Path 409" d="M102.662,66.006v5.679a3.8,3.8,0,0,1,3.364.483c.4.291.645.128,1.012-.067a3.714,3.714,0,0,1,5.43,1.583c.246.429.4.564.951.483A3.766,3.766,0,0,1,118,78.039c.028,5.544,0,11.088,0,16.632,0,2.63-1.261,4.724-2.851,6.676a3.537,3.537,0,0,0-1.026,2.506c.043.848.335,1.065,1.069.923,1.272-.227,1.636.234,1.593,1.54-.107,3.407-.068,6.822,0,10.236,0,.845-.228,1.065-1.069,1.047q-13.038-.046-26.076,0c-.787,0-1.119-.124-1.1-1.026.053-3.624.032-7.251,0-10.875,0-.589.039-.969.8-.937.57.025,1.461.323,1.664-.185a3.434,3.434,0,0,0-.043-2.378,15.424,15.424,0,0,0-.784-1.569,7.68,7.68,0,0,1-5.566,1.608c-2.569-.06-5.138.018-7.707-.035-.844,0-1.283.121-1.154,1.065.1.731-.314,1.562,1.1,1.537a4.988,4.988,0,0,1,5.27,4.678,2.548,2.548,0,0,1-2.729,2.953q-13.872.025-27.747,0a2.573,2.573,0,0,1-2.758-3.056A5.143,5.143,0,0,1,54,104.765c.42,0,1.069.312,1.226-.287a5.063,5.063,0,0,0,0-2.03c-.071-.394-.591-.22-.909-.22H45.458c-4.148,0-6.834-2.673-6.838-6.8V70.73c0-4.234,2.651-6.886,6.873-6.893H59.878a1.976,1.976,0,0,0,1.828-.831A10.143,10.143,0,0,1,66.035,59.7c.527-.22.816-.461.8-1.107-.046-1.959-.025-3.922,0-5.885,0-1.168-.538-1.75-1.728-1.682h-.128c-1.026,0-2.184-.277-3.047.1s-.6,1.711-.937,2.6A11.538,11.538,0,1,1,49.221,38.247,11.485,11.485,0,0,1,61.353,47.3c.207.98.538,1.26,1.464,1.175a23.605,23.605,0,0,1,2.441,0,3.847,3.847,0,0,1,4.091,3.979c.05,1.831.061,3.67,0,5.5-.036.916.5.88,1.033.742s1.614.639,1.546-.763v-.383c-.356-3.8,1.664-5.509,5.249-5.264,2.045.138,4.108.025,6.164.025a2.6,2.6,0,0,1,.143,2.485c-.453.525-1.069.426-1.668.433-1.75.025-3.5-.018-5.249.018-1.311.028-1.493.3-1.621,1.594A2.792,2.792,0,0,0,76.7,60.09a7.9,7.9,0,0,1,2.94,2.414,2.5,2.5,0,0,0,2.113.969,41.776,41.776,0,0,1,4.988.085,7.131,7.131,0,0,1,4.885,2.925A6.551,6.551,0,0,1,92.7,70.237v.639c0,3.308-.3,6.634,1.158,9.8a10.261,10.261,0,0,1,.641,3.131c0-5.856-.025-11.9,0-17.949,0-1.725.046-3.454-.029-5.175a2.465,2.465,0,0,0-.8-.976c-2.4-2.183-3.474-4.838-2.626-8.039a7.776,7.776,0,0,1,5.99-5.871,8.008,8.008,0,0,1,7.593,13.267,12.04,12.04,0,0,0-1.564,1.5,19.754,19.754,0,0,0-.128,3.613A3.816,3.816,0,0,1,102.662,66.006Z" transform="translate(-38.62 -38.207)"/>
      <path id="Path_410" data-name="Path 410" d="M183.07,60.4c2.219-1.7,3.68-3.794,3.651-6.708A7.71,7.71,0,1,0,174.064,59.6l.963.82a38.859,38.859,0,0,0-.054,4.249c0,.716-.1,1.2-.988,1a1.307,1.307,0,0,0-1.26.494c-.376.3-.737.641-1.285.49a7.517,7.517,0,0,0-4.3-2.592c-.086-.215-.3-.286-.462-.422-1.46-1.224-1.493-1.414-.566-3.089.165-.3.319-.6.48-.906a.83.83,0,0,0-.519-1.314c-.476-.19-.988-.268-1.471-.447-1.468-.537-1.79-1.371-1.131-2.9a8.491,8.491,0,0,0,0-2.584,1.914,1.914,0,0,0,.036-.512c-.283-1.432.394-2.055,1.732-2.223a4.865,4.865,0,0,0,1.235-.358.946.946,0,0,0,.558-1.518c-.447-.863-1.478-1.693-1.217-2.574s1.271-1.453,1.965-2.148,1.432-1.36,2.08-2.112c.569-.669,1.034-.616,1.74-.186,2.445,1.478,2.8,1.9,3.537-1.432a1.211,1.211,0,0,1,1.475-1.138c1.629.086,3.268.061,4.9,0a1.15,1.15,0,0,1,1.346,1c.888,3.035.931,3.053,3.673,1.528a1.1,1.1,0,0,1,1.614.236c1.149,1.274,2.384,2.481,3.637,3.655.548.512.641.924.168,1.521a9.246,9.246,0,0,0-.691,1.235c-.741,1.314-.551,1.754.938,2.148,2.251.612,2.251.612,2.251,2.914,0,1.289-.043,2.581,0,3.869a1.029,1.029,0,0,1-.952,1.242c-3.476.716-3.161,1.052-1.525,3.766a.952.952,0,0,1-.158,1.432c-1.3,1.253-2.556,2.549-3.787,3.869a.872.872,0,0,1-1.324.165c-.358-.243-.777-.387-1.113-.648a1.9,1.9,0,0,0-2.255-.254c-.537-.877-.19-1.843-.254-2.763S183.12,61.3,183.07,60.4Z" transform="translate(-118.937 -38.196)" fill="#fefefe"/>
      <path id="Path_411" data-name="Path 411" d="M218.4,100.22c.594.977.179,2.044.268,3.068.072.795.021,1.6.025,2.4l-.455.358A30.808,30.808,0,0,1,218.4,100.22Z" transform="translate(-154.268 -78.22)" fill="#809fdd"/>
      <path id="Path_412" data-name="Path 412" d="M92.1,135.316a8.634,8.634,0,0,1,1.672,4.653c.157,1.7.44,3.4.591,5.1a15.013,15.013,0,0,0,1.718,5.194,2.605,2.605,0,0,1-2.484,2.488,10.019,10.019,0,0,1-1.543.072H56.092a9.619,9.619,0,0,1-1.543-.072,3,3,0,0,1-2.685-2.728,2.713,2.713,0,0,1-.036-.383c-.039-7.606-.064-15.209,0-22.816a3,3,0,0,1,3.282-3.2c3.737-.075,7.474-.036,11.215,0a1.674,1.674,0,0,1,1.317.4,13.12,13.12,0,0,0,1.092,6.271,11.562,11.562,0,0,0,22.042-5.129v-1.156a4.614,4.614,0,0,1,4.063.1,2.2,2.2,0,0,1,1.3,1.79,8.207,8.207,0,0,1-.093,3.429,6.1,6.1,0,0,0-3.118,0,3.634,3.634,0,0,0-2.18,2.753.308.308,0,0,0-.183.379c.05.165.19.208.1.061" transform="translate(-47.076 -93.422)" fill="#809fdd"/>
      <path id="Path_413" data-name="Path 413" d="M180.9,109.834V98.094a4.434,4.434,0,0,1,.122-1.271,1.149,1.149,0,0,1,1.292-.848,1.17,1.17,0,0,1,1.142,1.049,7.946,7.946,0,0,1,.029,1.16c0,6.192.043,12.385-.036,18.577,0,1.238.583,1.113,1.389,1.149s1.357-.047,1.249-1.135c-.118-1.235-.029-2.506-.029-3.741,0-.891.358-1.571,1.314-1.564s1.281.687,1.267,1.589c-.021,1.246.1,2.506-.036,3.737-.147,1.317.659,1.042,1.432,1.113.931.086,1.3-.15,1.217-1.167-.1-1.2,0-2.405-.029-3.612,0-.938.3-1.682,1.342-1.661.966,0,1.256.716,1.242,1.618-.021,1.332.05,2.67-.021,4-.061,1.178.766.791,1.3.78s1.41.437,1.3-.759c-.047-.512,0-1.031,0-1.546,0-.909.4-1.546,1.357-1.511.881.036,1.224.666,1.221,1.514V121.5c0,2.864-.132,5.77.036,8.641a9.922,9.922,0,0,1-2.506,7.467,3.871,3.871,0,0,0-1.414,2.638c.054,2.166,0,2.166-2.209,2.166-4.861,0-9.718-.021-14.579.018-.895,0-1.4-.111-1.231-1.16a5.376,5.376,0,0,0-.78-3.44c-.716-1.36-1.274-2.824-2.055-4.152a23.775,23.775,0,0,1-3.107-10.907,12.129,12.129,0,0,0-2.527-7.159c-.276-.358-.687-.737-.379-1.264.358-.591.923-.358,1.4-.3a5.726,5.726,0,0,1,4.811,4.736c.476,2.359.956,4.714,1.389,7.08.136.741.376,1.192,1.224,1.034.737-.136,1.754.4,2.194-.276a8.4,8.4,0,0,0,1.682-4.4c.029-2.237,0-4.471.021-6.708Q180.9,112.673,180.9,109.834Z" transform="translate(-122.118 -75.699)" fill="#fefefe"/>
      <path id="Path_414" data-name="Path 414" d="M63.774,120.133H51.386c-2.1,0-3.06.966-3.064,3.082v22.193c0,2.176.956,3.114,3.161,3.114,12.3,0,24.605-.029,36.9.032,1.79,0,3.082-.494,3.8-2.18a19.217,19.217,0,0,0,1.11,2.173c.619.92.286,1.471-.533,1.954a4.227,4.227,0,0,1-2.2.6H49.811a3.809,3.809,0,0,1-4.066-4.027q-.029-12.764,0-25.532a3.721,3.721,0,0,1,3.579-3.959c4.983-.072,9.965-.025,15.016-.025Z" transform="translate(-43.185 -89.556)" fill="#fefefe"/>
      <path id="Path_415" data-name="Path 415" d="M197.38,232.943c3.522,0,7.044.021,10.57,0,.787,0,1.128.125,1.074,1.027-.075,1.929-.05,3.866,0,5.8,0,.691-.129.956-.9.956q-10.7-.047-21.395,0c-.762,0-.931-.258-.916-.963.043-1.89.061-3.784,0-5.67-.032-.888.2-1.167,1.124-1.153C190.418,232.961,193.9,232.943,197.38,232.943Z" transform="translate(-133.487 -163.905)" fill="#fefefe"/>
      <path id="Path_416" data-name="Path 416" d="M47.448,59.558a8.842,8.842,0,0,1,1.2-11.662,8.974,8.974,0,0,1,13.5,11.68,10.588,10.588,0,0,0-3.082-2.706c-.77-.415-.039-.716.115-.984a5.179,5.179,0,0,0-2.8-7.581,5.115,5.115,0,0,0-5.58,1.65,4.943,4.943,0,0,0-.437,5.781c.5.795.379,1.092-.4,1.493A8.3,8.3,0,0,0,47.448,59.558Z" transform="translate(-43.217 -42.866)" fill="#fefefe"/>
      <path id="Path_417" data-name="Path 417" d="M119.648,117.27l-.583-.669a8.722,8.722,0,0,1-1.682-5.215,5.133,5.133,0,0,0-8.831-4.052,4.921,4.921,0,0,0-.755,5.953c.591.934.358,1.26-.455,1.686a4.936,4.936,0,0,0-1.736,1.518c-.634.909-.916.623-1.332-.186a9.07,9.07,0,0,1,2.6-11.343,8.983,8.983,0,0,1,12.779,12.31Z" transform="translate(-80.273 -80.13)" fill="#fefefe"/>
      <path id="Path_418" data-name="Path 418" d="M203.427,72.272a4.753,4.753,0,0,1-.68,2.574c-.8,1.392-1.074,1.464-2.38.626a3.579,3.579,0,0,0-4.51.336c-.659.609-.949.383-1.4-.125a5.137,5.137,0,1,1,8.97-3.408Z" transform="translate(-138.136 -56.771)" fill="#fefefe"/>
      <path id="Path_419" data-name="Path 419" d="M88.568,235.573H75.682c-.336,0-.827.254-1.009-.226-.147-.379.111-.755.311-1.074a2.506,2.506,0,0,1,2.255-1.256H100.33a2.441,2.441,0,0,1,1.84.795c.419.444.873,1,.609,1.589-.208.462-.852.183-1.3.186Q95.007,235.577,88.568,235.573Z" transform="translate(-61.83 -163.955)" fill="#fdfdfd"/>
      <path id="Path_420" data-name="Path 420" d="M61.246,86.709A9.425,9.425,0,0,1,56.5,85.3c-.612-.358-.716-.666-.265-1.281a6.5,6.5,0,0,1,10.169,0c.472.644.308.924-.276,1.281A9.379,9.379,0,0,1,61.246,86.709Z" transform="translate(-49.749 -66.183)" fill="#fdfdfd"/>
      <path id="Path_421" data-name="Path 421" d="M118.783,144.411a9.307,9.307,0,0,1-4.868-1.457c-.555-.358-.651-.608-.24-1.178a6.482,6.482,0,0,1,10.252.018c.437.6.251.845-.272,1.17a9.239,9.239,0,0,1-4.872,1.446Z" transform="translate(-86.787 -103.417)" fill="#fdfdfd"/>
      <path id="Path_422" data-name="Path 422" d="M100,221.065c-2.23,0-4.464-.05-6.694.021-1.278.039-.773-.834-.82-1.389s-.276-1.253.845-1.239q6.822.093,13.645,0c1.2,0,.909.716.92,1.332s.218,1.349-.949,1.307C104.634,221,102.315,221.065,100,221.065Z" transform="translate(-73.272 -154.609)" fill="#fdfdfd"/>
      <path id="Path_423" data-name="Path 423" d="M164.931,125.473a10.4,10.4,0,0,1-.136-2.688,2.494,2.494,0,0,0-2.556-2.638c-.855-.043-1.718,0-2.577,0l-.562-2.563c1.629,0,3.222-.068,4.793.018a3.687,3.687,0,0,1,3.465,3.383c.093,1.367.036,2.742.043,4.116v1.342Z" transform="translate(-116.193 -89.42)" fill="#fefefd"/>
      <path id="Path_424" data-name="Path 424" d="M121.319,120.174a2.545,2.545,0,0,1,2.592-2.6,2.578,2.578,0,1,1-2.592,2.6Z" transform="translate(-91.861 -89.42)" fill="#fdfdfd"/>
      <path id="Path_425" data-name="Path 425" d="M68.883,62.456a2.634,2.634,0,0,1-2.649,2.577,2.578,2.578,0,1,1,.132-5.154A2.638,2.638,0,0,1,68.883,62.456Z" transform="translate(-54.737 -52.117)" fill="#fdfdfd"/>
      <path id="Path_426" data-name="Path 426" d="M191.877,105.97c-.852-.415-1.7-.748-2.577-.054a1.109,1.109,0,0,1,1.518-.716c.884.358.777-.175.813-.716.1-1.392-.247-2.806.186-4.184A38.94,38.94,0,0,1,191.877,105.97Z" transform="translate(-135.618 -78.272)" fill="#809fdd"/>
      <path id="Path_427" data-name="Path 427" d="M80.292,154.273c.666.576,1.432.2,2.148.218.487,0,.336-.508.358-.816a26.723,26.723,0,0,0,0-3.082c-.1-1.074.322-1.36,1.289-1.228a11.167,11.167,0,0,0,1.285.032,14.428,14.428,0,0,1,.093,4.882c.666.569,1.432.179,2.148.218.412.021.319-.412.358-.694.161-1.872.161-1.876,2.037-1.847a3.94,3.94,0,0,1,.512.021,3.122,3.122,0,0,1,.1,2.3c.666.558,1.432.183,2.148.215.4.018.329-.419.333-.716,0-1.074.072-2.148,0-3.186s.247-1.432,1.256-1.239c.472.086,1.038-.225,1.407.319a13.749,13.749,0,0,1,0,4.592c.2.44.6.229.906.24,1.543.05,1.9.551,1.568,2.115-.147.684-.626.465-1,.469-2.234.021-4.471,0-6.7,0-7.306,0-14.611-.021-21.921.025-1.017,0-1.278-.261-1.267-1.271.054-5.115.075-10.23,0-15.342-.021-1.278.336-1.7,1.553-1.493a6.762,6.762,0,0,0,1.031.025c.243.19.179.465.179.716v14a1.156,1.156,0,0,1-.1.5c.662.587,1.432.218,2.148.218.569,0,.358-.594.358-.931,0-3.483.075-6.966-.025-10.445-.036-1.278.336-1.7,1.553-1.493a6.834,6.834,0,0,0,1.031.025c.258.183.19.458.19.716v11.429a1.074,1.074,0,0,1-.107.494c.666.583,1.432.222,2.148.215.558,0,.358-.6.358-.938.018-2.62.09-5.244-.025-7.857-.057-1.281.358-1.7,1.553-1.493a6.969,6.969,0,0,0,1.027.029c.061.061.175.122.175.183C80.363,147.7,80.539,150.987,80.292,154.273Z" transform="translate(-57.064 -103.284)" fill="#010000"/>
    </g>
    <text id="_01" data-name="01" transform="translate(241.959 45.284)" fill="#f7f7f7" font-size="42" font-family="MicrosoftJhengHeiBold, Microsoft JhengHei" letter-spacing="0.05em"><tspan x="0" y="0">01</tspan></text>
    <text id="觀察資料_選取所需變數" data-name="觀察資料，選取所需變數" transform="translate(-0.041 109.284)" fill="#f7f7f7" font-size="24" font-family="MicrosoftJhengHeiBold, Microsoft JhengHei" letter-spacing="0.05em"><tspan x="0" y="0">觀察資料，選取所需變數</tspan></text>
  </g>
</svg>
