<svg id="7cb426e4-53c6-455b-9c7f-ec3701a18dfb" data-name="圖層 1" xmlns="http://www.w3.org/2000/svg" viewBox="0 0 185.75 185.75"><defs><style>.\32 9358fec-2921-4df6-8908-fcfbbb7669e4{fill:#809fdd;}.\30 d16bed7-04e0-4e04-96b2-d1fab0e2b300,.dc40f25b-cc58-4dbd-9a29-28d7d9f01209{fill:#fff;stroke:#fff;stroke-miterlimit:10;}.dc40f25b-cc58-4dbd-9a29-28d7d9f01209{stroke-width:3px;}</style></defs><title>1</title><path class="29358fec-2921-4df6-8908-fcfbbb7669e4" d="M43,0H185.75a0,0,0,0,1,0,0V142.75a43,43,0,0,1-43,43H0a0,0,0,0,1,0,0V43A43,43,0,0,1,43,0Z"/><path class="dc40f25b-cc58-4dbd-9a29-28d7d9f01209" d="M193.24,106a15.74,15.74,0,0,0-15.52-14.88,16.2,16.2,0,0,0-12.82,6.44l-.21-.09-.56-.25-.32-.12-.57-.18-.32-.08-.63-.11-.28,0a8.25,8.25,0,0,0-9.2,8.22c0,.12,0,.23,0,.35h0A12.71,12.71,0,0,0,146.39,116a11.82,11.82,0,0,0,11.8,11.81h32.28a11.07,11.07,0,0,0,11.05-11.05A11.31,11.31,0,0,0,193.24,106Zm-2.76,20H158.19a10,10,0,0,1-10-10,10.92,10.92,0,0,1,5.91-9.42l.52-.25v-.58c0-.12,0-.24,0-.35v-.34c0-.07,0-.15,0-.22a6.39,6.39,0,0,1,7.28-6.37l.21,0a6.26,6.26,0,0,1,.73.16l.1,0a6.26,6.26,0,0,1,.77.3l.19.09a6.42,6.42,0,0,1,3.59,5.76.92.92,0,0,0,1.84,0,8.25,8.25,0,0,0-2.94-6.31,14.56,14.56,0,0,1,11.29-5.63,13.87,13.87,0,0,1,13.65,12.76,17.55,17.55,0,0,0-3.75.11.92.92,0,0,0,.14,1.83h.14a16.88,16.88,0,0,1,4.3,0,9.42,9.42,0,0,1,7.5,9.18A9.23,9.23,0,0,1,190.47,126Z" transform="translate(-53.13 -57.13)"/><path class="0d16bed7-04e0-4e04-96b2-d1fab0e2b300" d="M116.48,195.28,116,200a1.34,1.34,0,0,0,1.33,1.48h14.17a1.34,1.34,0,0,0,1.33-1.48l-.5-4.68H150a5,5,0,0,0,5-5V155.76a5,5,0,0,0-5-5H97.75a5,5,0,0,0-5,5V190.3a5,5,0,0,0,5,5h18.73ZM130,198.77H118.8l.37-3.49h10.46ZM97.75,153.46H150a2.3,2.3,0,0,1,2.3,2.3v30.41H95.45V155.76A2.3,2.3,0,0,1,97.75,153.46Zm-2.3,36.84v-1.45h56.84v1.45a2.3,2.3,0,0,1-2.3,2.3H97.75A2.3,2.3,0,0,1,95.45,190.3Z" transform="translate(-53.13 -57.13)"/><path class="0d16bed7-04e0-4e04-96b2-d1fab0e2b300" d="M149.95,207.79a1.34,1.34,0,0,0,0-1.31l-2.65-5.09a1.34,1.34,0,0,0-1.19-.72H101.58a1.34,1.34,0,0,0-1.19.72l-2.65,5.09a1.34,1.34,0,0,0,1.19,2H148.8A1.34,1.34,0,0,0,149.95,207.79Zm-48.81-2,1.25-2.41h42.94l1.25,2.41Z" transform="translate(-53.13 -57.13)"/><path class="dc40f25b-cc58-4dbd-9a29-28d7d9f01209" d="M117.21,132.08a18.71,18.71,0,0,1,12.05-14.3l-.29.5a1.47,1.47,0,1,0,2.54,1.47l2-3.51a1.47,1.47,0,0,0-.54-2l-3.51-2a1.47,1.47,0,1,0-1.47,2.54l.37.21a21.58,21.58,0,0,0-13.1,27.73,1.47,1.47,0,0,0,2.76-1A18.62,18.62,0,0,1,117.21,132.08Z" transform="translate(-53.13 -57.13)"/><path class="dc40f25b-cc58-4dbd-9a29-28d7d9f01209" d="M186.48,149.54a18.71,18.71,0,0,1-12.05,14.3l.29-.5a1.47,1.47,0,1,0-2.54-1.47l-2,3.51a1.47,1.47,0,0,0,.54,2l3.51,2a1.47,1.47,0,1,0,1.47-2.54l-.37-.21a21.58,21.58,0,0,0,13.1-27.73,1.47,1.47,0,0,0-2.76,1A18.62,18.62,0,0,1,186.48,149.54Z" transform="translate(-53.13 -57.13)"/></svg>