<svg id="1a507fae-8783-4a7b-bb0c-85bcce165985" data-name="圖層 1" xmlns="http://www.w3.org/2000/svg" viewBox="0 0 185.75 185.75"><defs><style>.feb2ae34-86b4-4126-9faa-9065f1ad7547{fill:#4c6dca;}.\38 f40a842-ac4c-447d-b55d-f4432228fab4{fill:#fff;stroke:#fff;stroke-miterlimit:10;}</style></defs><title>2</title><path class="feb2ae34-86b4-4126-9faa-9065f1ad7547" d="M43,0H185.75a0,0,0,0,1,0,0V142.75a43,43,0,0,1-43,43H0a0,0,0,0,1,0,0V43A43,43,0,0,1,43,0Z"/><path class="8f40a842-ac4c-447d-b55d-f4432228fab4" d="M191.27,194.75c-1-18.73-17.82-26.47-17.82-26.47-4-1.88-11.31-5.56-16.09-8,6.12-6.7,7.93-17.62,8.21-19.18a74,74,0,0,0,.63-15.74C165,108.44,148,108.17,146.16,108.19h-.3c-1.62,0-18.9.15-20.08,17.18a74,74,0,0,0,.63,15.74c.08.45.3,1.72.71,3.42,3.22,4.23,8.19,6.3,12.27,7.31a2.84,2.84,0,0,1,2-.81h7.43a2.85,2.85,0,0,1,0,5.7h-7.43a2.85,2.85,0,0,1-2.62-1.72,28.68,28.68,0,0,1-9.71-4.25,30.33,30.33,0,0,0,5.57,9.52c-4.78,2.43-12.07,6.11-16.09,8,0,0-16.83,7.75-17.82,26.47,0,0-.29,3.11,5.61,4.29a192.7,192.7,0,0,0,79.33,0C191.57,197.86,191.27,194.75,191.27,194.75Z" transform="translate(-53.13 -57.13)"/><path class="8f40a842-ac4c-447d-b55d-f4432228fab4" d="M120,147.17h1.8v-21.1c0-.05,0-.1,0-.16V122.8c0-5.55,1.71-10.06,5.1-13.38,7-6.88,18.94-6.79,19.14-6.76s12-.18,19,6.69c3.4,3.33,5.13,7.85,5.13,13.44v3.29s0,.06,0,.09v21H172a8,8,0,0,0,8-8v-7.69a8,8,0,0,0-5.53-7.61v-1.07c0-6.78-2.16-12.33-6.42-16.5-8.3-8.12-21.55-7.91-22-7.92s-13.82-.17-22.11,8c-4.24,4.16-6.39,9.7-6.39,16.45v1.06a8,8,0,0,0-5.54,7.61v7.69A8,8,0,0,0,120,147.17Z" transform="translate(-53.13 -57.13)"/></svg>