<svg id="9ac0e66f-45f6-496f-a6b6-8cf2f0494fc8" data-name="圖層 1" xmlns="http://www.w3.org/2000/svg" viewBox="0 0 185.75 185.75"><defs><style>.\35 46ebdcb-6203-44a5-aced-4cc0c99e520c{fill:#1f3f9b;}.\36 9df8efe-5272-4479-b243-13495e85910b{fill:#fff;stroke:#fff;stroke-miterlimit:10;stroke-width:3px;}</style></defs><title>3</title><path class="546ebdcb-6203-44a5-aced-4cc0c99e520c" d="M43,0H185.75a0,0,0,0,1,0,0V142.75a43,43,0,0,1-43,43H0a0,0,0,0,1,0,0V43A43,43,0,0,1,43,0Z"/><path class="69df8efe-5272-4479-b243-13495e85910b" d="M149.28,163.21h-5.57a3.66,3.66,0,1,1,0-7.33h9.8a2.43,2.43,0,0,0,0-4.86h-4.6v-3.38a2.43,2.43,0,0,0-4.86,0V151h-.34a8.52,8.52,0,1,0,0,17h5.57a3.66,3.66,0,0,1,0,7.33h-10a2.43,2.43,0,1,0,0,4.86h4.78v3.46a2.43,2.43,0,0,0,4.86,0v-3.46h.47a8.52,8.52,0,0,0-.12-17Z" transform="translate(-53.13 -57.13)"/><path class="69df8efe-5272-4479-b243-13495e85910b" d="M183,157.7a69.64,69.64,0,0,0-10.53-16.89A78.44,78.44,0,0,0,159,128l10.33-19.15a2.4,2.4,0,0,0-.45-2.88,12.1,12.1,0,0,0-8.67-3.89,20.38,20.38,0,0,0-7.86,2.07,14.87,14.87,0,0,1-4.94,1.48,3.08,3.08,0,0,1-1.15-.2c-4.82-1.76-8.52-2.85-12.11-2.85-4.54,0-8.4,1.82-12.19,5.71a2.44,2.44,0,0,0-.28,3l11.14,16.82a79.75,79.75,0,0,0-13.3,12.67A70.27,70.27,0,0,0,109,157.7a57.42,57.42,0,0,0-4.82,22.92A18.88,18.88,0,0,0,123,199.47h46a18.88,18.88,0,0,0,18.85-18.85A57.42,57.42,0,0,0,183,157.7Zm-56.14-47.4a10.59,10.59,0,0,1,7.29-2.92c2.88,0,6.11,1,10.43,2.57a8.23,8.23,0,0,0,2.81.49,17.93,17.93,0,0,0,6.8-1.84,16.42,16.42,0,0,1,6-1.7,6.43,6.43,0,0,1,3.91,1.34l-9.72,18.06H137.46ZM169,194.61H123a14,14,0,0,1-14-14c0-13,4.76-25.29,14.11-36.59a74.32,74.32,0,0,1,13.75-12.88h18.18A72.92,72.92,0,0,1,168.82,144c9.37,11.3,14.11,23.59,14.11,36.59A14,14,0,0,1,169,194.61Z" transform="translate(-53.13 -57.13)"/></svg>