<svg id="bf5097d6-6218-48dd-811a-b87dfb14dc5e" data-name="圖層 1" xmlns="http://www.w3.org/2000/svg" viewBox="0 0 185.75 185.75"><defs><style>.ee5747ed-0c80-401a-b14a-c1dbde4c8950{fill:#01174f;}.d51e1e8d-8c8f-4a23-9c70-2ed5f1387b0e{fill:#fff;stroke:#fff;stroke-miterlimit:10;stroke-width:3px;}</style></defs><title>4</title><path class="ee5747ed-0c80-401a-b14a-c1dbde4c8950" d="M43,0H185.75a0,0,0,0,1,0,0V142.75a43,43,0,0,1-43,43H0a0,0,0,0,1,0,0V43A43,43,0,0,1,43,0Z"/><path class="d51e1e8d-8c8f-4a23-9c70-2ed5f1387b0e" d="M178.88,169.06c-2.19-4.58-10-10.93-17.63-17.07-4.23-3.42-8.23-6.65-10.78-9.2a2.33,2.33,0,0,0-2.44-.55c-1.57.57-2.54,1-3.3,1.35a7.71,7.71,0,0,1-3.13.86,2.33,2.33,0,0,0-1.71,1c-3.29,4.93-6.71,4.51-9,3.74-.73-.24-.86-.55-.93-.85-.49-2,2-6.81,5.15-10,7.57-7.58,11.48-9.47,19.73-5.79,9.36,4.18,18.73,7.46,18.83,7.49a2.33,2.33,0,1,0,1.53-4.4c-.09,0-9.28-3.24-18.45-7.35-10.69-4.78-16.55-1.63-24.92,6.75-3.19,3.19-7.52,9.64-6.4,14.37a5.76,5.76,0,0,0,4,4.2c5.28,1.74,10.1.07,13.69-4.69a11.76,11.76,0,0,0,3.5-1.11c.44-.2,1-.42,1.63-.7,2.67,2.5,6.26,5.42,10.05,8.48,6.85,5.54,14.62,11.82,16.37,15.46a2.73,2.73,0,0,1-.69,3.5,2.57,2.57,0,0,1-2.87.56,2.33,2.33,0,0,0-3.64,2.17,2.82,2.82,0,0,1-1.78,2.62c-1.49.75-3,.62-3.63.08a2.33,2.33,0,0,0-3.91,1.49,4.43,4.43,0,0,1-2.75,3.57,2.46,2.46,0,0,1-2.67-.41,2.36,2.36,0,0,0-2.13-.54,2.33,2.33,0,0,0-1.64,1.47c-.09.23-.29.79-2.47.79a13.42,13.42,0,0,1-5.71-2c-1.64-1.08-11.89-8.73-20.75-16.15-1.24-1-3.4-3.29-5.3-5.28-1.69-1.76-3.23-3.36-4-4a2.33,2.33,0,0,0-3,3.56c.72.61,2.12,2.09,3.66,3.7,2.08,2.17,4.23,4.42,5.67,5.63,8.68,7.27,19.11,15.11,21.19,16.47A17.88,17.88,0,0,0,146.5,191a8,8,0,0,0,5.29-1.56,7.25,7.25,0,0,0,5.3-.06,9.18,9.18,0,0,0,4.85-4.48,9,9,0,0,0,5.85-.84,7.91,7.91,0,0,0,3.89-4.06,7.62,7.62,0,0,0,5.35-1.92A7.41,7.41,0,0,0,178.88,169.06Z" transform="translate(-53.13 -57.13)"/><path class="d51e1e8d-8c8f-4a23-9c70-2ed5f1387b0e" d="M137.18,130.45h-21a2.33,2.33,0,1,0,0,4.66h21a2.33,2.33,0,1,0,0-4.66Z" transform="translate(-53.13 -57.13)"/><path class="d51e1e8d-8c8f-4a23-9c70-2ed5f1387b0e" d="M185.71,164.1a2.32,2.32,0,0,0-3.23-.63L175.66,168a2.33,2.33,0,0,0,2.6,3.87l6.81-4.58A2.33,2.33,0,0,0,185.71,164.1Z" transform="translate(-53.13 -57.13)"/><path class="d51e1e8d-8c8f-4a23-9c70-2ed5f1387b0e" d="M171.25,175.22c-1.67-1.31-9.13-9-13.74-13.76a2.33,2.33,0,1,0-3.36,3.22c1.2,1.25,11.76,12.26,14.22,14.2a2.32,2.32,0,0,0,1.44.5,2.35,2.35,0,0,0,1.84-.89A2.33,2.33,0,0,0,171.25,175.22Z" transform="translate(-53.13 -57.13)"/><path class="d51e1e8d-8c8f-4a23-9c70-2ed5f1387b0e" d="M161.94,179.89c-2.79-2.23-9.8-9.68-11.39-11.41a2.33,2.33,0,0,0-3.43,3.16c.08.09,8.45,9.12,11.91,11.89a2.33,2.33,0,0,0,2.91-3.64Z" transform="translate(-53.13 -57.13)"/><path class="d51e1e8d-8c8f-4a23-9c70-2ed5f1387b0e" d="M152.66,184.59c-3.32-2.8-10.12-10-11.45-11.46a2.33,2.33,0,1,0-3.41,3.18c1.91,2,8.42,8.94,11.85,11.84a2.33,2.33,0,0,0,3-3.57Z" transform="translate(-53.13 -57.13)"/><path class="d51e1e8d-8c8f-4a23-9c70-2ed5f1387b0e" d="M117.81,126.43c-4-3.78-20-5-24.76-5.29a2.33,2.33,0,0,0-2.47,2.33V165.4a2.33,2.33,0,0,0,2.33,2.33h14a2.33,2.33,0,0,0,2.21-1.61c.34-1,8.37-25.69,9.43-37.8A2.32,2.32,0,0,0,117.81,126.43Zm-12.62,36.64H95.23V126c7.49.59,15.57,1.88,18.51,3.3C112.5,139.47,106.92,157.6,105.18,163.07Z" transform="translate(-53.13 -57.13)"/><path class="d51e1e8d-8c8f-4a23-9c70-2ed5f1387b0e" d="M200.09,125.79c-18.3,0-28.45,4.68-28.87,4.88a2.32,2.32,0,0,0-1.24,1.45,2.35,2.35,0,0,0,.26,1.89c2.88,4.64,11.9,30.39,13.63,36.67a2.33,2.33,0,0,0,2.25,1.71h14a2.33,2.33,0,0,0,2.33-2.33V128.12A2.33,2.33,0,0,0,200.09,125.79Zm-2.33,41.94h-9.91c-2.21-7.2-8.73-26-12.37-33.71a75.89,75.89,0,0,1,22.28-3.54Z" transform="translate(-53.13 -57.13)"/></svg>