<svg xmlns="http://www.w3.org/2000/svg" viewBox="0 0 495.82 495.82"><defs><style>.\34 0b7c6c3-a686-4d7b-86e8-78a0a4901d8f{fill:#e5e5e5;}.\31 3c7766a-ce46-4137-97f8-194dca493f53{fill:#383a3a;}.\35 c53f08b-db8d-4bb0-92ad-ba512fb03b86{fill:#181919;}.c9f39c9b-d4fc-42e1-a168-ec629a4fd836{fill:#875035;}.\32 8b26aa1-9937-4c1a-ae18-08a80345fc5c{fill:#663a29;}.e621bc6c-00fe-4d11-80c8-1afd035583ed{fill:#592f23;}.\33 be2c232-cbf5-4250-9114-eea6ef5e968a,.\35 f89c95a-980f-438e-b656-ac7fae5d13bb,.\37 b54991f-ef50-4a9c-9ee6-ce7a502736e8,.cba9f140-7fdc-491b-864b-046e14a86e15{fill:none;}.bb039f49-db28-4ea4-b677-72ed8d073f13,.cba9f140-7fdc-491b-864b-046e14a86e15{stroke:#000;}.\33 be2c232-cbf5-4250-9114-eea6ef5e968a,.\35 f89c95a-980f-438e-b656-ac7fae5d13bb,.bb039f49-db28-4ea4-b677-72ed8d073f13,.cba9f140-7fdc-491b-864b-046e14a86e15{stroke-miterlimit:10;}.\34 b51c22c-4401-4004-8e3c-2711cae28572{fill:#d6d6d6;}.e66fe7cd-c608-48d2-aea9-e4fa88b84420{fill:#252628;}.\38 045fdd9-eddc-4917-ab58-2bf6a43a52b3{fill:#4c6dca;}.\37 399f81b-f86d-468d-944f-db6bd85f05d9{fill:#8a8d93;}.\36 bbc9c6e-51b2-459b-aead-9af46699d458{fill:#e5af9a;}.\31 e89fece-23b4-41a2-9f74-1cedce8cd0fa{fill:#efe922;}.b9446ee8-a5f4-4c48-bbb5-3b6950fa0d34{fill:#dbcd23;}.b828471b-2a28-4795-8d4c-2bc288b25dfc{fill:#89a6e5;}.a34ddc33-7e1c-4cab-943a-41eef1aa5a70{fill:#9ee493;}.e2ae2f84-c0a6-4440-b659-e51a27c76565{fill:#2f3132;}.\36 2d491ec-e762-4e5e-8e59-b90de45c2990{fill:#5f5f5f;}.\31 21c5892-6ee6-4540-a519-3804cd6fe66a{fill:#efcf48;}.\37 b54991f-ef50-4a9c-9ee6-ce7a502736e8{stroke:#231815;stroke-linecap:round;stroke-linejoin:round;stroke-width:0.25px;}.bb039f49-db28-4ea4-b677-72ed8d073f13,.e1cf817e-f09d-409b-9538-defd6bd2859f{fill:#fff;}.\35 f89c95a-980f-438e-b656-ac7fae5d13bb{stroke:#fff;}.\33 be2c232-cbf5-4250-9114-eea6ef5e968a,.bb039f49-db28-4ea4-b677-72ed8d073f13{stroke-width:0.5px;}.bb039f49-db28-4ea4-b677-72ed8d073f13{opacity:0.5;}.\33 be2c232-cbf5-4250-9114-eea6ef5e968a{stroke:#8e8e8e;opacity:0.51;}.\33 6d04e58-0ed9-46a2-8301-87b70f083970{fill:#1da1a3;}.eb63e135-f2c5-4d43-a444-038e4e9d4b4e{fill:#59c3c3;}.e6dc284e-da6b-4263-bec5-15981e9bb23c{fill:#9cb9e8;}</style></defs><title>p1-1</title><g id="e2accacc-18c7-4716-b8b4-9dccd39144c6" data-name="circle"><circle class="40b7c6c3-a686-4d7b-86e8-78a0a4901d8f" cx="247.91" cy="247.91" r="247.91"/></g><g id="337b0661-8ff6-4606-8a39-d04c48be3a65" data-name="chair"><polyline class="13c7766a-ce46-4137-97f8-194dca493f53" points="251.34 313.72 253.72 301.68 206.39 313.72 206.39 325.62"/><polygon class="13c7766a-ce46-4137-97f8-194dca493f53" points="276.57 234.23 273.24 243.68 255.24 339.56 357.91 339.56 369.24 243.68 276.57 234.23"/><path class="5c53f08b-db8d-4bb0-92ad-ba512fb03b86" d="M196.81,132.4c44.23,1.58,52.5,86,50.16,84.09L170.58,222l13.1-58.12" transform="translate(80.06 106.96)"/><path class="5c53f08b-db8d-4bb0-92ad-ba512fb03b86" d="M289.19,136.72l-6-.92S274.5,227.42,271.93,222c-.49-1,11.45-11.55,11.45-11.55Z" transform="translate(80.06 106.96)"/></g><g id="448b11fc-ab2a-4f85-93eb-368af6d3c1e5" data-name="desk"><path class="c9f39c9b-d4fc-42e1-a168-ec629a4fd836" d="M51.69,140.95l-126.35,51.6A246.29,246.29,0,0,0-46.6,265.38L-26,254.11l161-88.17Z" transform="translate(80.06 106.96)"/><path class="c9f39c9b-d4fc-42e1-a168-ec629a4fd836" d="M-26,249.7l-15,10.61,2.48,18.09a248.9,248.9,0,0,0,19.84,25.87Z" transform="translate(80.06 106.96)"/><polygon class="28b26aa1-9937-4c1a-ae18-08a80345fc5c" points="196.15 278.99 203.09 366.52 191.03 366.09 186.1 284.55 196.15 278.99"/><polygon class="28b26aa1-9937-4c1a-ae18-08a80345fc5c" points="30.5 367.1 77.34 340.92 83.47 344.96 33.46 372.34 30.5 367.1"/><polyline class="28b26aa1-9937-4c1a-ae18-08a80345fc5c" points="154.37 301.68 197.56 278.22 202.83 279.6 157.77 304.27 154.37 301.68"/><polygon class="e621bc6c-00fe-4d11-80c8-1afd035583ed" points="186.35 288.62 197.64 297.81 196.51 283.55 186.35 288.62"/></g><g id="ac216755-f665-4ead-ab89-f49866a948ca" data-name="computer"><polygon class="cba9f140-7fdc-491b-864b-046e14a86e15" points="11.15 196.17 106.96 185.42 113 253.29 27.08 288.38 11.15 196.17"/><polygon class="4b51c22c-4401-4004-8e3c-2711cae28572" points="59.94 332.92 27.08 288.38 113 253.29 161.26 278.2 59.94 332.92"/><polygon class="e66fe7cd-c608-48d2-aea9-e4fa88b84420" points="11.15 196.17 106.96 185.42 113 253.29 27.08 288.38 11.15 196.17"/><polygon class="8045fdd9-eddc-4917-ab58-2bf6a43a52b3" points="13.54 198.07 104.87 187.83 110.62 252.52 28.71 285.98 13.54 198.07"/><polygon class="7399f81b-f86d-468d-944f-db6bd85f05d9" points="54.59 315 35.62 289.28 111.38 256.95 135.96 273.12 54.59 315"/><polygon class="cba9f140-7fdc-491b-864b-046e14a86e15" points="96.74 309.89 89.07 301.06 111.91 289.23 122.63 295.82 96.74 309.89"/></g><g id="ace4d5f7-f744-4082-90ee-66a2bc5466b4" data-name="body"><path class="6bbc9c6e-51b2-459b-aead-9af46699d458" d="M182,141.33s4.43-2-6.12-19.81c0,0-47.84,41.41-63.84-18.59s68-125,98-40l-2.21-5.76S213.54,88.5,190.35,112l7.07,19.16S241,158.93,247,237.93l-85.19,2.73,16.68-71.3" transform="translate(80.06 106.96)"/><path class="6bbc9c6e-51b2-459b-aead-9af46699d458" d="M129.14,174,80.76,162.62s-3.67-10-24.67-5.33c0,0-10.33,13.67,8.33,14,0,0-10.33,15.33,18-.67l49,12.07Z" transform="translate(80.06 106.96)"/><path d="M191.08,114.07S219.8,91.9,204.5,42.9c-12.63-40.45-61.84-22.07-79.59-10.83-4,2.52-14.5,15.81-16.67,20-5.14,9.93-8.65,28.56,1.93,27.2,0,0,30.43,2.8,69.08-14.54" transform="translate(80.06 106.96)"/><path class="6bbc9c6e-51b2-459b-aead-9af46699d458" d="M174.18,83.47s6.77-11.25,13.65-7.71c5.06,2.6,3.42,11.25,2.2,15.63a8,8,0,0,1-3,4.2L182,99.43" transform="translate(80.06 106.96)"/><path class="1e89fece-23b4-41a2-9f74-1cedce8cd0fa" d="M197.43,131.16c38.76,17.16,48,90.12,48,90.12l-80.76,5.46,13.85-57.37c-16.13,11.37-56,21.3-56,21.3l.33-24L182,141.33S185.52,155.65,197.43,131.16Z" transform="translate(80.06 106.96)"/><path class="b9446ee8-a5f4-4c48-bbb5-3b6950fa0d34" d="M197.43,131.16c38.76,17.16,48,90.12,48,90.12l-13.27.74S222.35,143.32,197.43,131.16Z" transform="translate(80.06 106.96)"/></g><g id="c5c32fa3-a03c-49dc-80f9-ecc29aef852f" data-name="water"><path class="8045fdd9-eddc-4917-ab58-2bf6a43a52b3" d="M4.63,92.77s27.18,17.1,33.83,57.16c0,0,23.6,40.73,45.65,51.17,0,0,24.57,18.27,41,38.5,0,0,12,18.93,9.46,24.8S12.36,317.3,12.36,317.3s3.33-75.84-22.07-89.41c0,0-32.63-47-33.11-69.21" transform="translate(80.06 106.96)"/><path class="8045fdd9-eddc-4917-ab58-2bf6a43a52b3" d="M167.85,388.85c136.92,0,247.91-111,247.91-247.91,0-1.91,0-3.81-.07-5.71-42.79-1.19-82,45.78-82,45.78-40.39,43.2-82.9,27.28-82.9,27.28C201.17,181.08,119,260.11,119,260.11,97.72,279.92,61.59,271,61.59,271,29.65,268-8,301.53-15.16,308.16A247.25,247.25,0,0,0,167.85,388.85Z" transform="translate(80.06 106.96)"/><path class="b828471b-2a28-4795-8d4c-2bc288b25dfc" d="M9,132.24s7.32-6.25,13.84-2.78S14.92,128.85,9,132.24Z" transform="translate(80.06 106.96)"/><path class="b828471b-2a28-4795-8d4c-2bc288b25dfc" d="M9,140.44s6.38-.58,8.59,3.81S13.53,140.87,9,140.44Z" transform="translate(80.06 106.96)"/><path class="b828471b-2a28-4795-8d4c-2bc288b25dfc" d="M-12.89,156s-2.2,4.71,1.14,6.07S-13.7,159.33-12.89,156Z" transform="translate(80.06 106.96)"/></g><g id="c16dcea9-a187-47e3-bb99-b024b5bd8c75" data-name="è‰"><path class="a34ddc33-7e1c-4cab-943a-41eef1aa5a70" d="M379.31,270.39a11.41,11.41,0,0,1-1.41-8c3.48-11.29-4.81-11.75-4.81-11.75-9.09-3-16.58,17-16.58,17-7.75,1.52-16.58-26.08-16.58-26.08s-7.49-35.2-27.54-21.27-6.42,30.13-5.08,37,27,24.06,31.28,29.12,2.41,13.42-1.19,10.13-18.33-11.9-32.77-12.91-10.43,11.4-10.43,11.4a414.65,414.65,0,0,1,38.43,31.2A249.1,249.1,0,0,0,379.31,270.39Z" transform="translate(80.06 106.96)"/></g><g id="04570526-458b-4812-b12b-0986b6c9849c" data-name="fish"><path class="e2ae2f84-c0a6-4440-b659-e51a27c76565" d="M273.31,250.62s.95-4.34,2.6-4.62-14.24-7.33-19.4,2.47Z" transform="translate(80.06 106.96)"/><path class="e2ae2f84-c0a6-4440-b659-e51a27c76565" d="M267.53,274.92s.2,3.21,1.11,3.42-8.58,5.33-10.73-1.93Z" transform="translate(80.06 106.96)"/><path class="62d491ec-e762-4e5e-8e59-b90de45c2990" d="M235.34,270.23c1.84,3.56,8,11.31,26.29,8.29a50.29,50.29,0,0,0,26.91-21.16s-19.5-11.76-34.24-8.47c-12.45,2.78-17.89,14.9-19.29,18.6a2.29,2.29,0,0,0-.11.39s0,.12,0,.32a0,0,0,0,0,0,0A2.68,2.68,0,0,0,235.34,270.23Z" transform="translate(80.06 106.96)"/><path class="62d491ec-e762-4e5e-8e59-b90de45c2990" d="M234.87,268.2h0a0,0,0,0,1,0,0A0,0,0,0,0,234.87,268.2Z" transform="translate(80.06 106.96)"/><polygon class="e2ae2f84-c0a6-4440-b659-e51a27c76565" points="366.44 363.07 367.02 366.6 373.76 371.43 371.04 354.99 366.44 363.07"/><path class="121c5892-6ee6-4540-a519-3804cd6fe66a" d="M244.54,264.47l4.51-.75,1.3-.22a.92.92,0,0,0,.76-1.06l-.51-3.1a.92.92,0,0,0-1.06-.76l-1.23.2-4.59.76a.92.92,0,0,0-.76,1.06l.51,3.1A.92.92,0,0,0,244.54,264.47Z" transform="translate(80.06 106.96)"/><polyline class="7b54991f-ef50-4a9c-9ee6-ce7a502736e8" points="327.06 365.97 328.31 367.4 328.62 369.25 327.62 370.93"/><polyline class="7b54991f-ef50-4a9c-9ee6-ce7a502736e8" points="326.31 366.09 325.59 367.86 325.9 369.7 327.39 370.96"/><line class="7b54991f-ef50-4a9c-9ee6-ce7a502736e8" x1="325.59" y1="367.85" x2="323.14" y2="368.26"/><line class="7b54991f-ef50-4a9c-9ee6-ce7a502736e8" x1="325.9" y1="369.7" x2="323.45" y2="370.11"/><line class="7b54991f-ef50-4a9c-9ee6-ce7a502736e8" x1="330.77" y1="367" x2="328.31" y2="367.4"/><line class="7b54991f-ef50-4a9c-9ee6-ce7a502736e8" x1="331.07" y1="368.85" x2="328.62" y2="369.25"/><rect class="e1cf817e-f09d-409b-9538-defd6bd2859f" x="248.03" y="266.83" width="7.16" height="2.11" transform="translate(623.7 597.97) rotate(170.59)"/><rect class="e1cf817e-f09d-409b-9538-defd6bd2859f" x="256.27" y="265.47" width="7.16" height="2.11" transform="matrix(-0.99, 0.16, -0.16, -0.99, 639.84, 593.91)"/><rect class="e1cf817e-f09d-409b-9538-defd6bd2859f" x="264.5" y="264.1" width="7.16" height="2.11" transform="translate(655.98 589.85) rotate(170.59)"/><rect class="e1cf817e-f09d-409b-9538-defd6bd2859f" x="272.74" y="262.74" width="7.16" height="2.11" transform="translate(672.12 585.79) rotate(170.59)"/><path class="5f89c95a-980f-438e-b656-ac7fae5d13bb" d="M253.62,258.54a2,2,0,0,1,1,1.52,2.08,2.08,0,0,1-.57,1.89" transform="translate(80.06 106.96)"/><path class="5f89c95a-980f-438e-b656-ac7fae5d13bb" d="M254.26,257.72a3,3,0,0,1,1.47,2.28,3.12,3.12,0,0,1-.86,2.83" transform="translate(80.06 106.96)"/><path class="5f89c95a-980f-438e-b656-ac7fae5d13bb" d="M255,256.91a4,4,0,0,1,1.79,2.9c.23,1.36-.22,3.05-1,3.57" transform="translate(80.06 106.96)"/><path class="e1cf817e-f09d-409b-9538-defd6bd2859f" d="M254.56,275.56l-.22,0-.39.06a0,0,0,0,1-.06,0l-.11-.3s0,0-.07,0l-.79.12a.07.07,0,0,0-.07.07q0,.16-.07.33s0,0,0,0l-.68.11h0l0-.18.61-2.45a.35.35,0,0,1,.18-.26l.12,0,.53-.08s.06,0,.08,0l.8,2.14.15.4,0,0Zm-1-.83-.36-1h0l-.21,1.06Z" transform="translate(80.06 106.96)"/><path class="e1cf817e-f09d-409b-9538-defd6bd2859f" d="M245.45,274.22s0-.05.07-.06l1.12-.17a.32.32,0,0,1,.38.22l.51,1.45,0,.08,0-.05.42-1.85a.06.06,0,0,1,.06-.06l.63-.09h.05v.06l-.66,2.65c0,.06,0,.14-.06.17s-.11,0-.17,0l-.5.08a.06.06,0,0,1-.08,0l-.86-2a.38.38,0,0,0-.26-.24,3.24,3.24,0,0,0-.67-.1Z" transform="translate(80.06 106.96)"/><path class="e1cf817e-f09d-409b-9538-defd6bd2859f" d="M250.05,276.15l0-.61.08,0a1.35,1.35,0,0,0,.73,0,.66.66,0,0,0,.22-.1.21.21,0,0,0,0-.37,2.46,2.46,0,0,0-.28-.12,3.87,3.87,0,0,1-.41-.18.71.71,0,0,1-.2-1,1.18,1.18,0,0,1,.62-.44,1.84,1.84,0,0,1,.92-.06h0l0,.58-.4,0a.79.79,0,0,0-.4.08.43.43,0,0,0-.13.11.16.16,0,0,0,0,.24,1.5,1.5,0,0,0,.25.12l.38.15a.77.77,0,0,1,.27,1.22,1.17,1.17,0,0,1-.55.36,2.2,2.2,0,0,1-1.09.08Z" transform="translate(80.06 106.96)"/><path class="e1cf817e-f09d-409b-9538-defd6bd2859f" d="M248.88,276.43l0-.64q.06-1,.12-2.09c0-.05,0-.07.07-.08l.56-.08h.07l0,.32q-.07,1.21-.14,2.41c0,.05,0,.08-.07.09l-.57.08Z" transform="translate(80.06 106.96)"/><path class="e1cf817e-f09d-409b-9538-defd6bd2859f" d="M244.4,269c.62-.84,1.27-1.85,1.13-2.21,0,0-2.26,2.32-9,4,0,0,1.5,1.34,5.18.14A5.47,5.47,0,0,0,244.4,269Z" transform="translate(80.06 106.96)"/><polyline class="bb039f49-db28-4ea4-b677-72ed8d073f13" points="323.03 376.58 322.6 376.31 321.8 377.62 321.02 377.14 320.12 377.54 319.68 377.27"/><path class="3be2c232-cbf5-4250-9114-eea6ef5e968a" d="M246.2,268a1.89,1.89,0,0,0-.47-2.4" transform="translate(80.06 106.96)"/><path class="e2ae2f84-c0a6-4440-b659-e51a27c76565" d="M128.82,316.27s-1.29-5.93-3.55-6.3,19.43-10,26.49,3.38Z" transform="translate(80.06 106.96)"/><path class="e2ae2f84-c0a6-4440-b659-e51a27c76565" d="M136.71,349.45s-.27,4.38-1.51,4.67,11.72,7.28,14.65-2.64Z" transform="translate(80.06 106.96)"/><path class="62d491ec-e762-4e5e-8e59-b90de45c2990" d="M180.65,343c-2.52,4.86-11,15.45-35.89,11.31A68.66,68.66,0,0,1,108,325.46s26.62-16.06,46.74-11.57c17,3.79,24.43,20.34,26.33,25.39a3.13,3.13,0,0,1,.15.53s0,.17.07.44a0,0,0,0,1,0,0A3.66,3.66,0,0,1,180.65,343Z" transform="translate(80.06 106.96)"/><path class="62d491ec-e762-4e5e-8e59-b90de45c2990" d="M181.31,340.28h0a0,0,0,0,0,0,0A.06.06,0,0,1,181.31,340.28Z" transform="translate(80.06 106.96)"/><polygon class="e2ae2f84-c0a6-4440-b659-e51a27c76565" points="191.03 430.73 190.24 435.55 181.03 442.15 184.75 419.7 191.03 430.73"/><path class="121c5892-6ee6-4540-a519-3804cd6fe66a" d="M168.1,335.18l-6.16-1-1.78-.29a1.26,1.26,0,0,1-1-1.44l.7-4.24a1.26,1.26,0,0,1,1.44-1l1.68.28,6.26,1a1.26,1.26,0,0,1,1,1.44l-.7,4.24A1.26,1.26,0,0,1,168.1,335.18Z" transform="translate(80.06 106.96)"/><polyline class="7b54991f-ef50-4a9c-9ee6-ce7a502736e8" points="244.78 434.69 243.08 436.65 242.66 439.18 244.03 441.46"/><polyline class="7b54991f-ef50-4a9c-9ee6-ce7a502736e8" points="245.81 434.86 246.79 437.27 246.38 439.79 244.34 441.51"/><line class="7b54991f-ef50-4a9c-9ee6-ce7a502736e8" x1="246.79" y1="437.27" x2="250.14" y2="437.82"/><line class="7b54991f-ef50-4a9c-9ee6-ce7a502736e8" x1="246.37" y1="439.79" x2="249.72" y2="440.35"/><line class="7b54991f-ef50-4a9c-9ee6-ce7a502736e8" x1="239.73" y1="436.1" x2="243.08" y2="436.65"/><line class="7b54991f-ef50-4a9c-9ee6-ce7a502736e8" x1="239.31" y1="438.62" x2="242.66" y2="439.18"/><rect class="e1cf817e-f09d-409b-9538-defd6bd2859f" x="153.57" y="338.41" width="9.77" height="2.87" transform="translate(137.78 85.62) rotate(9.41)"/><rect class="e1cf817e-f09d-409b-9538-defd6bd2859f" x="142.32" y="336.55" width="9.77" height="2.87" transform="translate(137.33 87.43) rotate(9.41)"/><rect class="e1cf817e-f09d-409b-9538-defd6bd2859f" x="131.08" y="334.69" width="9.77" height="2.87" transform="translate(136.87 89.25) rotate(9.41)"/><rect class="e1cf817e-f09d-409b-9538-defd6bd2859f" x="119.83" y="332.82" width="9.77" height="2.87" transform="translate(136.41 91.06) rotate(9.41)"/><path class="5f89c95a-980f-438e-b656-ac7fae5d13bb" d="M155.7,327.09a2.76,2.76,0,0,0-1.34,2.07,2.83,2.83,0,0,0,.78,2.58" transform="translate(80.06 106.96)"/><path class="5f89c95a-980f-438e-b656-ac7fae5d13bb" d="M154.83,326a4.15,4.15,0,0,0-2,3.11c-.24,1.47.28,3.3,1.17,3.87" transform="translate(80.06 106.96)"/><path class="5f89c95a-980f-438e-b656-ac7fae5d13bb" d="M153.8,324.86c-1.11.44-2.15,2.2-2.44,4s.29,4.17,1.35,4.87" transform="translate(80.06 106.96)"/><path class="e1cf817e-f09d-409b-9538-defd6bd2859f" d="M154.43,350.31l0,0,.21-.55,1.09-2.92c0-.06,0-.07.1-.06l.72.11.16,0a.48.48,0,0,1,.25.35l.83,3.34.06.24h0l-.93-.14s0,0-.05-.06-.06-.3-.09-.45a.09.09,0,0,0-.09-.09l-1.08-.16c-.05,0-.08,0-.1.06l-.15.42a.06.06,0,0,1-.08,0l-.53-.08-.3-.05Zm2.16-1-.29-1.44h0l-.49,1.32Z" transform="translate(80.06 106.96)"/><path class="e1cf817e-f09d-409b-9538-defd6bd2859f" d="M166.86,348.5c0-.06,0-.07-.1-.08l-1.53-.23a.44.44,0,0,0-.51.3l-.69,2,0,.1,0-.07-.58-2.52a.09.09,0,0,0-.09-.08l-.86-.13h-.07l0,.08.9,3.62c0,.08,0,.19.08.24s.16,0,.24,0l.68.11a.09.09,0,0,0,.11-.06l1.18-2.77a.51.51,0,0,1,.36-.33,4.42,4.42,0,0,1,.92-.14Z" transform="translate(80.06 106.96)"/><path class="e1cf817e-f09d-409b-9538-defd6bd2859f" d="M160.58,351.13l0-.84-.11,0a1.85,1.85,0,0,1-1,0,.9.9,0,0,1-.3-.14.28.28,0,0,1,0-.5,3.36,3.36,0,0,1,.38-.16,5.28,5.28,0,0,0,.56-.24,1,1,0,0,0,.28-1.43,1.61,1.61,0,0,0-.85-.59,2.51,2.51,0,0,0-1.26-.08h-.06l0,.79c.19,0,.37,0,.55-.05a1.07,1.07,0,0,1,.55.1.59.59,0,0,1,.18.14.21.21,0,0,1,0,.33,2,2,0,0,1-.34.16c-.17.07-.35.12-.52.2a1,1,0,0,0-.37,1.66,1.6,1.6,0,0,0,.75.49,3,3,0,0,0,1.49.11Z" transform="translate(80.06 106.96)"/><path class="e1cf817e-f09d-409b-9538-defd6bd2859f" d="M162.17,351.52l-.05-.88q-.08-1.43-.17-2.86c0-.07,0-.1-.1-.11l-.76-.11-.1,0,0,.44q.1,1.65.19,3.29c0,.08,0,.11.1.12l.77.12Z" transform="translate(80.06 106.96)"/><path class="e1cf817e-f09d-409b-9538-defd6bd2859f" d="M168.29,341.4c-.85-1.15-1.74-2.52-1.55-3,0,0,3.09,3.17,12.29,5.51,0,0-2,1.83-7.07.19A7.47,7.47,0,0,1,168.29,341.4Z" transform="translate(80.06 106.96)"/><polyline class="bb039f49-db28-4ea4-b677-72ed8d073f13" points="250.29 449.18 250.88 448.81 251.98 450.59 253.03 449.94 254.27 450.48 254.87 450.12"/><path class="3be2c232-cbf5-4250-9114-eea6ef5e968a" d="M165.84,340s-1.08-2,.64-3.27" transform="translate(80.06 106.96)"/><path class="e2ae2f84-c0a6-4440-b659-e51a27c76565" d="M-20.11,123.19s.43-3.08-.58-3.66,11.11-1.35,12.11,6.34Z" transform="translate(80.06 106.96)"/><path class="e2ae2f84-c0a6-4440-b659-e51a27c76565" d="M-22.22,140.52s-.91,2.05-1.56,2,4.33,5.58,7.5,1.34Z" transform="translate(80.06 106.96)"/><path class="62d491ec-e762-4e5e-8e59-b90de45c2990" d="M0,145.26c-2.07,1.89-8,5.47-19.24-1a35.15,35.15,0,0,1-12.5-20.41s15.64-3,24.5,2.76C.25,131.5.87,140.77.89,143.53a1.6,1.6,0,0,1,0,.28s0,.09,0,.22h0A1.87,1.87,0,0,1,0,145.26Z" transform="translate(80.06 106.96)"/><path class="62d491ec-e762-4e5e-8e59-b90de45c2990" d="M.82,144.05h0A0,0,0,0,1,.82,144.05Z" transform="translate(80.06 106.96)"/><polygon class="e2ae2f84-c0a6-4440-b659-e51a27c76565" points="50.05 230.57 48.8 232.74 43.21 234.27 48.99 224.16 50.05 230.57"/><path class="121c5892-6ee6-4540-a519-3804cd6fe66a" d="M-4.62,139.25l-2.77-1.59-.8-.46a.64.64,0,0,1-.24-.88l1.09-1.91a.64.64,0,0,1,.88-.24l.75.43,2.82,1.61a.64.64,0,0,1,.24.88L-3.74,139A.64.64,0,0,1-4.62,139.25Z" transform="translate(80.06 106.96)"/><polyline class="7b54991f-ef50-4a9c-9ee6-ce7a502736e8" points="75.15 242.04 73.98 242.68 73.33 243.81 73.58 245.15"/><polyline class="7b54991f-ef50-4a9c-9ee6-ce7a502736e8" points="75.61 242.3 75.65 243.63 75 244.77 73.72 245.23"/><line class="7b54991f-ef50-4a9c-9ee6-ce7a502736e8" x1="75.65" y1="243.63" x2="77.16" y2="244.49"/><line class="7b54991f-ef50-4a9c-9ee6-ce7a502736e8" x1="75" y1="244.77" x2="76.51" y2="245.63"/><line class="7b54991f-ef50-4a9c-9ee6-ce7a502736e8" x1="72.47" y1="241.81" x2="73.98" y2="242.67"/><line class="7b54991f-ef50-4a9c-9ee6-ce7a502736e8" x1="71.82" y1="242.95" x2="73.33" y2="243.81"/><rect class="e1cf817e-f09d-409b-9538-defd6bd2859f" x="-12.58" y="139.04" width="5" height="1.47" transform="translate(148.09 130.39) rotate(29.75)"/><rect class="e1cf817e-f09d-409b-9538-defd6bd2859f" x="-17.65" y="136.15" width="5" height="1.47" transform="translate(145.99 132.52) rotate(29.75)"/><rect class="e1cf817e-f09d-409b-9538-defd6bd2859f" x="-22.71" y="133.25" width="5" height="1.47" transform="translate(143.88 134.66) rotate(29.75)"/><rect class="e1cf817e-f09d-409b-9538-defd6bd2859f" x="-27.78" y="130.35" width="5" height="1.47" transform="translate(141.78 136.79) rotate(29.75)"/><path class="5f89c95a-980f-438e-b656-ac7fae5d13bb" d="M-9.13,133.16a1.41,1.41,0,0,0-1,.76,1.45,1.45,0,0,0-.08,1.38" transform="translate(80.06 106.96)"/><path class="5f89c95a-980f-438e-b656-ac7fae5d13bb" d="M-9.35,132.47a2.12,2.12,0,0,0-1.52,1.13,2.18,2.18,0,0,0-.13,2.06" transform="translate(80.06 106.96)"/><path class="5f89c95a-980f-438e-b656-ac7fae5d13bb" d="M-9.64,131.75a2.76,2.76,0,0,0-1.88,1.46,2.81,2.81,0,0,0-.22,2.58" transform="translate(80.06 106.96)"/><path class="e1cf817e-f09d-409b-9538-defd6bd2859f" d="M-13.87,144.08h0l.2-.23,1-1.21a0,0,0,0,1,.06,0l.33.18.07,0a.24.24,0,0,1,.06.21l-.19,1.75V145h0l-.42-.24a0,0,0,0,1,0,0q0-.12,0-.23a0,0,0,0,0,0-.06l-.49-.27a0,0,0,0,0-.06,0l-.15.17a0,0,0,0,1,0,0l-.24-.13-.14-.08Zm1.21-.09.12-.74h0l-.47.55Z" transform="translate(80.06 106.96)"/><path class="e1cf817e-f09d-409b-9538-defd6bd2859f" d="M-7.58,145.43s0,0,0-.06l-.69-.38a.22.22,0,0,0-.3.05l-.68.82,0,0s0,0,0,0l.17-1.31a0,0,0,0,0,0-.05l-.39-.22,0,0v0l-.21,1.9s0,.09,0,.13.07,0,.11.07l.31.17a0,0,0,0,0,.06,0l1.06-1.12a.26.26,0,0,1,.23-.09,2.26,2.26,0,0,1,.47.09Z" transform="translate(80.06 106.96)"/><path class="e1cf817e-f09d-409b-9538-defd6bd2859f" d="M-11.07,145.57l.13-.41H-11a1,1,0,0,1-.48-.16.46.46,0,0,1-.12-.12.15.15,0,0,1,.1-.24h.21a2.7,2.7,0,0,0,.31,0,.5.5,0,0,0,.39-.64.82.82,0,0,0-.3-.44,1.29,1.29,0,0,0-.59-.26h0l-.12.39.27.07a.55.55,0,0,1,.24.15.3.3,0,0,1,.06.1.11.11,0,0,1-.08.15l-.19,0h-.28a.54.54,0,0,0-.47.73.82.82,0,0,0,.27.37,1.53,1.53,0,0,0,.7.32Z" transform="translate(80.06 106.96)"/><path class="e1cf817e-f09d-409b-9538-defd6bd2859f" d="M-10.37,146l.13-.43.43-1.4a0,0,0,0,0,0-.07l-.35-.19,0,0-.07.22-.49,1.61s0,.05,0,.07l.35.19Z" transform="translate(80.06 106.96)"/><path class="e1cf817e-f09d-409b-9538-defd6bd2859f" d="M-5.63,142.27c-.2-.7-.38-1.52-.21-1.72,0,0,.92,2.07,4.92,4.83,0,0-1.31.51-3.43-1.17A3.82,3.82,0,0,1-5.63,142.27Z" transform="translate(80.06 106.96)"/><polyline class="bb039f49-db28-4ea4-b677-72ed8d073f13" points="75.21 249.97 75.56 249.9 75.77 250.95 76.39 250.83 76.89 251.31 77.24 251.24"/><path class="3be2c232-cbf5-4250-9114-eea6ef5e968a" d="M-6.55,141.14a1.32,1.32,0,0,1,.89-1.46" transform="translate(80.06 106.96)"/><path class="e2ae2f84-c0a6-4440-b659-e51a27c76565" d="M44.56,216.53s1.07-4.3-.29-5.27,16-.28,16.25,10.76Z" transform="translate(80.06 106.96)"/><path class="e2ae2f84-c0a6-4440-b659-e51a27c76565" d="M39,240.8s-1.59,2.78-2.49,2.57,5.32,8.54,10.44,3Z" transform="translate(80.06 106.96)"/><path class="62d491ec-e762-4e5e-8e59-b90de45c2990" d="M69.85,250.78c-3.21,2.37-12.16,6.58-27.14-4.18A50.1,50.1,0,0,1,28,215.84s22.61-1.92,34.33,7.51c9.9,8,9.43,21.19,9,25.11a2.29,2.29,0,0,1-.07.4s0,.12-.1.31v0A2.67,2.67,0,0,1,69.85,250.78Z" transform="translate(80.06 106.96)"/><path class="62d491ec-e762-4e5e-8e59-b90de45c2990" d="M71.17,249.18h0v0S71.17,249.17,71.17,249.18Z" transform="translate(80.06 106.96)"/><polygon class="e2ae2f84-c0a6-4440-b659-e51a27c76565" points="110.52 322.64 108.44 325.54 100.29 326.89 109.97 313.4 110.52 322.64"/><path class="121c5892-6ee6-4540-a519-3804cd6fe66a" d="M64.17,241.58l-3.7-2.66-1.07-.77a.92.92,0,0,1-.21-1.28L61,234.34a.92.92,0,0,1,1.28-.21l1,.72,3.76,2.7a.92.92,0,0,1,.21,1.28l-1.83,2.55A.92.92,0,0,1,64.17,241.58Z" transform="translate(80.06 106.96)"/><polyline class="7b54991f-ef50-4a9c-9ee6-ce7a502736e8" points="144.42 342.58 142.68 343.31 141.59 344.83 141.75 346.76"/><polyline class="7b54991f-ef50-4a9c-9ee6-ce7a502736e8" points="145.04 343.02 144.91 344.91 143.82 346.43 141.93 346.9"/><line class="7b54991f-ef50-4a9c-9ee6-ce7a502736e8" x1="144.91" y1="344.91" x2="146.92" y2="346.35"/><line class="7b54991f-ef50-4a9c-9ee6-ce7a502736e8" x1="143.82" y1="346.43" x2="145.83" y2="347.87"/><line class="7b54991f-ef50-4a9c-9ee6-ce7a502736e8" x1="140.66" y1="341.87" x2="142.68" y2="343.31"/><line class="7b54991f-ef50-4a9c-9ee6-ce7a502736e8" x1="139.57" y1="343.38" x2="141.59" y2="344.83"/><rect class="e1cf817e-f09d-409b-9538-defd6bd2859f" x="52.78" y="240.48" width="7.13" height="2.1" transform="translate(231.39 119.39) rotate(35.65)"/><rect class="e1cf817e-f09d-409b-9538-defd6bd2859f" x="46.02" y="235.63" width="7.13" height="2.1" transform="translate(227.3 122.42) rotate(35.65)"/><rect class="e1cf817e-f09d-409b-9538-defd6bd2859f" x="39.26" y="230.78" width="7.13" height="2.1" transform="translate(223.21 125.45) rotate(35.65)"/><rect class="e1cf817e-f09d-409b-9538-defd6bd2859f" x="32.51" y="225.93" width="7.13" height="2.1" transform="translate(219.11 128.48) rotate(35.65)"/><path class="5f89c95a-980f-438e-b656-ac7fae5d13bb" d="M58.66,232.29a2,2,0,0,0-1.55.92,2.07,2.07,0,0,0-.32,1.94" transform="translate(80.06 106.96)"/><path class="5f89c95a-980f-438e-b656-ac7fae5d13bb" d="M58.46,231.27a3,3,0,0,0-2.32,1.39,3.1,3.1,0,0,0-.48,2.91" transform="translate(80.06 106.96)"/><path class="5f89c95a-980f-438e-b656-ac7fae5d13bb" d="M58.14,230.21a3.93,3.93,0,0,0-2.88,1.8c-.8,1.12-1.15,2.82-.69,3.63" transform="translate(80.06 106.96)"/><path class="e1cf817e-f09d-409b-9538-defd6bd2859f" d="M50.34,247.07h0l.31-.29,1.66-1.56a.06.06,0,0,1,.09,0l.43.31.09.08a.35.35,0,0,1,0,.31l-.53,2.45,0,.18h0l-.57-.4a.07.07,0,0,1,0-.06q0-.16.09-.32a.07.07,0,0,0,0-.09l-.66-.46a.05.05,0,0,0-.08,0l-.23.22a0,0,0,0,1-.07,0l-.32-.22-.18-.13Zm1.73,0,.28-1h0l-.75.71Z" transform="translate(80.06 106.96)"/><path class="e1cf817e-f09d-409b-9538-defd6bd2859f" d="M59.06,249.9s0-.06,0-.09l-.93-.65a.32.32,0,0,0-.43,0l-1.09,1.07-.06.06s0,0,0-.06l.44-1.84a.06.06,0,0,0,0-.08L56.4,248l0,0,0,.06-.57,2.66c0,.06,0,.13,0,.18s.09.07.14.11l.41.29a.06.06,0,0,0,.09,0l1.66-1.43a.37.37,0,0,1,.34-.1,3.23,3.23,0,0,1,.65.2Z" transform="translate(80.06 106.96)"/><path class="e1cf817e-f09d-409b-9538-defd6bd2859f" d="M54.1,249.59l.24-.56-.08,0a1.35,1.35,0,0,1-.66-.3.66.66,0,0,1-.15-.19.21.21,0,0,1,.18-.32,2.45,2.45,0,0,1,.3,0,3.85,3.85,0,0,0,.45,0,.71.71,0,0,0,.65-.85,1.18,1.18,0,0,0-.37-.66,1.83,1.83,0,0,0-.8-.46h0l-.22.53.38.14a.78.78,0,0,1,.32.25.43.43,0,0,1,.07.15.16.16,0,0,1-.14.2,1.49,1.49,0,0,1-.27,0l-.4,0a.76.76,0,0,0-.78,1,1.17,1.17,0,0,0,.33.56,2.19,2.19,0,0,0,.94.55Z" transform="translate(80.06 106.96)"/><path class="e1cf817e-f09d-409b-9538-defd6bd2859f" d="M55,250.36l.25-.59.81-1.93a.07.07,0,0,0,0-.1l-.46-.32-.06,0-.13.3-.94,2.22c0,.05,0,.08,0,.11l.47.32Z" transform="translate(80.06 106.96)"/><path class="e1cf817e-f09d-409b-9538-defd6bd2859f" d="M62.29,245.71c-.18-1-.32-2.21,0-2.47,0,0,1,3.07,6.27,7.57,0,0-1.93.54-4.69-2.16A5.45,5.45,0,0,1,62.29,245.71Z" transform="translate(80.06 106.96)"/><polyline class="bb039f49-db28-4ea4-b677-72ed8d073f13" points="143.35 353.83 143.86 353.79 144 355.31 144.9 355.22 145.54 355.97 146.05 355.93"/><path class="3be2c232-cbf5-4250-9114-eea6ef5e968a" d="M61.15,244A1.88,1.88,0,0,1,62.62,242" transform="translate(80.06 106.96)"/><polygon class="36d04e58-0ed9-46a2-8301-87b70f083970" points="326.54 450.01 327.76 452.52 325.66 458.63 319.97 446.95 326.54 450.01"/><path class="36d04e58-0ed9-46a2-8301-87b70f083970" d="M252.3,333.66s-2.56-2.33-3.74-1.76,5.73-11.08,13.44-7.19Z" transform="translate(80.06 106.96)"/><path class="36d04e58-0ed9-46a2-8301-87b70f083970" d="M266.95,346.48s1.32,2.13.84,2.67,7.86-.49,5.94-6.07Z" transform="translate(80.06 106.96)"/><path class="eb63e135-f2c5-4d43-a444-038e4e9d4b4e" d="M283.91,328.73l.74-1.26a2.29,2.29,0,0,0-.43-.39c-2.56-1.72-11.49-7-20.64-3.1-10.85,4.56-17.92,20.84-17.92,20.84a39.19,39.19,0,0,0,26.65,1.29c13.06-6.37,13.4-14.15,12.95-17.19Z" transform="translate(80.06 106.96)"/><path class="121c5892-6ee6-4540-a519-3804cd6fe66a" d="M277.91,329.2,274.27,331l-1.05.51a.82.82,0,0,1-1.09-.37l-1.22-2.5a.82.82,0,0,1,.37-1.09l1-.48,3.7-1.8a.82.82,0,0,1,1.09.37l1.22,2.5A.82.82,0,0,1,277.91,329.2Z" transform="translate(80.06 106.96)"/><polyline class="7b54991f-ef50-4a9c-9ee6-ce7a502736e8" points="353.38 433.49 353.22 435.17 353.95 436.66 355.53 437.35"/><polyline class="7b54991f-ef50-4a9c-9ee6-ce7a502736e8" points="353.99 433.19 355.41 434.1 356.14 435.59 355.71 437.26"/><line class="7b54991f-ef50-4a9c-9ee6-ce7a502736e8" x1="355.41" y1="434.1" x2="357.39" y2="433.13"/><line class="7b54991f-ef50-4a9c-9ee6-ce7a502736e8" x1="356.14" y1="435.59" x2="358.12" y2="434.62"/><line class="7b54991f-ef50-4a9c-9ee6-ce7a502736e8" x1="351.24" y1="436.13" x2="353.22" y2="435.17"/><line class="7b54991f-ef50-4a9c-9ee6-ce7a502736e8" x1="351.97" y1="437.62" x2="353.95" y2="436.66"/><rect class="e1cf817e-f09d-409b-9538-defd6bd2859f" x="271.09" y="334.01" width="5.58" height="1.64" transform="translate(-38.98 260.85) rotate(-25.99)"/><rect class="e1cf817e-f09d-409b-9538-defd6bd2859f" x="265.25" y="336.86" width="5.58" height="1.64" transform="translate(-40.82 258.58) rotate(-25.99)"/><rect class="e1cf817e-f09d-409b-9538-defd6bd2859f" x="259.4" y="339.71" width="5.58" height="1.64" transform="translate(-42.66 256.31) rotate(-25.99)"/><rect class="e1cf817e-f09d-409b-9538-defd6bd2859f" x="253.55" y="342.56" width="5.58" height="1.64" transform="translate(-44.5 254.03) rotate(-25.99)"/><path class="5f89c95a-980f-438e-b656-ac7fae5d13bb" d="M268.27,329.61a1.79,1.79,0,0,0,.07,1.6,1.84,1.84,0,0,0,1.38,1.07" transform="translate(80.06 106.96)"/><path class="5f89c95a-980f-438e-b656-ac7fae5d13bb" d="M267.39,329.34a2.69,2.69,0,0,0,.1,2.4,2.76,2.76,0,0,0,2.07,1.6" transform="translate(80.06 106.96)"/><path class="5f89c95a-980f-438e-b656-ac7fae5d13bb" d="M266.43,329.14a3.49,3.49,0,0,0,.19,3,3.56,3.56,0,0,0,2.55,2.07" transform="translate(80.06 106.96)"/><path class="e1cf817e-f09d-409b-9538-defd6bd2859f" d="M282.48,336.64l-.16.08-.27.13a0,0,0,0,1-.05,0l-.15-.2a0,0,0,0,0-.06,0l-.56.27a.05.05,0,0,0,0,.07q0,.13,0,.26a.05.05,0,0,1,0,0l-.48.24h0v-.14q-.06-1-.11-2a.27.27,0,0,1,.08-.24l.08-.05.37-.18a0,0,0,0,1,.07,0l1.09,1.41.2.26h0Zm-.94-.38-.49-.64h0l.09.83Z" transform="translate(80.06 106.96)"/><path class="e1cf817e-f09d-409b-9538-defd6bd2859f" d="M275.4,337.76s0,0,0-.06l.79-.39a.25.25,0,0,1,.33.08l.71,1,0,0s0,0,0,0q-.06-.74-.11-1.47a.05.05,0,0,1,0-.06l.45-.22,0,0v0l.12,2.12s0,.11,0,.14-.08,0-.12.07l-.35.17a0,0,0,0,1-.07,0l-1.11-1.31a.29.29,0,0,0-.25-.12,2.52,2.52,0,0,0-.52.08Z" transform="translate(80.06 106.96)"/><path class="e1cf817e-f09d-409b-9538-defd6bd2859f" d="M279.27,338.12l-.12-.46h.07a1.05,1.05,0,0,0,.55-.15.51.51,0,0,0,.14-.13.16.16,0,0,0-.1-.27l-.23,0a3,3,0,0,1-.35,0,.55.55,0,0,1-.4-.73.92.92,0,0,1,.36-.47,1.43,1.43,0,0,1,.67-.26h0l.11.44-.31.06a.61.61,0,0,0-.28.15.34.34,0,0,0-.07.11.12.12,0,0,0,.08.17l.21,0,.32,0a.6.6,0,0,1,.48.84.91.91,0,0,1-.32.4,1.71,1.71,0,0,1-.79.31Z" transform="translate(80.06 106.96)"/><path class="e1cf817e-f09d-409b-9538-defd6bd2859f" d="M278.46,338.61l-.12-.49-.39-1.59a.05.05,0,0,1,0-.08l.4-.19.05,0,.06.24.45,1.83s0,.06,0,.08l-.4.19Z" transform="translate(80.06 106.96)"/><polygon class="36d04e58-0ed9-46a2-8301-87b70f083970" points="458.26 296.54 458.6 298.61 462.53 301.44 460.96 291.83 458.26 296.54"/><path class="36d04e58-0ed9-46a2-8301-87b70f083970" d="M370.58,186.36s.56-2.53,1.52-2.69-8.3-4.3-11.33,1.42Z" transform="translate(80.06 106.96)"/><path class="36d04e58-0ed9-46a2-8301-87b70f083970" d="M367.18,200.55s.11,1.87.64,2-5,3.1-6.27-1.14Z" transform="translate(80.06 106.96)"/><path class="eb63e135-f2c5-4d43-a444-038e4e9d4b4e" d="M349.11,197l-1-.45a1.72,1.72,0,0,1,.1-.43c.82-2.16,4-9.23,11.28-10.84,8.61-1.91,20,5,20,5a29.37,29.37,0,0,1-15.74,12.33c-10.74,1.76-14.32-2.85-15.37-4.91Z" transform="translate(80.06 106.96)"/><path class="121c5892-6ee6-4540-a519-3804cd6fe66a" d="M353,194.73l3-.49.86-.14a.61.61,0,0,0,.5-.7l-.34-2.06a.61.61,0,0,0-.7-.5l-.81.13-3,.5a.61.61,0,0,0-.5.7l.34,2.06A.61.61,0,0,0,353,194.73Z" transform="translate(80.06 106.96)"/><polyline class="7b54991f-ef50-4a9c-9ee6-ce7a502736e8" points="434.69 298.07 435.51 299.02 435.71 300.25 435.05 301.36"/><polyline class="7b54991f-ef50-4a9c-9ee6-ce7a502736e8" points="434.19 298.15 433.71 299.32 433.91 300.54 434.89 301.38"/><line class="7b54991f-ef50-4a9c-9ee6-ce7a502736e8" x1="433.71" y1="299.32" x2="432.08" y2="299.58"/><line class="7b54991f-ef50-4a9c-9ee6-ce7a502736e8" x1="433.91" y1="300.54" x2="432.28" y2="300.81"/><line class="7b54991f-ef50-4a9c-9ee6-ce7a502736e8" x1="437.14" y1="298.75" x2="435.51" y2="299.02"/><line class="7b54991f-ef50-4a9c-9ee6-ce7a502736e8" x1="437.34" y1="299.98" x2="435.71" y2="300.25"/><rect class="e1cf817e-f09d-409b-9538-defd6bd2859f" x="355.8" y="195.81" width="4.18" height="1.23" transform="translate(822.89 439.34) rotate(170.69)"/><rect class="e1cf817e-f09d-409b-9538-defd6bd2859f" x="360.61" y="195.02" width="4.18" height="1.23" transform="translate(832.32 437) rotate(170.69)"/><rect class="e1cf817e-f09d-409b-9538-defd6bd2859f" x="365.42" y="194.23" width="4.18" height="1.23" transform="translate(841.75 434.65) rotate(170.69)"/><rect class="e1cf817e-f09d-409b-9538-defd6bd2859f" x="370.23" y="193.44" width="4.18" height="1.23" transform="translate(851.18 432.31) rotate(170.69)"/><path class="5f89c95a-980f-438e-b656-ac7fae5d13bb" d="M359.06,190.8a1.34,1.34,0,0,1,.65,1,1.38,1.38,0,0,1-.38,1.25" transform="translate(80.06 106.96)"/><path class="5f89c95a-980f-438e-b656-ac7fae5d13bb" d="M359.48,190.25a2,2,0,0,1,1,1.51,2.07,2.07,0,0,1-.57,1.88" transform="translate(80.06 106.96)"/><path class="5f89c95a-980f-438e-b656-ac7fae5d13bb" d="M360,189.71a2.62,2.62,0,0,1,1.19,1.92,2.67,2.67,0,0,1-.66,2.37" transform="translate(80.06 106.96)"/><path class="e1cf817e-f09d-409b-9538-defd6bd2859f" d="M353.41,201.25h0V201q0-.67.06-1.33s0,0,0,0l.31,0h.07a.2.2,0,0,1,.15.11l.78,1.25.06.09h0l-.4.07,0,0-.1-.17a0,0,0,0,0,0,0l-.46.08s0,0,0,0,0,.13,0,.19a0,0,0,0,1,0,0l-.23,0-.13,0Zm.75-.69-.31-.55h0l0,.6Z" transform="translate(80.06 106.96)"/><path class="e1cf817e-f09d-409b-9538-defd6bd2859f" d="M358.23,198.87s0,0-.05,0l-.65.11a.19.19,0,0,0-.17.19c0,.3,0,.6,0,.89v0l0,0-.57-1a0,0,0,0,0,0,0l-.37.06h0l0,0,.85,1.35s0,.07.06.09.07,0,.1,0l.29,0s0,0,0,0c0-.43.08-.85.11-1.28a.22.22,0,0,1,.1-.18,1.89,1.89,0,0,1,.35-.18Z" transform="translate(80.06 106.96)"/><path class="e1cf817e-f09d-409b-9538-defd6bd2859f" d="M356,200.77l-.13-.33,0,0a.79.79,0,0,1-.4.14l-.14,0a.12.12,0,0,1-.06-.21l.13-.12a2.26,2.26,0,0,0,.2-.17.42.42,0,0,0-.08-.62.69.69,0,0,0-.43-.13,1.07,1.07,0,0,0-.52.13h0l.12.31.22-.09a.46.46,0,0,1,.24,0l.09,0a.09.09,0,0,1,0,.14l-.11.11-.18.15a.45.45,0,0,0,.07.72.68.68,0,0,0,.37.1,1.28,1.28,0,0,0,.62-.15Z" transform="translate(80.06 106.96)"/><path class="e1cf817e-f09d-409b-9538-defd6bd2859f" d="M356.72,200.72l-.14-.35-.45-1.14s0,0-.06,0l-.33.05h0l.07.18.51,1.31s0,0,.06,0l.33-.05Z" transform="translate(80.06 106.96)"/></g><g id="e4a8b874-d715-4e20-9b7e-7859028a7e00" data-name="other"><ellipse class="e6dc284e-da6b-4263-bec5-15981e9bb23c" cx="272.59" cy="391.27" rx="4.43" ry="4.02"/><ellipse class="e6dc284e-da6b-4263-bec5-15981e9bb23c" cx="277.02" cy="434.69" rx="4.43" ry="4.02"/><ellipse class="e6dc284e-da6b-4263-bec5-15981e9bb23c" cx="305.64" cy="357.58" rx="5.31" ry="4.82"/><ellipse class="e6dc284e-da6b-4263-bec5-15981e9bb23c" cx="167.84" cy="334.38" rx="3.62" ry="3.28"/><ellipse class="e6dc284e-da6b-4263-bec5-15981e9bb23c" cx="390.4" cy="438.75" rx="2.66" ry="2.41"/><ellipse class="e6dc284e-da6b-4263-bec5-15981e9bb23c" cx="433.71" cy="336.54" rx="5.31" ry="4.82"/></g></svg>