<svg xmlns="http://www.w3.org/2000/svg" width="1363.988" height="392" viewBox="0 0 1363.988 392">
  <path id="Subtraction_1" data-name="Subtraction 1" d="M1546.994,392H183.006A789.805,789.805,0,0,1,654.9,28.279c16.718-4.607,33.815-8.709,50.818-12.195,17.15-3.515,34.657-6.5,52.035-8.857,17.542-2.384,35.419-4.2,53.134-5.4C828.779.615,846.986,0,865,0s36.221.614,54.114,1.826c17.715,1.2,35.591,3.017,53.134,5.4,17.378,2.362,34.885,5.342,52.035,8.857,17,3.485,34.1,7.588,50.818,12.195A791.267,791.267,0,0,1,1546.994,392v0h0Z" transform="translate(-183.006)" fill="#1f3f9b"/>
</svg>
