<svg xmlns="http://www.w3.org/2000/svg" viewBox="0 0 1110 1080"><defs><style>.\30 7d9ede7-1d40-45e2-aa80-8399e64f16fb{fill:#809fdd;}.\32 f9f5117-f80d-4857-b056-f2428112ae82{fill:#4c6dca;}.c6b77864-0c05-430c-85ca-226603b4115a{fill:#ed4056;}.\31 e9cf8af-73db-4e06-b5fb-13e68467f69d,.\32 7a27773-89b6-45b5-b1ea-6378e137c61f,.\33 489b65e-20c8-4c9d-965f-b8a8ef14a72d,.\33 f9e842e-870f-4c03-ad3d-8f5daa47f86a,.\34 803a884-97dd-4d92-90e8-738eecffa924,.\37 581ad12-7d5c-4039-afc2-599333ed0855,.\37 5a00bb6-b0c2-4ca9-ac58-2ec4d46bf371,.\37 c6ecfd9-b320-46f9-a6f6-521c94c07a95,.b8efc56f-2104-49af-affd-2d9a675ac74f,.b92152e4-c26e-4fb1-a125-1269d34fb195,.cf2f0852-4449-4f47-87e8-e1c94c6b3ef9,.d30514a3-0187-4bb2-b68f-5bef64b92f23,.d596abd4-f49d-4d14-9ee1-50cbefc3dba1,.d7bafde9-98c8-41dd-8b33-aaec66989c5f,.ed54f326-832e-4aed-bf2d-183a65b1a13f{fill:none;}.ed54f326-832e-4aed-bf2d-183a65b1a13f{stroke:#001557;}.\31 e9cf8af-73db-4e06-b5fb-13e68467f69d,.\33 489b65e-20c8-4c9d-965f-b8a8ef14a72d,.\37 581ad12-7d5c-4039-afc2-599333ed0855,.\37 c6ecfd9-b320-46f9-a6f6-521c94c07a95,.ed54f326-832e-4aed-bf2d-183a65b1a13f{stroke-linecap:round;}.\33 489b65e-20c8-4c9d-965f-b8a8ef14a72d,.\37 581ad12-7d5c-4039-afc2-599333ed0855,.\37 c6ecfd9-b320-46f9-a6f6-521c94c07a95,.ed54f326-832e-4aed-bf2d-183a65b1a13f{stroke-linejoin:round;}.\31 e9cf8af-73db-4e06-b5fb-13e68467f69d,.\33 f9e842e-870f-4c03-ad3d-8f5daa47f86a,.b8efc56f-2104-49af-affd-2d9a675ac74f,.d596abd4-f49d-4d14-9ee1-50cbefc3dba1,.ed54f326-832e-4aed-bf2d-183a65b1a13f{stroke-width:2px;}.\33 abfead9-ccd9-4a86-a749-9cc67d38c75e{fill:#fc9e49;}.\37 c736b54-98fc-4a25-94bf-1404bc0af0a7{fill:#f2b17c;}.dba7cd9b-73dd-40d2-9709-254e3ca8ab22{fill:#1f3f9b;}.f0d40b26-a427-4f87-850c-886776de0109{fill:#8dce82;}.\35 37e1e35-3775-42a9-900c-868c1fa0b1b8{fill:#9ee493;}.\35 93c71a3-e017-4c9e-a107-f5bb164482cb{fill:#84a98c;}.\30 f73792a-a115-4fbd-a2a5-64749836940d{fill:#01174f;}.fc6e9097-56d0-4cfa-b100-23eaf4e5a4aa{fill:#1da1a3;}.\39 2f7e874-7e80-4a30-9fd5-f729d96d6704{fill:#59c3c3;}.\30 3296ce0-250a-478b-a1f4-4874199f0e8a{fill:#efcf48;}.\37 581ad12-7d5c-4039-afc2-599333ed0855{stroke:#231815;stroke-width:0.25px;}.\33 8ba8b7b-99e8-45e9-b3c9-45594fe8ef97,.\37 a1fa6e8-8f24-47a8-8577-af5033c262da,.ddddb29a-0b36-49c1-94fb-5f0c47ae86ad{fill:#fff;}.\34 803a884-97dd-4d92-90e8-738eecffa924,.d30514a3-0187-4bb2-b68f-5bef64b92f23{stroke:#fff;}.\31 e9cf8af-73db-4e06-b5fb-13e68467f69d,.\32 7a27773-89b6-45b5-b1ea-6378e137c61f,.\33 8ba8b7b-99e8-45e9-b3c9-45594fe8ef97,.\33 f9e842e-870f-4c03-ad3d-8f5daa47f86a,.\34 803a884-97dd-4d92-90e8-738eecffa924,.\37 5a00bb6-b0c2-4ca9-ac58-2ec4d46bf371,.\38 23e2473-2dea-497c-ade4-4a81cb867bda,.b8efc56f-2104-49af-affd-2d9a675ac74f,.b92152e4-c26e-4fb1-a125-1269d34fb195,.cf2f0852-4449-4f47-87e8-e1c94c6b3ef9,.d30514a3-0187-4bb2-b68f-5bef64b92f23,.d596abd4-f49d-4d14-9ee1-50cbefc3dba1,.d7bafde9-98c8-41dd-8b33-aaec66989c5f,.ddddb29a-0b36-49c1-94fb-5f0c47ae86ad{stroke-miterlimit:10;}.\34 803a884-97dd-4d92-90e8-738eecffa924,.b92152e4-c26e-4fb1-a125-1269d34fb195,.ddddb29a-0b36-49c1-94fb-5f0c47ae86ad{stroke-width:0.5px;}.ef129d21-5255-4f47-bc91-4746a5b24d5f{fill:#9cb9e8;}.abe70807-01e2-48f9-9853-ff929678cc9f{fill:#e5af9a;}.\32 7a27773-89b6-45b5-b1ea-6378e137c61f,.\33 8ba8b7b-99e8-45e9-b3c9-45594fe8ef97,.ddddb29a-0b36-49c1-94fb-5f0c47ae86ad{stroke:#000;}.b8efc56f-2104-49af-affd-2d9a675ac74f{stroke:#332925;}.d7bafde9-98c8-41dd-8b33-aaec66989c5f{stroke:#d8a291;}.cf2f0852-4449-4f47-87e8-e1c94c6b3ef9{stroke:#f8d800;}.d9ed65bf-38a4-43e9-b038-3928e887108f{fill:#f8d800;}.d596abd4-f49d-4d14-9ee1-50cbefc3dba1{stroke:#e8edf9;}.\38 23e2473-2dea-497c-ade4-4a81cb867bda{fill:#299fef;stroke:#fc9e49;}.\37 c6ecfd9-b320-46f9-a6f6-521c94c07a95,.\38 23e2473-2dea-497c-ade4-4a81cb867bda{stroke-width:3px;}.beb09f0c-61c1-484b-b70d-880111ffe91c{fill:#e8edf9;}.\39 edf1dfd-a7f9-4c90-9d17-4a94daa63d9c{fill:#737782;}.\34 99bafaa-e113-4706-9380-2b879dd0ffef{fill:#97999e;}.f30378fb-05e6-4032-bc66-6f5d043a00b9{fill:#2f3132;}.\39 17c35e6-0cc1-4a0d-ad82-2ab9e469653e{fill:#5f5f5f;}.ddddb29a-0b36-49c1-94fb-5f0c47ae86ad{opacity:0.5;}.b92152e4-c26e-4fb1-a125-1269d34fb195{stroke:#8e8e8e;opacity:0.51;}.\33 489b65e-20c8-4c9d-965f-b8a8ef14a72d,.\37 5a00bb6-b0c2-4ca9-ac58-2ec4d46bf371{stroke:#f2f2f2;}.f671ef4e-c68b-4e8f-9c3e-41b86f8b63e6{fill:#213344;}.b64ddf9f-321b-4bae-b21a-775ad5375d55{fill:#f2f2f2;}.\31 27d8ebb-5c7e-4679-8f56-bd0f129c3a5c{fill:#56769a;}.\38 b04abac-afb8-40c8-b1c1-91e492615866{fill:#d3a394;}.\31 e9cf8af-73db-4e06-b5fb-13e68467f69d,.\33 f9e842e-870f-4c03-ad3d-8f5daa47f86a{stroke:#5b5957;}.\33 258e143-944f-4dd7-84f8-2a08d3d052c0{fill:#ce63a8;}.\37 66440fb-100a-41f4-ad45-828a051c81b7{fill:#e56eb5;}.\30 1279e90-de32-4372-ac4c-d6295bdba79c{fill:#42210b;}.\37 c6ecfd9-b320-46f9-a6f6-521c94c07a95{stroke:#fbff00;}.\37 045e54a-2d61-418f-94af-a79c3de5c46d{fill:#07ad2e;}.\39 4aa91e2-9e41-473a-9b2a-ebcc4f0d705c{fill:#1ac63b;}.\32 96c50f3-3d73-404e-80e1-3d78a4ccee9c{fill:#f4647c;}.c8cd6ba2-2c50-446f-8204-d8ec0bdfc34c{fill:#f29166;}</style></defs><title>page1</title><g id="ad52e2b0-3089-4b41-836f-5a1cf1f68ff5" data-name="sea"><path class="07d9ede7-1d40-45e2-aa80-8399e64f16fb" d="M1047.35,367.69c-77.79-97.31-328.12-341.32-803.22-205.5-293.89,84-237.38,209.35-108,313.45-93,27.5-117.45,82-119.95,127.13-2,36.53,10.31,72.37,33.86,100.94,30,36.39,92.87,99.8,193.54,142.15q-.21,1.32-.36,2.62c-2.49,21.8,7.3,42.89,26.83,59.42C320.52,950.56,484,1056.57,804,986.64c255.8-55.89,121.41-132.61-4.95-179.71,54.51-37.26,56.25-79.09,30.27-120.1,209.38-18.11,257.47-111.76,261.41-186.18C1093.28,452.6,1077.48,405.38,1047.35,367.69Z"/></g><g id="8b3c5a7d-27d7-43dd-b437-654007a24699" data-name="wave"><path class="2f9f5117-f80d-4857-b056-f2428112ae82" d="M1089,518c-35.59-54.87-132.9-40.27-310-76-153.64-31-351.13,24.76-491.62,170.64-27.53,28.59-63,34.75-94.12,15.88C135.71,593.61,75.52,569.13,29,554c-8.11,16.4-11.07,33.35-13,49-4.21,34.23,11.52,73.14,35.07,101.7,30,36.39,93.26,99,193.93,141.3-.14.88-.65,2.6-.75,3.47-2.15,18.81,4.85,37.09,19.37,52.37,36-9.36,68.51-23.83,85.25-46.23,1.6-2.14,3.74-3.13,5.86-2.64l198.22,45.9a4.8,4.8,0,0,0,1.93.05L834.41,849.5c-10.54-4.81-21.22-9.44-31.86-13.85,8-6.11,15.46-10.35,21.45-16.65-7.8-3.14-18.17-6.08-26-9,54.51-37.26,58.3-81.16,32.33-122.17C1019,671.51,1080,591,1089,518Z"/><g id="8e9cef17-e9c2-4727-b777-8a77e3866e36" data-name="watergrass3"><path class="c6b77864-0c05-430c-85ca-226603b4115a" d="M771.75,606.28s14.68-16.37,32.3,0c2.94,0,13.7,30.49,7.83,35,0,0,11.26,28.79,2,40.08,0,0,10.28,32.75-3.91,45.17,0,0,7.83,35-9.79,42.91,0,0-19.57,10.73-28.38-7.34,0,2.26-11.74-24.84,4.4-46.86,0,0-17.13-17.5-6.85-41.21,0,0-14.19-19.76,0-40.08C769.31,633.94,766.86,622.08,771.75,606.28Z"/><path class="ed54f326-832e-4aed-bf2d-183a65b1a13f" d="M789.42,617.57s11.94,100.67,0,129.29"/><path class="ed54f326-832e-4aed-bf2d-183a65b1a13f" d="M775.87,640.09s8.19,12.87,17.19,17.56"/><path class="ed54f326-832e-4aed-bf2d-183a65b1a13f" d="M805.72,643.27s3.27,18.37-11,35.94"/><path class="ed54f326-832e-4aed-bf2d-183a65b1a13f" d="M794.72,709.94s-23.91-22.17-18.86-39.65"/><path class="ed54f326-832e-4aed-bf2d-183a65b1a13f" d="M793.09,731.49s9.92.87,12.17-25.7"/><path class="3abfead9-ccd9-4a86-a749-9cc67d38c75e" d="M716.67,654.94s11.18-12.47,24.6,0c2.24,0,10.43,23.22,6,26.66,0,0,8.57,21.93,1.49,30.53,0,0,7.83,24.94-3,34.4,0,0,6,26.66-7.45,32.68,0,0-14.91,8.17-21.62-5.59,0,1.72-8.94-18.92,3.35-35.69,0,0-13-13.33-5.22-31.39,0,0-10.81-15,0-30.53C714.8,676,712.94,667,716.67,654.94Z"/><path class="ed54f326-832e-4aed-bf2d-183a65b1a13f" d="M730.12,663.54s9.09,76.67,0,98.46"/><path class="ed54f326-832e-4aed-bf2d-183a65b1a13f" d="M719.8,680.68s6.24,9.8,13.09,13.38"/><path class="ed54f326-832e-4aed-bf2d-183a65b1a13f" d="M742.53,683.11s2.49,14-8.37,27.37"/><path class="ed54f326-832e-4aed-bf2d-183a65b1a13f" d="M734.16,733.88S716,717,719.8,703.69"/><path class="ed54f326-832e-4aed-bf2d-183a65b1a13f" d="M732.92,750.29s7.55.66,9.27-19.57"/><path class="7c736b54-98fc-4a25-94bf-1404bc0af0a7" d="M664.67,633.94s11.18-12.47,24.6,0c2.24,0,10.43,23.22,6,26.66,0,0,8.57,21.93,1.49,30.53,0,0,7.83,24.94-3,34.4,0,0,6,26.66-7.45,32.68,0,0-14.91,8.17-21.62-5.59,0,1.72-8.94-18.92,3.35-35.69,0,0-13-13.33-5.22-31.39,0,0-10.81-15,0-30.53C662.8,655,660.94,646,664.67,633.94Z"/><path class="ed54f326-832e-4aed-bf2d-183a65b1a13f" d="M678.12,642.54s9.09,76.67,0,98.46"/><path class="ed54f326-832e-4aed-bf2d-183a65b1a13f" d="M667.8,659.68s6.24,9.8,13.09,13.38"/><path class="ed54f326-832e-4aed-bf2d-183a65b1a13f" d="M690.53,662.11s2.49,14-8.37,27.37"/><path class="ed54f326-832e-4aed-bf2d-183a65b1a13f" d="M682.16,712.88S664,696,667.8,682.69"/><path class="ed54f326-832e-4aed-bf2d-183a65b1a13f" d="M680.92,729.29s7.55.66,9.27-19.57"/></g><path class="dba7cd9b-73dd-40d2-9709-254e3ca8ab22" d="M909.6,859.48C880.58,840,842.35,823,802,808c41.81-28.57,50-60.48,41-92-7.29,1-15.2,5.3-23,15-40.18,50.26-137.46-2.79-192.53-41.79a69.25,69.25,0,0,0-79.09-.33c-101.64,70-206.36,36.61-232.15,26.61a68.55,68.55,0,0,0-14.38-3.84A626.57,626.57,0,0,0,95.6,714.73a68.38,68.38,0,0,0-26.34,10.71A513.36,513.36,0,0,0,243.61,845.85q-.21,1.32-.36,2.62c-1.65,14.41,2.08,28.51,10.43,41.19L735,973.16a69.15,69.15,0,0,0,53-12.49l100.39-74.55A66,66,0,0,0,909.6,859.48Z"/><g id="c304afd4-aedf-48de-818e-472195fa873d" data-name="watergrass2"><path class="f0d40b26-a427-4f87-850c-886776de0109" d="M331.35,812.88s-2.92,30.06,7.92,28.19c0,0,12.29,3.56,2.46-35.66,0,0,.25-27.89,17.29-29.13,0,0,32.41-3.33,19.06-27.73,0,0-6.26-6.87-14.29,2.47,0,0-9.56,1.94,7.63-26.33,0,0,7.78-18.11-5.69-21.18,0,0-10.94,2.74-12,20,0,0-3.37,12.8-11.78,11.13,0,0-8.11-11.67,12.47-38,0,0,17.81-24.67-1-39.33,0,0-14.56-2-12.75,26.07,0,0,1.09,7.77-4.53,9,0,0-1.45-23.05,1.7-31.27,0,0-.49-14.12-7.47-18,0,0-12.51-.68-4.43,32.88,0,0,2.35,10.68-2.92,12.44S312.53,657,312.53,657s.49-17.7,6.75-27c0,0,1.44-10.76-5.6-10.4s-7.49,11-7.49,11-18.76-7.27,1.75-39.8c0,0,1.09-9.85-7.72-9.46S269.1,623,295.45,665.35l2.58,14.9s-7.43-.42-12.66-16c0,0-5.09-13.33-15.73-11.77s8.87,24.9,8.87,24.9S264,668.5,257.65,656.53c0,0-7.82-10-15.06-.52s10.75,31.39,41.09,36.66c0,0,26.51,3.66,33.63,33.12,0,0,8.16,28.71,2.14,31.74,0,0-10.36-5.92-13.24-23.37a36.41,36.41,0,0,0-4.72-13c-4.12-6.77-10.4-15.55-14.2-13.46-6,3.31,2.77,24.81,2.77,24.81s-9.5-9.44-17.51-2.94,22,32,22,32,35.71,21.68,34.51,35.24Z"/><path class="537e1e35-3775-42a9-900c-868c1fa0b1b8" d="M380.12,676.43a23.57,23.57,0,0,1-11.24-8.56c-5.61-7.77-17.64-22.17-23.51-12-7.81,13.53,12.21,43.22,37.29,59.18,0,0,44.26,32.94,32,71.6,0,0-12,44,.15,43.95s10.86-35,10.86-35-6.24-36.13,26.21-51.89,15.94-29.14,15.94-29.14-16.38-10.37-24.88,16.53c0,0-15.13-17.06,6.66-39.77,5.84-6.08,8.26-11.38,8.69-15.88,1.33-14-19.62-16.92-22.43-3.12a25.9,25.9,0,0,0-.5,6A11.42,11.42,0,0,1,426.83,690c-6.44,1.51-12.24-3-2.87-33.5,16-52.16-1.43-55.23-1.43-55.23s-15.1-4.55-15.84,38.69a8.53,8.53,0,0,1-3.52,6.89c-3.64,2.53-10.11,2.48-19.25-14.55-6.86-12.77-13.58-14-18.85-11.69-7.35,3.29-9.61,12.68-5,19.26,4.77,6.75,12.17,15.5,20.16,18.59a13.77,13.77,0,0,1,8.91,13.62C388.91,676,386.77,678.75,380.12,676.43Z"/><path class="537e1e35-3775-42a9-900c-868c1fa0b1b8" d="M257.19,696.67a9.46,9.46,0,0,0,2-3.8c1.85-7.22,8.85-30.94,19-22.32,11.9,10.12,3,44.81-15.26,68.26,0,0-30.63,45.89-6.11,78.18,0,0,26.09,37.44,14.61,41.45s-22-29.35-22-29.35S243.14,793,207.28,789s-24.79-22.1-24.79-22.1,6.68-8.53,17.17-3.44c6.33,3.07,12.89-4.16,9.22-10.15-3-4.92-8.23-10-17-14.41-7.54-3.77-11.6-7.95-13.51-12-6-12.76,12.8-22.52,20.08-10.47a25.9,25.9,0,0,1,2.49,5.5A11.42,11.42,0,0,0,212.86,730c6.57-.74,10.52-6.94-8.54-32.52C171.73,653.76,187.13,645,187.13,645s13.2-9.72,28.81,33.58c0,0,13.24,13.95,18-17.32,2.17-14.33,8.08-17.79,13.83-17.34,8,.63,13.31,8.72,11.13,16.47-2.35,8.39-6.71,19.87-13.85,25.15a10,10,0,0,0-4.15,9.3C241.84,702.11,245.27,710.59,257.19,696.67Z"/><ellipse class="593c71a3-e017-4c9e-a107-f5bb164482cb" cx="338.5" cy="604" rx="9" ry="5.5" transform="translate(-335.16 444.04) rotate(-47.37)"/><ellipse class="537e1e35-3775-42a9-900c-868c1fa0b1b8" cx="367.43" cy="596.3" rx="13.09" ry="8" transform="translate(-320.15 462.84) rotate(-47.37)"/><ellipse class="f0d40b26-a427-4f87-850c-886776de0109" cx="168.11" cy="685.25" rx="6.2" ry="10.15" transform="translate(-536.53 721.34) rotate(-79.15)"/></g><path class="0f73792a-a115-4fbd-a2a5-64749836940d" d="M901.47,854.26C821.56,904.36,672.31,915.86,492,839c-122.81-52.35-206.89-11.46-248.91,21.09,1.5,17.58,11,34.23,27,47.8C320.52,950.56,484,1056.57,804,986.64,985.47,947,970.57,896.87,901.47,854.26Z"/></g><g id="52d63f1b-9f3e-4bf5-b8e8-8a3266bcabe5" data-name="kkfish"><polygon class="fc6e9097-56d0-4cfa-b100-23eaf4e5a4aa" points="498.1 565.26 497.24 574.55 480.62 588.38 484.63 545.12 498.1 565.26"/><path class="fc6e9097-56d0-4cfa-b100-23eaf4e5a4aa" d="M531,548.54s-3.28-11.11-7.62-11.52,35.64-21.73,50.91,2.8Z"/><path class="fc6e9097-56d0-4cfa-b100-23eaf4e5a4aa" d="M550.64,610.64s.09,8.38-2.24,9.1,23.32,12.25,27.54-7Z"/><path class="92f7e874-7e80-4a30-9fd5-f729d96d6704" d="M630,589.36l4.31-2.3a7.66,7.66,0,0,0-.56-1.87c-4.32-9.36-20.75-39.85-53.63-44.75-38.94-5.8-87.43,28.44-87.43,28.44,30.14,41.54,73.95,50,73.95,50,48.39,4.49,62.89-17.17,66.89-26.66Z"/><path class="03296ce0-250a-478b-a1f4-4874199f0e8a" d="M612,580.29,598.53,579l-3.9-.36a2.73,2.73,0,0,1-2.46-3l.86-9.28a2.73,2.73,0,0,1,3-2.46l3.67.34,13.72,1.27a2.73,2.73,0,0,1,2.46,3l-.86,9.28A2.73,2.73,0,0,1,612,580.29Z"/><polyline class="7581ad12-7d5c-4039-afc2-599333ed0855" points="603.56 564.68 600.18 569.19 599.67 574.72 602.99 579.45"/><polyline class="7581ad12-7d5c-4039-afc2-599333ed0855" points="605.82 564.89 608.31 569.94 607.8 575.47 603.67 579.52"/><line class="7581ad12-7d5c-4039-afc2-599333ed0855" x1="608.31" y1="569.94" x2="615.65" y2="570.62"/><line class="7581ad12-7d5c-4039-afc2-599333ed0855" x1="607.8" y1="575.47" x2="615.14" y2="576.15"/><line class="7581ad12-7d5c-4039-afc2-599333ed0855" x1="592.85" y1="568.51" x2="600.18" y2="569.19"/><line class="7581ad12-7d5c-4039-afc2-599333ed0855" x1="592.33" y1="574.04" x2="599.67" y2="574.72"/><rect class="7a1fa6e8-8f24-47a8-8577-af5033c262da" x="581.39" y="586.63" width="18.65" height="5.49" transform="translate(56.93 -52.01) rotate(5.3)"/><rect class="7a1fa6e8-8f24-47a8-8577-af5033c262da" x="559.72" y="584.62" width="18.65" height="5.49" transform="translate(56.65 -50.02) rotate(5.3)"/><rect class="7a1fa6e8-8f24-47a8-8577-af5033c262da" x="538.05" y="582.62" width="18.65" height="5.49" transform="translate(56.37 -48.03) rotate(5.3)"/><rect class="7a1fa6e8-8f24-47a8-8577-af5033c262da" x="516.38" y="580.61" width="18.65" height="5.49" transform="translate(56.09 -46.04) rotate(5.3)"/><path class="d30514a3-0187-4bb2-b68f-5bef64b92f23" d="M583.75,564.7c-1.3.59-2.39,2.67-2.58,4.69s.74,4.73,2.09,5.46"/><path class="d30514a3-0187-4bb2-b68f-5bef64b92f23" d="M581.69,562.39c-2,.89-3.59,4-3.87,7-.3,3.22,1.11,7.1,3.13,8.19"/><path class="d30514a3-0187-4bb2-b68f-5bef64b92f23" d="M579.29,560.16c-2.34,1.13-4.32,5.1-4.68,8.94-.38,4.08,1.29,9,3.69,10.34"/><path class="7a1fa6e8-8f24-47a8-8577-af5033c262da" d="M612.17,609.49l-.58,0-1-.09c-.09,0-.12,0-.13-.13,0-.28-.07-.56-.09-.84,0-.11-.05-.14-.16-.15l-2.08-.19a.18.18,0,0,0-.21.13q-.18.4-.37.79s-.09.1-.13.1l-1.8-.16,0,0,.22-.42,3.08-5.8a.91.91,0,0,1,.62-.54,1.15,1.15,0,0,1,.31,0l1.38.12c.11,0,.15,0,.16.16q.33,3,.67,5.92l.13,1.11a.23.23,0,0,0,0,.06Zm-2-2.72-.3-2.68h0l-1.19,2.54Z"/><path class="7a1fa6e8-8f24-47a8-8577-af5033c262da" d="M590,600.38c0-.11.12-.12.22-.11l2.94.28a.84.84,0,0,1,.81.8c.13,1.33.25,2.65.38,4l0,.21.08-.12,2.23-4.41a.17.17,0,0,1,.2-.11l1.66.16.13,0-.07.14-3.34,6.28c-.08.14-.13.34-.25.4s-.31,0-.46,0l-1.31-.12c-.12,0-.16-.05-.18-.17-.3-1.89-.61-3.78-.91-5.67a1,1,0,0,0-.52-.77,8.45,8.45,0,0,0-1.63-.69Z"/><path class="7a1fa6e8-8f24-47a8-8577-af5033c262da" d="M600.39,608.15l.48-1.53.19.11a3.53,3.53,0,0,0,1.82.52,1.72,1.72,0,0,0,.63-.12.54.54,0,0,0,.19-.95,6.42,6.42,0,0,0-.63-.47,10.08,10.08,0,0,1-.93-.71,1.86,1.86,0,0,1,.14-2.78,3.08,3.08,0,0,1,1.85-.71,4.79,4.79,0,0,1,2.37.44l.1.05-.45,1.44c-.34-.12-.66-.26-1-.35a2.05,2.05,0,0,0-1.06-.06,1.12,1.12,0,0,0-.4.18.41.41,0,0,0-.07.64,3.91,3.91,0,0,0,.55.46c.28.21.59.39.87.61a2,2,0,0,1-.08,3.25,3.05,3.05,0,0,1-1.61.57,5.72,5.72,0,0,1-2.81-.49Z"/><path class="7a1fa6e8-8f24-47a8-8577-af5033c262da" d="M597.26,608.13l.5-1.61q.82-2.61,1.63-5.22c0-.13.1-.17.24-.16l1.47.14.19,0-.25.8q-.94,3-1.88,6c0,.14-.09.19-.24.17-.49-.06-1-.1-1.48-.14Z"/><polygon class="fc6e9097-56d0-4cfa-b100-23eaf4e5a4aa" points="260.82 562.6 258.4 568.64 264.33 582.51 275.58 554.38 260.82 562.6"/><path class="fc6e9097-56d0-4cfa-b100-23eaf4e5a4aa" d="M245.69,541.76s5.56-5.86,8.39-4.72-15.22-24.81-32.49-14.43Z"/><path class="fc6e9097-56d0-4cfa-b100-23eaf4e5a4aa" d="M213.8,574.08s-2.72,5.17-1.5,6.35-18.36.2-14.86-13.11Z"/><path class="92f7e874-7e80-4a30-9fd5-f729d96d6704" d="M171.31,535.67l-1.95-2.79a5.34,5.34,0,0,1,.94-1c5.65-4.44,25.53-18.14,47.5-10.74,26,8.77,45.23,45.42,45.23,45.42-31.9,16.21-61.77,7.53-61.77,7.53-31.46-12.59-33.58-30.63-33-37.79Z"/><path class="03296ce0-250a-478b-a1f4-4874199f0e8a" d="M185.35,535.75l8.77,3.51,2.53,1a1.9,1.9,0,0,0,2.47-1.06l2.41-6a1.9,1.9,0,0,0-1.06-2.47l-2.39-1-8.92-3.57a1.9,1.9,0,0,0-2.47,1.06l-2.41,6A1.9,1.9,0,0,0,185.35,535.75Z"/><polyline class="7581ad12-7d5c-4039-afc2-599333ed0855" points="195.55 528.75 196.22 532.62 194.78 536.21 191.22 538.1"/><polyline class="7581ad12-7d5c-4039-afc2-599333ed0855" points="194.09 528.16 190.94 530.5 189.5 534.1 190.78 537.92"/><line class="7581ad12-7d5c-4039-afc2-599333ed0855" x1="190.94" y1="530.5" x2="186.16" y2="528.6"/><line class="7581ad12-7d5c-4039-afc2-599333ed0855" x1="189.5" y1="534.1" x2="184.73" y2="532.19"/><line class="7581ad12-7d5c-4039-afc2-599333ed0855" x1="200.99" y1="534.53" x2="196.22" y2="532.62"/><line class="7581ad12-7d5c-4039-afc2-599333ed0855" x1="199.55" y1="538.12" x2="194.78" y2="536.21"/><rect class="7a1fa6e8-8f24-47a8-8577-af5033c262da" x="189.18" y="546.24" width="13.01" height="3.83" transform="translate(173.73 1129.78) rotate(-158.19)"/><rect class="7a1fa6e8-8f24-47a8-8577-af5033c262da" x="203.27" y="551.88" width="13.01" height="3.83" transform="translate(198.81 1145.88) rotate(-158.19)"/><rect class="7a1fa6e8-8f24-47a8-8577-af5033c262da" x="217.35" y="557.51" width="13.01" height="3.83" transform="translate(223.88 1161.98) rotate(-158.19)"/><rect class="7a1fa6e8-8f24-47a8-8577-af5033c262da" x="231.44" y="563.15" width="13.01" height="3.83" transform="translate(248.95 1178.08) rotate(-158.19)"/><path class="4803a884-97dd-4d92-90e8-738eecffa924" d="M207.84,535a4.18,4.18,0,0,1,.11,3.73c-.56,1.39-2,2.7-3,2.72"/><path class="4803a884-97dd-4d92-90e8-738eecffa924" d="M209.85,534.27c.93,1.17,1,3.63.17,5.6s-2.95,4.05-4.54,4.09"/><path class="4803a884-97dd-4d92-90e8-738eecffa924" d="M212.05,533.65c1.09,1.45,1.06,4.54.06,7-1.06,2.65-3.65,5.16-5.58,5.25"/><path class="7a1fa6e8-8f24-47a8-8577-af5033c262da" d="M190.35,560.28l-.37-.17-.64-.31a.08.08,0,0,1-.05-.12c.05-.19.1-.38.15-.57s0-.11-.06-.14l-1.31-.65a.12.12,0,0,0-.17,0l-.44.42a.13.13,0,0,1-.11,0l-1.13-.56,0,0,.25-.22,3.47-3a.63.63,0,0,1,.54-.2.8.8,0,0,1,.21.07l.87.43a.1.1,0,0,1,.07.14l-1.05,4-.2.75a.16.16,0,0,0,0,0Zm-.62-2.28.48-1.82h0l-1.42,1.35Z"/><path class="7a1fa6e8-8f24-47a8-8577-af5033c262da" d="M178.21,548.76c.05-.06.11,0,.17,0l1.84.92a.58.58,0,0,1,.33.72c-.25.89-.5,1.79-.76,2.68l0,.14.08-.06,2.56-2.3a.12.12,0,0,1,.16,0l1,.52.08,0-.08.08-3.75,3.24c-.09.07-.17.19-.26.2s-.2-.08-.3-.13l-.82-.41a.11.11,0,0,1-.07-.15c.28-1.3.55-2.61.84-3.91a.68.68,0,0,0-.14-.63,5.89,5.89,0,0,0-.89-.86Z"/><path class="7a1fa6e8-8f24-47a8-8577-af5033c262da" d="M183,556.44l.7-.87.1.12a2.46,2.46,0,0,0,1.06.79,1.2,1.2,0,0,0,.44.08.38.38,0,0,0,.36-.57,4.47,4.47,0,0,0-.29-.47,7,7,0,0,1-.42-.7,1.29,1.29,0,0,1,.79-1.77,2.14,2.14,0,0,1,1.38,0,3.34,3.34,0,0,1,1.43.88l.05.06-.65.82c-.19-.16-.37-.33-.56-.48a1.43,1.43,0,0,0-.68-.31.78.78,0,0,0-.3,0,.29.29,0,0,0-.2.4,2.72,2.72,0,0,0,.24.43c.13.21.29.4.41.61a1.4,1.4,0,0,1-.87,2.09,2.13,2.13,0,0,1-1.19,0,4,4,0,0,1-1.7-1Z"/><path class="7a1fa6e8-8f24-47a8-8577-af5033c262da" d="M181,555.64l.73-.92,2.37-3a.13.13,0,0,1,.19,0l.92.46.12.06-.36.46-2.73,3.44c-.06.08-.11.1-.2,0l-.93-.47Z"/></g><g id="25c12104-b039-4003-87ad-1573bcb03dd9" data-name="bubble"><ellipse class="ef129d21-5255-4f47-bc91-4746a5b24d5f" cx="160.48" cy="490.75" rx="3.98" ry="5.25"/><ellipse class="ef129d21-5255-4f47-bc91-4746a5b24d5f" cx="176.25" cy="471.5" rx="7.75" ry="6.5"/><ellipse class="ef129d21-5255-4f47-bc91-4746a5b24d5f" cx="195.25" cy="448.02" rx="10.75" ry="9.02"/><ellipse class="ef129d21-5255-4f47-bc91-4746a5b24d5f" cx="543.25" cy="371.02" rx="10.75" ry="9.02"/><ellipse class="ef129d21-5255-4f47-bc91-4746a5b24d5f" cx="526.25" cy="420.47" rx="13.75" ry="12.47"/><ellipse class="ef129d21-5255-4f47-bc91-4746a5b24d5f" cx="670.04" cy="797.35" rx="5.24" ry="5.77" transform="translate(-369.13 866.83) rotate(-53.78)"/><ellipse class="ef129d21-5255-4f47-bc91-4746a5b24d5f" cx="665.73" cy="767.68" rx="7.52" ry="8.3" transform="translate(-346.97 851.21) rotate(-53.78)"/><ellipse class="ef129d21-5255-4f47-bc91-4746a5b24d5f" cx="279.81" cy="802.09" rx="4.87" ry="5.37" transform="translate(-532.63 553.93) rotate(-53.78)"/><ellipse class="ef129d21-5255-4f47-bc91-4746a5b24d5f" cx="164.81" cy="750.09" rx="4.87" ry="5.37" transform="translate(-537.73 439.88) rotate(-53.78)"/><ellipse class="ef129d21-5255-4f47-bc91-4746a5b24d5f" cx="804.9" cy="784.64" rx="4.75" ry="5.24" transform="translate(-303.7 970.43) rotate(-53.78)"/><ellipse class="ef129d21-5255-4f47-bc91-4746a5b24d5f" cx="725.9" cy="610.78" rx="6.63" ry="7.31" transform="translate(-195.76 835.56) rotate(-53.78)"/><ellipse class="ef129d21-5255-4f47-bc91-4746a5b24d5f" cx="843.4" cy="628.52" rx="8.31" ry="9.17" transform="translate(-162 937.61) rotate(-53.78)"/><ellipse class="ef129d21-5255-4f47-bc91-4746a5b24d5f" cx="814.27" cy="575.8" rx="5.38" ry="5.93" transform="translate(-131.38 892.54) rotate(-53.78)"/><ellipse class="ef129d21-5255-4f47-bc91-4746a5b24d5f" cx="639.27" cy="649.8" rx="5.38" ry="5.93" transform="translate(-262.68 781.63) rotate(-53.78)"/><ellipse class="ef129d21-5255-4f47-bc91-4746a5b24d5f" cx="458.5" cy="765.82" rx="5.29" ry="5.83" transform="translate(-430.25 683.26) rotate(-53.78)"/><ellipse class="ef129d21-5255-4f47-bc91-4746a5b24d5f" cx="471.63" cy="785.58" rx="2.38" ry="2.63" transform="translate(-440.83 701.94) rotate(-53.78)"/><ellipse class="ef129d21-5255-4f47-bc91-4746a5b24d5f" cx="534.42" cy="254.61" rx="5.04" ry="5.56" transform="translate(183.75 731.54) rotate(-79.15)"/><ellipse class="ef129d21-5255-4f47-bc91-4746a5b24d5f" cx="580.41" cy="293.92" rx="6.13" ry="6.76" transform="translate(182.47 808.6) rotate(-79.15)"/><ellipse class="ef129d21-5255-4f47-bc91-4746a5b24d5f" cx="557.75" cy="463.08" rx="7.25" ry="6.08"/></g><g id="cb894fa3-b6a1-42f5-8267-d8f2aeffccf1" data-name="looking boy"><path class="abe70807-01e2-48f9-9853-ff929678cc9f" d="M108.5,692S167,653.77,94,608.57c4,2.15-63.5,12.38-20.5,76.95,0,0,16,6.46,2,33.36,0,0,11.5,19.91,30.5-5.92A117.32,117.32,0,0,0,108.5,692Z"/><path class="abe70807-01e2-48f9-9853-ff929678cc9f" d="M135.66,803.36s2.34,20.64-8.61,30c-.43-.29,1.83,20.61,1.83,20.61S155,839,146.39,798C147,797.86,135.66,803.36,135.66,803.36Z"/><path d="M131.5,810.35l7-5.74,14-11.48S131,734.22,117.26,723.86"/><path d="M80,693.59s-13-28,2-37.67c0,0,28.5-5.76,26-43,.42.38-15.49-22.72-39.32-6.77-9.71,6.5-16.43,17.08-19.1,29.05C44.56,657.71,40.72,698.28,80,693.59Z"/><path d="M75.5,718.88s-25,24.75-23,64.57l-5,83.94,82-8.61V783.45s3-50.58-22-71Z"/><path class="38ba8b7b-99e8-45e9-b3c9-45594fe8ef97" d="M66.5,895.37s3,21.52,22,30.13c0,0,4,2.59,9.9,10.09a101.92,101.92,0,0,1,6.36,9.22c10,16.31,22.38,45,29.74,93.69h27s-17-167.89-32-179.73l-82,8.61s.42,39.55,9.81,61.82A50.42,50.42,0,0,1,61,943.51c1.35,12.82,3.14,36.26-.25,47.62a48.28,48.28,0,0,0-1.92,9.53c-1.08,12.18-2.72,37.85,2.62,37.85h35s8-89.32,6-96.86"/><path class="abe70807-01e2-48f9-9853-ff929678cc9f" d="M125,874.5a10.57,10.57,0,0,1,.51,1.84L124,881.92l-.18-.19c-.19,1.19-.32,2-.32,2.09-30.5-25.57-37-82.07-37-82.07s10-4.3,9.78-3.95c2.78,16.5,29.25,73.63,29.25,73.63S125.31,872.73,125,874.5Z"/><path class="b8efc56f-2104-49af-affd-2d9a675ac74f" d="M70.5,773.76l8,31.21,24-9.69s0-14-12-33.36"/><path class="27a27773-89b6-45b5-b1ea-6378e137c61f" d="M124.5,865.24s6,19.37-11,30.13"/><path class="d7bafde9-98c8-41dd-8b33-aaec66989c5f" d="M89.39,664.65s-6.76-.84-5.2,4.22,3.33,9.72,6.9,7.66"/><rect class="abe70807-01e2-48f9-9853-ff929678cc9f" x="71" y="1039" width="11" height="10"/><path d="M70.3,1047H83c.84.05,14.51,1,22.33,6.63a1.31,1.31,0,0,1-.77,2.37H70.3a1.3,1.3,0,0,1-1.3-1.3v-6.39A1.3,1.3,0,0,1,70.3,1047Z"/><path class="cf2f0852-4449-4f47-87e8-e1c94c6b3ef9" d="M85,1048.43s3.05-5.09,4.07-2a9.09,9.09,0,0,1,.4,1.64,2.43,2.43,0,0,0,3.23,2,5,5,0,0,0,1.51-.89c2-1.73,3,.31,3,3.36"/><rect class="abe70807-01e2-48f9-9853-ff929678cc9f" x="142" y="1039" width="11" height="10"/><path d="M141.3,1047H154c.84.05,14.51,1,22.33,6.63a1.31,1.31,0,0,1-.77,2.37H141.3a1.3,1.3,0,0,1-1.3-1.3v-6.39A1.3,1.3,0,0,1,141.3,1047Z"/><path class="cf2f0852-4449-4f47-87e8-e1c94c6b3ef9" d="M157.28,1048.43s3.05-5.09,4.07-2a9.09,9.09,0,0,1,.4,1.64,2.43,2.43,0,0,0,3.23,2,5,5,0,0,0,1.51-.89c2-1.73,3,.31,3,3.36"/></g><g id="aa824a3c-33b6-4a42-a2ea-7125874be989" data-name="submarine"><path class="d9ed65bf-38a4-43e9-b038-3928e887108f" d="M313.68,228.27s-7.47-10.37-29.85-13.53c-6.49-.92-7.08-6.32-.81-7.68,18.59-4,42-4,43.09,21.22Z"/><polygon class="3abfead9-ccd9-4a86-a749-9cc67d38c75e" points="302.37 239.24 302.37 227.48 332.59 223.95 337.66 242.3 302.37 239.24"/><line class="d596abd4-f49d-4d14-9ee1-50cbefc3dba1" x1="451.31" y1="288.15" x2="468.58" y2="284.68"/><path class="d9ed65bf-38a4-43e9-b038-3928e887108f" d="M301.33,238.52a65.31,65.31,0,0,0-27.6,5.91c-20.25,9.25-51.28,30.63-43.13,72.87,0,0,9.26,45.25,66.92,43.39a62.48,62.48,0,0,0,8-.79c22.88-3.7,145.59-25.65,148.53-70.66C454,289.25,465.37,239.7,301.33,238.52Z"/><ellipse class="823e2473-2dea-497c-ade4-4a81cb867bda" cx="280.25" cy="304.36" rx="31.3" ry="34.54"/><ellipse class="823e2473-2dea-497c-ade4-4a81cb867bda" cx="348.78" cy="295.18" rx="31.3" ry="34.54"/><ellipse class="3abfead9-ccd9-4a86-a749-9cc67d38c75e" cx="408.77" cy="288.17" rx="20.05" ry="22.13"/><ellipse class="d9ed65bf-38a4-43e9-b038-3928e887108f" cx="465.35" cy="260.64" rx="10.79" ry="23.74"/><ellipse class="3abfead9-ccd9-4a86-a749-9cc67d38c75e" cx="468.84" cy="305.84" rx="10.06" ry="22.48" transform="translate(-20.35 33.74) rotate(-4.03)"/><path class="beb09f0c-61c1-484b-b70d-880111ffe91c" d="M274.43,291.46c-1.75,3.38-3.4,5.3-6.78,3.55A6.9,6.9,0,1,1,274,282.76C277.38,284.51,276.18,288.08,274.43,291.46Z"/><path class="beb09f0c-61c1-484b-b70d-880111ffe91c" d="M340.43,282.25c-1.51,2.91-2.93,4.56-5.84,3.05a5.94,5.94,0,1,1,5.47-10.54C343,276.27,341.94,279.34,340.43,282.25Z"/><path class="beb09f0c-61c1-484b-b70d-880111ffe91c" d="M333.4,293.52c-.78,1.51-1.52,2.37-3,1.58a3.08,3.08,0,1,1,2.84-5.47C334.72,290.42,334.19,292,333.4,293.52Z"/><path class="beb09f0c-61c1-484b-b70d-880111ffe91c" d="M260.27,295.28c-.56,1.09-1.09,1.71-2.18,1.14a2.22,2.22,0,0,1,2-3.94C261.22,293,260.83,294.19,260.27,295.28Z"/><path class="3abfead9-ccd9-4a86-a749-9cc67d38c75e" d="M285.82,206.48s-8.24.25-7.18,4.54c0,0-.45,3.44,6.24,3.87S285.82,206.48,285.82,206.48Z"/></g><g id="11da9707-981f-4def-8111-c2945d11d124" data-name="watergrass1"><path class="d596abd4-f49d-4d14-9ee1-50cbefc3dba1" d="M595,858s130,49,151,123"/><path class="d596abd4-f49d-4d14-9ee1-50cbefc3dba1" d="M616,804S744,906,763,987"/><path class="d596abd4-f49d-4d14-9ee1-50cbefc3dba1" d="M719,764s11,145,55,221"/><path class="d596abd4-f49d-4d14-9ee1-50cbefc3dba1" d="M781,771s-53,114,0,214"/><path class="d596abd4-f49d-4d14-9ee1-50cbefc3dba1" d="M780,988c-16-106,42-165,42-165"/><path class="d596abd4-f49d-4d14-9ee1-50cbefc3dba1" d="M859,842s-57,15-64,145"/><ellipse class="d596abd4-f49d-4d14-9ee1-50cbefc3dba1" cx="614.5" cy="861.5" rx="11.5" ry="19.5"/><ellipse class="d596abd4-f49d-4d14-9ee1-50cbefc3dba1" cx="652.5" cy="880" rx="9.5" ry="17"/><circle class="d596abd4-f49d-4d14-9ee1-50cbefc3dba1" cx="719" cy="944" r="13.5"/><circle class="d596abd4-f49d-4d14-9ee1-50cbefc3dba1" cx="648" cy="826" r="18"/><ellipse class="d596abd4-f49d-4d14-9ee1-50cbefc3dba1" cx="684.5" cy="863" rx="13.5" ry="22"/><ellipse class="d596abd4-f49d-4d14-9ee1-50cbefc3dba1" cx="716.92" cy="794.53" rx="22.06" ry="16.92" transform="translate(-271.96 385.41) rotate(-25.46)"/><ellipse class="d596abd4-f49d-4d14-9ee1-50cbefc3dba1" cx="721.92" cy="841.53" rx="22.06" ry="16.92" transform="translate(-291.68 392.12) rotate(-25.46)"/><ellipse class="d596abd4-f49d-4d14-9ee1-50cbefc3dba1" cx="733.2" cy="878" rx="14.13" ry="10.84" transform="translate(-164.29 168.79) rotate(-11.82)"/><ellipse class="d596abd4-f49d-4d14-9ee1-50cbefc3dba1" cx="684.67" cy="908" rx="14.13" ry="10.84" transform="translate(-393.81 547.3) rotate(-34.49)"/><ellipse class="d596abd4-f49d-4d14-9ee1-50cbefc3dba1" cx="754.46" cy="918.56" rx="16.99" ry="13.04" transform="translate(-172.14 174) rotate(-11.82)"/><ellipse class="d596abd4-f49d-4d14-9ee1-50cbefc3dba1" cx="767.46" cy="794.56" rx="13.04" ry="16.99" transform="translate(-304.38 1061.92) rotate(-60)"/><ellipse class="d596abd4-f49d-4d14-9ee1-50cbefc3dba1" cx="762.18" cy="826.05" rx="9.4" ry="12.25" transform="translate(-334.29 1073.09) rotate(-60)"/><ellipse class="d596abd4-f49d-4d14-9ee1-50cbefc3dba1" cx="762.4" cy="863" rx="11.35" ry="14.79" transform="translate(-366.18 1091.76) rotate(-60)"/><ellipse class="d596abd4-f49d-4d14-9ee1-50cbefc3dba1" cx="841.4" cy="857" rx="11.35" ry="14.79" transform="translate(-321.49 1157.17) rotate(-60)"/><ellipse class="d596abd4-f49d-4d14-9ee1-50cbefc3dba1" cx="824.09" cy="887.09" rx="14.04" ry="18.3" transform="translate(-248.44 1449) rotate(-74.76)"/><ellipse class="d596abd4-f49d-4d14-9ee1-50cbefc3dba1" cx="803.4" cy="931.55" rx="11.33" ry="14.77" transform="translate(-306.58 1461.8) rotate(-74.76)"/><ellipse class="d596abd4-f49d-4d14-9ee1-50cbefc3dba1" cx="779.17" cy="942.99" rx="7.08" ry="9.22" transform="translate(-335.48 1446.85) rotate(-74.76)"/><ellipse class="d596abd4-f49d-4d14-9ee1-50cbefc3dba1" cx="808.41" cy="837.2" rx="14.51" ry="18.92" transform="translate(-320.83 1118.7) rotate(-60)"/><ellipse class="d596abd4-f49d-4d14-9ee1-50cbefc3dba1" cx="795.68" cy="871.02" rx="11.76" ry="15.33" transform="translate(-356.49 1124.59) rotate(-60)"/><ellipse class="d596abd4-f49d-4d14-9ee1-50cbefc3dba1" cx="787.68" cy="904.02" rx="11.76" ry="15.33" transform="translate(-389.07 1134.16) rotate(-60)"/><ellipse class="d596abd4-f49d-4d14-9ee1-50cbefc3dba1" cx="717" cy="906" rx="17" ry="9" transform="translate(-418.46 692.35) rotate(-40.99)"/><path class="9edf1dfd-a7f9-4c90-9d17-4a94daa63d9c" d="M804,986.64q13.42-2.93,25.42-5.94l.58-.7s-8-12-56-9.68c-44.76,2.16-46.91,27-47,30.31C751.59,997.1,777.25,992.49,804,986.64Z"/><ellipse class="499bafaa-e113-4706-9380-2b879dd0ffef" cx="771" cy="978" rx="4" ry="3"/><circle class="499bafaa-e113-4706-9380-2b879dd0ffef" cx="811.5" cy="979.5" r="2.5"/><ellipse class="499bafaa-e113-4706-9380-2b879dd0ffef" cx="794.5" cy="977" rx="4.5" ry="4"/></g><g id="68775f3d-7060-4ab7-8170-85a259b16be3" data-name="badfish"><path class="f30378fb-05e6-4032-bc66-6f5d043a00b9" d="M745.36,391.6s2.47-11.32,6.78-12S715,360.46,701.56,386Z"/><path class="f30378fb-05e6-4032-bc66-6f5d043a00b9" d="M730.28,455s.51,8.36,2.88,8.91-22.38,13.89-28-5Z"/><path class="917c35e6-0cc1-4a0d-ad82-2ab9e469653e" d="M646.38,442.72c4.8,9.28,20.93,29.49,68.54,21.6,0,0,43.09-11.57,70.16-55.17,0,0-50.83-30.67-89.25-22.09-32.44,7.24-46.65,38.83-50.28,48.48a6,6,0,0,0-.29,1s-.07.32-.13.83a.07.07,0,0,0,0,.05C645,438.73,645,441.13,646.38,442.72Z"/><path class="917c35e6-0cc1-4a0d-ad82-2ab9e469653e" d="M645.13,437.44h0a.07.07,0,0,1,0-.05A.11.11,0,0,0,645.13,437.44Z"/><polygon class="f30378fb-05e6-4032-bc66-6f5d043a00b9" points="779.42 405.92 780.95 415.12 798.52 427.72 791.41 384.86 779.42 405.92"/><path class="03296ce0-250a-478b-a1f4-4874199f0e8a" d="M670.35,427.71l11.76-1.95,3.4-.56a2.4,2.4,0,0,0,2-2.75l-1.34-8.09a2.4,2.4,0,0,0-2.75-2l-3.2.53-12,2a2.4,2.4,0,0,0-2,2.75l1.34,8.09A2.4,2.4,0,0,0,670.35,427.71Z"/><polyline class="7581ad12-7d5c-4039-afc2-599333ed0855" points="676.78 413.48 680.03 417.22 680.83 422.04 678.22 426.4"/><polyline class="7581ad12-7d5c-4039-afc2-599333ed0855" points="674.82 413.8 672.95 418.39 673.75 423.22 677.63 426.5"/><line class="7581ad12-7d5c-4039-afc2-599333ed0855" x1="672.95" y1="418.39" x2="666.55" y2="419.46"/><line class="7581ad12-7d5c-4039-afc2-599333ed0855" x1="673.75" y1="423.22" x2="667.35" y2="424.28"/><line class="7581ad12-7d5c-4039-afc2-599333ed0855" x1="686.43" y1="416.16" x2="680.03" y2="417.22"/><line class="7581ad12-7d5c-4039-afc2-599333ed0855" x1="687.23" y1="420.98" x2="680.83" y2="422.04"/><rect class="7a1fa6e8-8f24-47a8-8577-af5033c262da" x="679.45" y="433.88" width="18.65" height="5.49" transform="matrix(-0.99, 0.16, -0.16, -0.99, 1439.69, 754.7)"/><rect class="7a1fa6e8-8f24-47a8-8577-af5033c262da" x="700.92" y="430.32" width="18.65" height="5.49" transform="translate(1481.76 744.11) rotate(170.59)"/><rect class="7a1fa6e8-8f24-47a8-8577-af5033c262da" x="722.39" y="426.76" width="18.65" height="5.49" transform="translate(1523.83 733.53) rotate(170.59)"/><rect class="7a1fa6e8-8f24-47a8-8577-af5033c262da" x="743.86" y="423.2" width="18.65" height="5.49" transform="translate(1565.9 722.95) rotate(170.59)"/><path class="d30514a3-0187-4bb2-b68f-5bef64b92f23" d="M694,412.26c1.18.44,2.27,2.19,2.56,4s-.35,4.2-1.49,4.92"/><path class="d30514a3-0187-4bb2-b68f-5bef64b92f23" d="M695.68,410.12c1.77.65,3.4,3.29,3.84,5.93.47,2.81-.53,6.3-2.23,7.38"/><path class="d30514a3-0187-4bb2-b68f-5bef64b92f23" d="M697.65,408c2.13.85,4.11,4.2,4.67,7.55.59,3.55-.56,8-2.59,9.31"/><path class="7a1fa6e8-8f24-47a8-8577-af5033c262da" d="M696.46,456.63l-.58.1-1,.16a.12.12,0,0,1-.16-.09c-.09-.26-.2-.53-.29-.79,0-.1-.08-.13-.19-.11l-2.07.31a.18.18,0,0,0-.18.18q-.08.43-.17.86s-.06.12-.1.12l-1.78.27h0l.11-.47q.8-3.19,1.59-6.37a.91.91,0,0,1,.47-.68,1.15,1.15,0,0,1,.3-.09l1.37-.21c.11,0,.16,0,.2.11L696,455.5l.39,1,0,.05Zm-2.61-2.16-.94-2.53h0l-.55,2.75Z"/><path class="7a1fa6e8-8f24-47a8-8577-af5033c262da" d="M672.72,453.14c0-.12.08-.14.19-.16l2.92-.44a.84.84,0,0,1,1,.58c.45,1.25.88,2.51,1.33,3.77l.07.2c0-.07,0-.1,0-.14q.55-2.41,1.1-4.82a.17.17,0,0,1,.16-.15l1.64-.25h.14l0,.15-1.73,6.9c0,.16,0,.36-.15.45s-.3.07-.45.09l-1.3.2a.16.16,0,0,1-.21-.12c-.75-1.76-1.51-3.52-2.25-5.28a1,1,0,0,0-.69-.62,8.45,8.45,0,0,0-1.75-.27Z"/><path class="7a1fa6e8-8f24-47a8-8577-af5033c262da" d="M684.72,458.16l.09-1.6.21.06a3.53,3.53,0,0,0,1.9.06,1.72,1.72,0,0,0,.58-.27.54.54,0,0,0,0-1,6.42,6.42,0,0,0-.72-.31,10.08,10.08,0,0,1-1.07-.47,1.86,1.86,0,0,1-.53-2.74,3.08,3.08,0,0,1,1.63-1.13,4.79,4.79,0,0,1,2.41-.15l.11,0-.09,1.5c-.36,0-.71-.09-1.06-.1a2.05,2.05,0,0,0-1,.2,1.12,1.12,0,0,0-.34.27.41.41,0,0,0,.09.64,3.91,3.91,0,0,0,.64.31c.33.13.67.23,1,.38a2,2,0,0,1,.71,3.17,3.05,3.05,0,0,1-1.43.94,5.72,5.72,0,0,1-2.84.2Z"/><path class="7a1fa6e8-8f24-47a8-8577-af5033c262da" d="M681.67,458.9c0-.58.07-1.13.1-1.68q.16-2.73.32-5.46c0-.14.05-.19.19-.21l1.46-.22.19,0c0,.29,0,.56,0,.84q-.19,3.14-.37,6.29c0,.14,0,.2-.2.22-.49.06-1,.15-1.47.22Z"/><path class="7a1fa6e8-8f24-47a8-8577-af5033c262da" d="M670,439.58c1.62-2.2,3.32-4.82,3-5.76,0,0-5.9,6-23.47,10.51,0,0,3.91,3.49,13.51.35A14.26,14.26,0,0,0,670,439.58Z"/><polyline class="ddddb29a-0b36-49c1-94fb-5f0c47ae86ad" points="666.28 441.14 665.14 440.44 663.05 443.84 661.03 442.6 658.67 443.63 657.53 442.93"/><path class="b92152e4-c26e-4fb1-a125-1269d34fb195" d="M674.66,436.83s2.07-3.89-1.22-6.25"/><path class="f30378fb-05e6-4032-bc66-6f5d043a00b9" d="M554.63,763.27s3.3-6.41,6-6.15-19.25-17.43-31.44-4.22Z"/><path class="f30378fb-05e6-4032-bc66-6f5d043a00b9" d="M535.42,798.94s-1,5.11.31,5.82-15.68,4.77-16-7.51Z"/><path class="917c35e6-0cc1-4a0d-ad82-2ab9e469653e" d="M486.94,778.15c1.4,6.35,7.86,21.08,37.74,24,0,0,27.75-.06,51-21.93,0,0-25.64-26.58-50.11-27.57-20.66-.84-34.26,15.87-38,21.09a3.72,3.72,0,0,0-.34.57s-.09.18-.21.48a0,0,0,0,0,0,0A4.34,4.34,0,0,0,486.94,778.15Z"/><path class="917c35e6-0cc1-4a0d-ad82-2ab9e469653e" d="M487,774.77h0a0,0,0,0,1,0,0S487,774.76,487,774.77Z"/><polygon class="f30378fb-05e6-4032-bc66-6f5d043a00b9" points="572.81 777.33 572.25 783.11 580.8 793.5 583.39 766.59 572.81 777.33"/><path class="03296ce0-250a-478b-a1f4-4874199f0e8a" d="M503.75,773l7.38.71,2.13.21a1.49,1.49,0,0,0,1.62-1.34l.49-5.08a1.49,1.49,0,0,0-1.34-1.62l-2-.19-7.5-.72a1.49,1.49,0,0,0-1.62,1.34l-.49,5.08A1.49,1.49,0,0,0,503.75,773Z"/><polyline class="7581ad12-7d5c-4039-afc2-599333ed0855" points="509.9 765.44 511.26 768.21 510.96 771.23 508.7 773.44"/><polyline class="7581ad12-7d5c-4039-afc2-599333ed0855" points="508.67 765.32 506.81 767.78 506.52 770.81 508.32 773.4"/><line class="7581ad12-7d5c-4039-afc2-599333ed0855" x1="506.81" y1="767.78" x2="502.8" y2="767.39"/><line class="7581ad12-7d5c-4039-afc2-599333ed0855" x1="506.52" y1="770.81" x2="502.5" y2="770.42"/><line class="7581ad12-7d5c-4039-afc2-599333ed0855" x1="515.27" y1="768.6" x2="511.26" y2="768.21"/><line class="7581ad12-7d5c-4039-afc2-599333ed0855" x1="514.98" y1="771.62" x2="510.97" y2="771.23"/><rect class="7a1fa6e8-8f24-47a8-8577-af5033c262da" x="507.6" y="779.57" width="11.61" height="3.41" transform="translate(949.51 1608.18) rotate(-174.5)"/><rect class="7a1fa6e8-8f24-47a8-8577-af5033c262da" x="521.08" y="780.86" width="11.61" height="3.41" transform="translate(976.28 1612.06) rotate(-174.5)"/><rect class="7a1fa6e8-8f24-47a8-8577-af5033c262da" x="534.55" y="782.16" width="11.61" height="3.41" transform="matrix(-1, -0.1, 0.1, -1, 1003.05, 1615.95)"/><rect class="7a1fa6e8-8f24-47a8-8577-af5033c262da" x="548.03" y="783.46" width="11.61" height="3.41" transform="translate(1029.81 1619.83) rotate(-174.5)"/><path class="4803a884-97dd-4d92-90e8-738eecffa924" d="M520.46,767.47a3.28,3.28,0,0,1,.91,2.79,3.37,3.37,0,0,1-1.68,2.72"/><path class="4803a884-97dd-4d92-90e8-738eecffa924" d="M521.8,766.44c1,.68,1.52,2.52,1.36,4.18s-1.33,3.7-2.52,4.08"/><path class="4803a884-97dd-4d92-90e8-738eecffa924" d="M523.32,765.49c1.14.85,1.8,3.18,1.6,5.29s-1.61,4.69-3,5.18"/><path class="7a1fa6e8-8f24-47a8-8577-af5033c262da" d="M514.82,794.53l-.36,0-.63-.07c-.06,0-.08,0-.08-.08s0-.35,0-.52,0-.09-.1-.1l-1.29-.14a.11.11,0,0,0-.13.08l-.24.49s-.06.06-.08.06l-1.12-.12h0l.14-.26,2-3.58a.57.57,0,0,1,.39-.33.71.71,0,0,1,.19,0l.86.09c.07,0,.09,0,.1.1q.18,1.84.36,3.69l.07.69,0,0Zm-1.22-1.72-.16-1.67h0l-.77,1.57Z"/><path class="7a1fa6e8-8f24-47a8-8577-af5033c262da" d="M501.11,788.63c0-.07.07-.07.14-.06l1.83.2a.52.52,0,0,1,.5.5c.07.83.13,1.65.19,2.48v.13l.05-.08,1.43-2.72a.1.1,0,0,1,.12-.07l1,.11h.08l0,.09-2.14,3.87c0,.09-.08.21-.16.25s-.19,0-.29,0l-.82-.09c-.07,0-.1,0-.11-.11-.17-1.18-.34-2.36-.51-3.54a.61.61,0,0,0-.31-.48,5.25,5.25,0,0,0-1-.44Z"/><path class="7a1fa6e8-8f24-47a8-8577-af5033c262da" d="M507.51,793.57l.31-.95.12.07a2.19,2.19,0,0,0,1.13.34,1.07,1.07,0,0,0,.39-.07.34.34,0,0,0,.13-.59,4,4,0,0,0-.38-.3,6.27,6.27,0,0,1-.57-.45,1.15,1.15,0,0,1,.12-1.73,1.91,1.91,0,0,1,1.16-.42,3,3,0,0,1,1.47.3l.06,0-.29.89c-.21-.08-.41-.17-.62-.23a1.28,1.28,0,0,0-.66,0,.7.7,0,0,0-.25.11.25.25,0,0,0,0,.4,2.43,2.43,0,0,0,.34.29c.17.13.36.25.53.39a1.25,1.25,0,0,1-.08,2,1.9,1.9,0,0,1-1,.34,3.56,3.56,0,0,1-1.74-.33Z"/><path class="7a1fa6e8-8f24-47a8-8577-af5033c262da" d="M505.56,793.52l.33-1L507,789.3c0-.08.06-.11.15-.1l.91.1h.12l-.16.5-1.23,3.72c0,.08-.06.12-.15.1l-.92-.1Z"/><path class="7a1fa6e8-8f24-47a8-8577-af5033c262da" d="M499.62,778.63c1.26-1,2.62-2.24,2.55-2.83,0,0-4.27,2.55-14.95,2.42,0,0,1.69,2.58,7.63,2.25A8.4,8.4,0,0,0,499.62,778.63Z"/><polyline class="ddddb29a-0b36-49c1-94fb-5f0c47ae86ad" points="497.27 778.95 496.73 778.38 495.02 780 494.06 778.99 492.56 779.22 492.02 778.65"/><path class="b92152e4-c26e-4fb1-a125-1269d34fb195" d="M502.7,777.77s1.77-1.9.25-3.74"/></g><g id="b361ffb8-04e6-4843-904b-f31e75718fbc" data-name="fishing girl"><path class="75a00bb6-b0c2-4ca9-ac58-2ec4d46bf371" d="M863.48,343.82a2.34,2.34,0,0,0-3.14-1.48c-2.28.95.74,3.59.74,3.59"/><path class="3489b65e-20c8-4c9d-965f-b8a8ef14a72d" d="M862.9,344.36s-4.13,4-7.1.77"/><path class="f671ef4e-c68b-4e8f-9c3e-41b86f8b63e6" d="M872.21,342.61s-38.69,7.31-21.47,19.48L885,370.7s7.38-7.31,2.07-24.35Z"/><path class="b64ddf9f-321b-4bae-b21a-775ad5375d55" d="M846.42,355.11s-1,3.59,4.44,7.13l34.5,9.1s1.88-1.64,2.87-7C888.69,364,846.42,355.11,846.42,355.11Z"/><path class="3489b65e-20c8-4c9d-965f-b8a8ef14a72d" d="M863.3,343.66s7.64-3.21,7.18,1.44S863.3,343.66,863.3,343.66Z"/><path class="75a00bb6-b0c2-4ca9-ac58-2ec4d46bf371" d="M865,351s-2.8-5-1.49-7.18"/><path class="75a00bb6-b0c2-4ca9-ac58-2ec4d46bf371" d="M929.06,381.31a2.34,2.34,0,0,0-3.47,0c-1.68,1.81,2.17,3,2.17,3"/><path class="3489b65e-20c8-4c9d-965f-b8a8ef14a72d" d="M928.46,381.51s-2.39,4.52-6.24,3.38"/><path class="f671ef4e-c68b-4e8f-9c3e-41b86f8b63e6" d="M937.76,378s-35.86,16.26-16.25,24l35.36.24s5.43-8.85-3.75-24.15Z"/><path class="b64ddf9f-321b-4bae-b21a-775ad5375d55" d="M915.65,396.25s-.13,3.72,6,5.88l35.67.67s1.44-2,1.13-7.47C958.84,394.92,915.65,396.25,915.65,396.25Z"/><path class="3489b65e-20c8-4c9d-965f-b8a8ef14a72d" d="M928.83,382.33s5.61-6.09,7.13-1.68S928.83,382.33,928.83,382.33Z"/><path class="75a00bb6-b0c2-4ca9-ac58-2ec4d46bf371" d="M933.4,387.22s-4.61-3.35-4.34-5.91"/><path class="127d8ebb-5c7e-4679-8f56-bd0f129c3a5c" d="M938.83,278.28a62.46,62.46,0,0,0-14.23,14.17C928.1,284.14,932.73,278.61,938.83,278.28Z"/><path class="127d8ebb-5c7e-4679-8f56-bd0f129c3a5c" d="M996.19,279.69a27,27,0,0,1-4,9.06,10.54,10.54,0,0,1-.68.88A31.55,31.55,0,0,0,996.19,279.69Z"/><path class="8b04abac-afb8-40c8-b1c1-91e492615866" d="M889.61,170.65s-27.9,8.69-10.24,23.28L890.93,184Z"/><polygon class="3f9e842e-870f-4c03-ad3d-8f5daa47f86a" points="890.55 182.77 735 117.91 878.94 187.09 890.55 182.77"/><polygon class="3258e143-944f-4dd7-84f8-2a08d3d052c0" points="927.26 147.41 886.13 170.66 890.35 199.06 927.26 178.69 927.26 147.41"/><path class="abe70807-01e2-48f9-9853-ff929678cc9f" d="M956.44,118.72c7.12,2.55,10.36,18.68,10.36,18.68l-20.46,1.06c2.37-3.39-1.72-11.68-1.72-11.68l-2.32-6.12,10.26-7.72Z"/><path class="766440fb-100a-41f4-ad45-828a051c81b7" d="M945.93,133.35s-28.15,13-29.15,28.26,0,93.94,0,93.94h77.11V174.71s-1-37.14-25-42.6Z"/><circle class="abe70807-01e2-48f9-9853-ff929678cc9f" cx="882.19" cy="191.3" r="10.46"/><path class="1e9cf8af-73db-4e06-b5fb-13e68467f69d" d="M736,117.91l10.73,196.15v5.51s-6.88,5.51-.58,8.82c0,0,10.5.41,11.76-6.2"/><path class="abe70807-01e2-48f9-9853-ff929678cc9f" d="M929.35,192.69s-34.62-4.18-44.38-8.36l-2.79,15.34s42.75,11.15,50.65,5.58"/><path class="01279e90-de32-4372-ac4c-d6295bdba79c" d="M942.15,44.07s.42-26,30-15.62S953.4,109.83,1009,104.16c0,0-22.76,35.48-49.23,10.38C959.8,114.54,984.09,89.84,942.15,44.07Z"/><path class="abe70807-01e2-48f9-9853-ff929678cc9f" d="M972,85.48c.65,26.84-18.39,49.17-42.51,49.89s-44.2-20.46-44.85-47.29,18.39-49.17,42.51-49.89S971.38,58.64,972,85.48Z"/><path class="01279e90-de32-4372-ac4c-d6295bdba79c" d="M873.62,83.16s39.39,12.89,63.33-11c0,0,10.4,47.37,31.58,45.64S982.59,52,944.61,38.11,876.9,38.92,873.62,83.16Z"/><path class="7c6ecfd9-b320-46f9-a6f6-521c94c07a95" d="M943.37,37.67s12.4,1.64,14.8,8.44"/><path class="3258e143-944f-4dd7-84f8-2a08d3d052c0" d="M957.58,161.23l-34.85,25.09,7,25.09s41.82-2.79,44.61-25.09"/><path class="127d8ebb-5c7e-4679-8f56-bd0f129c3a5c" d="M996.65,277.44c-.12.74-.27,1.5-.46,2.25a31.55,31.55,0,0,1-4.7,9.94,34.41,34.41,0,0,1-19.46,13l-.2-.1A34,34,0,0,0,961.12,326v53h-47.4s-.82-58.79,10.88-86.54a62.46,62.46,0,0,1,14.23-14.17c-6.11.33-10.74,5.86-14.23,14.17a70.64,70.64,0,0,0-5.6,8.74l-20.75,49.28-48.8-14.4c21.45-60.57,68.95-81.45,68.95-81.45l74.78-1.1S998.66,265.18,996.65,277.44Z"/><path class="127d8ebb-5c7e-4679-8f56-bd0f129c3a5c" d="M996.75,277.4q-.25,1.18-.56,2.29c.19-.75.34-1.51.46-2.25Z"/><path class="7045e54a-2d61-418f-94af-a79c3de5c46d" d="M737.61,335.3c2.62,2,7.17,5.94,8.38,10.43a2,2,0,0,0,3.35.82c6.12-6.94,18.58-20.34,25.3-22.57a1.94,1.94,0,0,0,1-3c-3.18-4.45-9.61-12.1-14.46-9a1.92,1.92,0,0,0-.55.54c-1.18,1.71-7,9.91-11.51,11.41-3.61,1.2-8.94,5.86-11.66,8.39A2,2,0,0,0,737.61,335.3Z"/><ellipse class="94aa91e2-9e41-473a-9b2a-ebcc4f0d705c" cx="756.2" cy="328.7" rx="5.15" ry="6.62" transform="translate(7.21 673.52) rotate(-48.21)"/><path class="1e9cf8af-73db-4e06-b5fb-13e68467f69d" d="M752.48,328.74s4.37,0,4.37-6.55"/></g><g id="d2288faa-9dad-472a-b7b5-aad39b5381fb" data-name="star"><path class="296c50f3-3d73-404e-80e1-3d78a4ccee9c" d="M420.07,904.55l-11.89-2.48a6.18,6.18,0,0,0-5.53,1.58L393.86,912a6.18,6.18,0,0,1-10.41-3.8l-1.32-12.08a6.18,6.18,0,0,0-3.21-4.77l-10.7-5.76a6.18,6.18,0,0,1,.4-11.08l11.08-5a6.18,6.18,0,0,0,3.55-4.53l2.18-12a6.18,6.18,0,0,1,10.66-3l8.16,9a6.18,6.18,0,0,0,5.4,2l12-1.62a6.18,6.18,0,0,1,6.19,9.2l-6,10.55a6.18,6.18,0,0,0-.21,5.75l5.27,10.95A6.18,6.18,0,0,1,420.07,904.55Z"/><circle class="7a1fa6e8-8f24-47a8-8577-af5033c262da" cx="396.49" cy="871.84" r="1.79"/><circle class="7a1fa6e8-8f24-47a8-8577-af5033c262da" cx="395.29" cy="867.07" r="1.79"/><circle class="7a1fa6e8-8f24-47a8-8577-af5033c262da" cx="394.1" cy="862.29" r="1.79"/><circle class="7a1fa6e8-8f24-47a8-8577-af5033c262da" cx="392.46" cy="857.37" r="1.79"/><circle class="7a1fa6e8-8f24-47a8-8577-af5033c262da" cx="406.18" cy="876.84" r="1.79" transform="translate(-236.79 155.44) rotate(-16.85)"/><circle class="7a1fa6e8-8f24-47a8-8577-af5033c262da" cx="410.4" cy="874.31" r="1.79" transform="translate(-235.87 156.55) rotate(-16.85)"/><circle class="7a1fa6e8-8f24-47a8-8577-af5033c262da" cx="414.63" cy="871.78" r="1.79" transform="translate(-234.96 157.67) rotate(-16.85)"/><circle class="7a1fa6e8-8f24-47a8-8577-af5033c262da" cx="418.86" cy="868.79" r="1.79" transform="translate(-233.91 158.77) rotate(-16.85)"/><circle class="7a1fa6e8-8f24-47a8-8577-af5033c262da" cx="375.48" cy="880.89" r="1.79" transform="translate(-575.82 990.34) rotate(-73.48)"/><circle class="7a1fa6e8-8f24-47a8-8577-af5033c262da" cx="380.39" cy="881.1" r="1.79" transform="translate(-572.51 995.21) rotate(-73.48)"/><circle class="7a1fa6e8-8f24-47a8-8577-af5033c262da" cx="385.31" cy="881.31" r="1.79" transform="translate(-569.19 1000.07) rotate(-73.48)"/><circle class="7a1fa6e8-8f24-47a8-8577-af5033c262da" cx="390.5" cy="881.14" r="1.79" transform="translate(-565.32 1004.92) rotate(-73.48)"/><circle class="7a1fa6e8-8f24-47a8-8577-af5033c262da" cx="390.2" cy="902.82" r="1.79" transform="translate(-569.4 687.2) rotate(-53.96)"/><circle class="7a1fa6e8-8f24-47a8-8577-af5033c262da" cx="392.05" cy="898.25" r="1.79" transform="matrix(0.59, -0.81, 0.81, 0.59, -564.96, 686.81)"/><circle class="7a1fa6e8-8f24-47a8-8577-af5033c262da" cx="393.89" cy="893.69" r="1.79" transform="translate(-560.51 686.43) rotate(-53.96)"/><circle class="7a1fa6e8-8f24-47a8-8577-af5033c262da" cx="395.46" cy="888.75" r="1.79" transform="translate(-555.86 685.66) rotate(-53.96)"/><circle class="7a1fa6e8-8f24-47a8-8577-af5033c262da" cx="406.56" cy="886.29" r="1.79" transform="matrix(0.8, -0.6, 0.6, 0.8, -451.66, 423.4)"/><circle class="7a1fa6e8-8f24-47a8-8577-af5033c262da" cx="410.38" cy="889.39" r="1.79" transform="translate(-452.75 426.33) rotate(-37.02)"/><circle class="7a1fa6e8-8f24-47a8-8577-af5033c262da" cx="414.21" cy="892.48" r="1.79" transform="matrix(0.8, -0.6, 0.6, 0.8, -453.84, 429.25)"/><circle class="7a1fa6e8-8f24-47a8-8577-af5033c262da" cx="418.48" cy="895.42" r="1.79" transform="translate(-454.75 432.42) rotate(-37.02)"/><circle class="7a1fa6e8-8f24-47a8-8577-af5033c262da" cx="398.87" cy="880.19" r="3.28"/><path class="c8cd6ba2-2c50-446f-8204-d8ec0bdfc34c" d="M512.48,965.77l-5.38-8.22a5,5,0,0,0-4.07-2.26l-9.83-.23a5,5,0,0,1-3.78-8.13l6.16-7.66a5,5,0,0,0,.89-4.57l-2.82-9.41a5,5,0,0,1,6.56-6.11l9.19,3.49a5,5,0,0,0,4.62-.56l8.08-5.59a5,5,0,0,1,7.84,4.35l-.48,9.82a5,5,0,0,0,2,4.22l7.82,6a5,5,0,0,1-1.72,8.8L528,952.24a5,5,0,0,0-3.41,3.17l-3.25,9.28A5,5,0,0,1,512.48,965.77Z"/><circle class="7a1fa6e8-8f24-47a8-8577-af5033c262da" cx="517.69" cy="933.58" r="1.45" transform="translate(-508.51 639.5) rotate(-45)"/><circle class="7a1fa6e8-8f24-47a8-8577-af5033c262da" cx="519.74" cy="930.16" r="1.45" transform="translate(-505.49 639.95) rotate(-45)"/><circle class="7a1fa6e8-8f24-47a8-8577-af5033c262da" cx="521.79" cy="926.75" r="1.45" transform="translate(-502.48 640.4) rotate(-45)"/><circle class="7a1fa6e8-8f24-47a8-8577-af5033c262da" cx="523.67" cy="922.99" r="1.45" transform="translate(-499.28 640.63) rotate(-45)"/><circle class="7a1fa6e8-8f24-47a8-8577-af5033c262da" cx="520.38" cy="941.98" r="1.45" transform="translate(-555.68 956.49) rotate(-61.85)"/><circle class="7a1fa6e8-8f24-47a8-8577-af5033c262da" cx="524.24" cy="942.95" r="1.45" transform="matrix(0.47, -0.88, 0.88, 0.47, -554.5, 960.4)"/><circle class="7a1fa6e8-8f24-47a8-8577-af5033c262da" cx="528.1" cy="943.92" r="1.45" transform="translate(-553.31 964.32) rotate(-61.85)"/><circle class="7a1fa6e8-8f24-47a8-8577-af5033c262da" cx="532.24" cy="944.63" r="1.45" transform="translate(-551.75 968.34) rotate(-61.85)"/><circle class="7a1fa6e8-8f24-47a8-8577-af5033c262da" cx="500.5" cy="926.73" r="1.45" transform="translate(-381.32 350.77) rotate(-28.48)"/><circle class="7a1fa6e8-8f24-47a8-8577-af5033c262da" cx="503.19" cy="929.67" r="1.45" transform="translate(-382.39 352.41) rotate(-28.48)"/><circle class="7a1fa6e8-8f24-47a8-8577-af5033c262da" cx="505.88" cy="932.6" r="1.45" transform="translate(-383.47 354.05) rotate(-28.48)"/><circle class="7a1fa6e8-8f24-47a8-8577-af5033c262da" cx="508.95" cy="935.47" r="1.45" transform="translate(-384.46 355.86) rotate(-28.48)"/><circle class="7a1fa6e8-8f24-47a8-8577-af5033c262da" cx="496.38" cy="947.7" r="1.45" transform="translate(-141.57 88.9) rotate(-8.96)"/><circle class="7a1fa6e8-8f24-47a8-8577-af5033c262da" cx="500.05" cy="946.14" r="1.45" transform="matrix(0.99, -0.16, 0.16, 0.99, -141.29, 89.45)"/><circle class="7a1fa6e8-8f24-47a8-8577-af5033c262da" cx="503.71" cy="944.59" r="1.45" transform="translate(-141 90) rotate(-8.96)"/><circle class="7a1fa6e8-8f24-47a8-8577-af5033c262da" cx="507.44" cy="942.66" r="1.45" transform="translate(-140.65 90.56) rotate(-8.96)"/><circle class="7a1fa6e8-8f24-47a8-8577-af5033c262da" cx="515.19" cy="947.6" r="1.45" transform="translate(-494.78 1326.2) rotate(-82.02)"/><circle class="7a1fa6e8-8f24-47a8-8577-af5033c262da" cx="515.61" cy="951.56" r="1.45" transform="translate(-498.34 1330.03) rotate(-82.02)"/><circle class="7a1fa6e8-8f24-47a8-8577-af5033c262da" cx="516.03" cy="955.52" r="1.45" transform="translate(-501.9 1333.85) rotate(-82.02)"/><circle class="7a1fa6e8-8f24-47a8-8577-af5033c262da" cx="516.79" cy="959.65" r="1.45" transform="translate(-505.33 1338.16) rotate(-82.02)"/><circle class="7a1fa6e8-8f24-47a8-8577-af5033c262da" cx="514.28" cy="939.72" r="2.65" transform="translate(-513.85 638.89) rotate(-45)"/></g></svg>