<svg xmlns="http://www.w3.org/2000/svg" width="472" height="207.02" viewBox="0 0 472 207.02">
  <g id="KKday_Logo" transform="translate(-11.8 -8.4)">
    <path id="Path_404" data-name="Path 404" d="M59.357,95.094c0-1.635,0-8.322.3-9.957v1.932L94.281,50.361H68.274L32.606,86.028V8.6H11.8V139.381H32.606V112.333l10.4-10.4c4.013,20.36,21.995,37.6,43.693,37.6a40.568,40.568,0,0,0,9.511-1.04V120.8a28.186,28.186,0,0,1-9.363,1.635C73.475,122.29,59.357,110.1,59.357,95.094Z" transform="translate(0 0.097)" fill="#26bec9"/>
    <path id="Path_405" data-name="Path 405" d="M226.474,41.1V8.7H207.9V58.783a44.477,44.477,0,1,0,18.874,36.411Zm-43.99,81.589a27.345,27.345,0,1,1,27.345-27.345A27.273,27.273,0,0,1,182.484,122.687Z" transform="translate(61.303 0.146)" fill="#26bec9"/>
    <circle id="Ellipse_36" data-name="Ellipse 36" cx="9.065" cy="9.065" r="9.065" transform="translate(234.573 86.274)" fill="#26bec9"/>
    <path id="Path_406" data-name="Path 406" d="M247.836,37.1a44.436,44.436,0,1,0,25.413,80.846v8.025h18.577V119.73l.446-38.343A44.43,44.43,0,0,0,247.836,37.1Zm0,72.375A27.345,27.345,0,1,1,275.181,82.13,27.273,27.273,0,0,1,247.836,109.475Z" transform="translate(93.146 13.952)" fill="#26bec9"/>
    <circle id="Ellipse_37" data-name="Ellipse 37" cx="9.065" cy="9.065" r="9.065" transform="translate(332.064 86.274)" fill="#26bec9"/>
    <path id="Path_407" data-name="Path 407" d="M164.383,119.415a26.664,26.664,0,0,1-12.781,3.121,27.273,27.273,0,0,1-27.345-27.345c0-2.972,0-6.539.3-9.66h0l34.924-35.222H133.619L97.506,86.571V8.4H76.7V139.181H97.506v-26.3l10.4-10.4c4.013,20.509,21.995,37.3,43.693,37.3a43.408,43.408,0,0,0,24.521-7.431l-10.4-13.673A6.023,6.023,0,0,1,164.383,119.415Z" transform="translate(31.551)" fill="#26bec9"/>
    <path id="Path_408" data-name="Path 408" d="M358.666,81.879v-.594h0V36.7H339.941s.892,45.179-1.338,54.244-12.632,18.428-24.67,18.428-22.292-9.363-24.67-17.982-1.338-54.69-1.338-54.69H269.2V81.284h0v.594a44.592,44.592,0,0,0,70.741,36.113c0,19.617-.3,42.95-1.486,48-2.229,9.065-12.632,18.428-24.67,18.428s-22.292-9.363-24.67-17.982a24.567,24.567,0,0,1-.743-4.756H269.349a44.632,44.632,0,0,0,89.02-4.607v-.594h0v-74.6Z" transform="translate(125.134 13.758)" fill="#26bec9"/>
  </g>
</svg>
