<svg xmlns="http://www.w3.org/2000/svg" width="850.774" height="310.588" viewBox="0 0 850.774 310.588">
  <g id="Group_18" data-name="Group 18" transform="translate(-535 -5659.133)">
    <g id="Group_17" data-name="Group 17">
      <g id="Group_16" data-name="Group 16" transform="translate(525.342 5558.317)">
        <g id="Group_15" data-name="Group 15" transform="translate(9.658 100.816)">
          <path id="Path_536" data-name="Path 536" d="M233.691,283.42l-54.518-99.279q-7.14-13.008-15.567-31.639l-.595.326q4.056,14.445,4.548,19.34l15.5,139.056-15.586,8.561L58.746,233.089q-4.132-3.292-14.371-15.111l-.595.326Q52.4,231.658,63.2,251.315l53.047,96.6L94.1,360.073,9.658,206.289l33.258-18.264,97.369,78.719q11.4,9.246,17.3,16.212l.693-.38q-1.547-7.287-4.061-23.872L140.905,134.215l31.968-17.556,84.446,153.784Z" transform="translate(-9.658 -66.553)" fill="#1f3f9b"/>
          <path id="Path_537" data-name="Path 537" d="M91.021,210.023Q84.337,169,103.181,139.936t57.861-35.425q36.552-5.958,62.693,15.029t32.411,59.442q6.656,40.808-11.816,69.746t-56.915,35.213q-36.671,5.977-63.389-14.687T91.021,210.023Zm27.86-6.49q4.663,28.616,22.322,44.729t42.588,12.056q26.163-4.265,37.825-24.242t6.778-49.932q-4.986-30.627-21.936-46.232t-42.876-11.373q-25.266,4.118-37.335,25.134T118.881,203.534Z" transform="translate(162.517 -95.674)" fill="#1f3f9b"/>
          <path id="Path_538" data-name="Path 538" d="M153.4,274.7l23.34-173.886,52.763,7.081q92.048,12.358,80.673,97.109-5.47,40.751-34.928,61.425T204.82,281.6Zm47.177-147.146L183.45,255.192l23.688,3.182q30.755,4.127,50.637-10.747t24.042-45.855q4.08-30.418-10.509-48.55t-46.368-22.395Z" transform="translate(301.217 -100.816)" fill="#1f3f9b"/>
          <path id="Path_539" data-name="Path 539" d="M296,312.8l-90.117-36.377,65.673-162.69,86.439,34.89-8.732,21.636-61.235-24.716-19.33,47.892,56.82,22.939-8.691,21.528L260,214.974l-20.184,49.992,64.91,26.2Z" transform="translate(414.705 -72.872)" fill="#1f3f9b"/>
          <path id="Path_540" data-name="Path 540" d="M320.521,333.539l-79.715-52.965L337.9,134.443l22.641,15.045-84.18,126.7,57.076,37.92Z" transform="translate(490.236 -28.092)" fill="#1f3f9b"/>
        </g>
      </g>
    </g>
    <g id="tap" transform="matrix(0.914, -0.407, 0.407, 0.914, 996.431, 5831.403)">
      <path id="Path_541" data-name="Path 541" d="M91.762,103.809c0-5.844,4.423-10.579,9.877-10.579h.22c5.445,0,9.864,4.716,9.877,10.55.046,19.085.017,20.958-.01,49.463-.015,16.006-12.132,28.969-27.073,28.969H52.576c-9.816,0-18.866-5.694-23.648-14.878L.328,112.386l2.988-2.478a14.211,14.211,0,0,1,20.876,1.565l8,9.744.046-67.034c0-5.841,4.427-10.574,9.878-10.574h0c5.456,0,9.878,4.739,9.878,10.583V94.762c.13-5.72,4.5-10.306,9.871-10.306H62.1c5.456,0,9.878,4.737,9.878,10.581v3.406c0-5.845,4.421-10.581,9.881-10.581h.023c5.454,0,9.877,4.736,9.877,10.581Zm0,0" transform="translate(60.401 -10.126)" fill="#f7caa5"/>
      <path id="Path_542" data-name="Path 542" d="M91.762,103.809c0-5.844,4.423-10.579,9.877-10.579h.22c5.445,0,9.864,4.716,9.877,10.55.046,19.085.017,20.958-.01,49.463-.015,16.006-12.132,28.969-27.073,28.969H52.576c-9.816,0-18.866-5.694-23.648-14.878L.328,112.386l2.988-2.478a14.211,14.211,0,0,1,20.876,1.565l8,9.744.046-67.034c0-5.841,4.427-10.574,9.878-10.574h0c5.456,0,9.878,4.739,9.878,10.583V94.762c.13-5.72,4.5-10.306,9.871-10.306H62.1c5.456,0,9.878,4.737,9.878,10.581v3.406c0-5.845,4.421-10.581,9.881-10.581h.023c5.454,0,9.877,4.736,9.877,10.581Zm0,0" transform="matrix(0.407, 0.914, -0.914, 0.407, -126.904, -135.177)" fill="#f7caa5"/>
    </g>
  </g>
</svg>
