<svg xmlns="http://www.w3.org/2000/svg" viewBox="0 0 1695 801.22"><defs><style>.\31 0b13d19-4c5e-4bba-9083-462531715fd6{fill:#e5af9a;}.ad57d9c4-5fe8-4aba-831e-a328ea82d6fe{fill:#83b692;}.\30 768f54e-023b-4409-ba5f-513ec173ae9c{fill:#cd90f4;}.\32 b5b2d9b-8748-4da7-a6a0-ef0ffe8905a7{fill:#eac478;}.\38 8afe96c-016c-452b-97f9-b5a17585db71{fill:#f9627d;}.\33 52c714a-135e-42e4-833f-d6e11570253f{fill:#01174f;}.\39 a20f6f8-54ea-45b6-8028-6f3359d57633{fill:#1f3f9b;}.\31 bb80333-65a3-468d-b077-518da9847870{fill:#4c6dca;}</style></defs><title>page5-02</title><g id="269859e0-6d14-4bcb-b95d-4e8ddd84a5e3" data-name="張"><ellipse class="10b13d19-4c5e-4bba-9083-462531715fd6" cx="315.74" cy="108.97" rx="82.01" ry="90.34"/><path d="M452.7,263.15S397,339.86,336.87,341.37c0,0-10.53-132.38,105.3-121.85,0,0,84.24-15,66.19,90.26C508.35,309.78,485.79,321.81,452.7,263.15Z" transform="translate(-108 -218.78)"/><path class="10b13d19-4c5e-4bba-9083-462531715fd6" d="M413.21,414a21,21,0,0,1,1.08,3.42c.83,3.65,1.14,9.3-3.71,12.17-7.52,4.46,34.6,0,34.6,0s-6.82-8.83-1.91-21.13-28.18,1.08-28.18,1.08" transform="translate(-108 -218.78)"/><path class="10b13d19-4c5e-4bba-9083-462531715fd6" d="M342.88,426.51s-16.07-20.76-22.46-44c-1.69-6.14-7.9-8.41-12.13-4.44h0a10.48,10.48,0,0,0-2.81,9.53c2.51,12.9,10.67,42.84,33.25,51.57" transform="translate(-108 -218.78)"/><ellipse class="10b13d19-4c5e-4bba-9083-462531715fd6" cx="558.56" cy="348.75" rx="4.11" ry="9.71" transform="translate(-183.14 -49.04) rotate(-16.21)"/><path class="10b13d19-4c5e-4bba-9083-462531715fd6" d="M522.7,413s16.07-20.76,22.46-44c1.69-6.14,7.9-8.41,12.13-4.44h0A10.48,10.48,0,0,1,560.1,374c-2.51,12.9-10.67,42.84-33.25,51.57" transform="translate(-108 -218.78)"/><path class="ad57d9c4-5fe8-4aba-831e-a328ea82d6fe" d="M410.11,428.15c-13.57,1.21-65.68-24-65.68-24l-26.32,34c2.65,16.61,59.4,35.9,59.4,35.9l-3,89.92H496.32l-7.39-93.5c24.1-1,56.53-39.39,56.53-39.39L513.2,392.78c-23.28,32.59-66.89,31.64-66.89,31.64" transform="translate(-108 -218.78)"/><ellipse class="10b13d19-4c5e-4bba-9083-462531715fd6" cx="308.52" cy="376.59" rx="11.51" ry="9.43" transform="translate(-243.85 -41.05) rotate(-26.57)"/><ellipse class="10b13d19-4c5e-4bba-9083-462531715fd6" cx="297.99" cy="366.8" rx="4.11" ry="9.71" transform="matrix(0.54, -0.84, 0.84, 0.54, -279.76, 199.78)"/><ellipse class="10b13d19-4c5e-4bba-9083-462531715fd6" cx="307.02" cy="362.29" rx="9.71" ry="4.11" transform="translate(-234.56 337.22) rotate(-73.79)"/><ellipse class="10b13d19-4c5e-4bba-9083-462531715fd6" cx="557.06" cy="363.05" rx="9.43" ry="11.51" transform="translate(-124.79 480.16) rotate(-63.43)"/><ellipse class="10b13d19-4c5e-4bba-9083-462531715fd6" cx="567.59" cy="353.27" rx="9.71" ry="4.11" transform="translate(-208.87 145.05) rotate(-32.8)"/><path class="10b13d19-4c5e-4bba-9083-462531715fd6" d="M346.33,345s-15.11,0-10.58,13.66,15.11,10.63,15.11,10.63Z" transform="translate(-108 -218.78)"/><path class="10b13d19-4c5e-4bba-9083-462531715fd6" d="M499.43,341.44s15.11,0,10.58,13.66-15.11,10.63-15.11,10.63Z" transform="translate(-108 -218.78)"/></g><g id="7834cdc0-d7b2-4f91-93f5-fb85c7c5bb44" data-name="李"><path class="10b13d19-4c5e-4bba-9083-462531715fd6" d="M886.2,351.83c1.71,5.91,5.11,10.11,7.6,9.39s3.12-6.11,1.41-12-5.11-10.11-7.6-9.39S884.49,345.92,886.2,351.83Z" transform="translate(-108 -218.78)"/><path class="10b13d19-4c5e-4bba-9083-462531715fd6" d="M849.74,424.23s18.36-23.83,25.66-50.54c1.93-7,9-9.65,13.86-5.1h0a12.06,12.06,0,0,1,3.21,10.94c-2.87,14.81-12.2,49.17-38,59.19" transform="translate(-108 -218.78)"/><path class="10b13d19-4c5e-4bba-9083-462531715fd6" d="M877.24,361c-2.66,5.35.45,12.32,6.94,15.59s13.91,1.57,16.57-3.77-.45-12.32-6.94-15.59S879.9,355.67,877.24,361Z" transform="translate(-108 -218.78)"/><path class="10b13d19-4c5e-4bba-9083-462531715fd6" d="M898.48,351.73c-5.15,3.33-8.18,7.81-6.78,10s6.72,1.26,11.86-2.07,8.18-7.81,6.78-10S903.63,348.39,898.48,351.73Z" transform="translate(-108 -218.78)"/><path class="10b13d19-4c5e-4bba-9083-462531715fd6" d="M608.27,347.27c-1.71,5.91-5.11,10.11-7.6,9.39s-3.12-6.11-1.41-12,5.11-10.11,7.6-9.39S610,341.36,608.27,347.27Z" transform="translate(-108 -218.78)"/><path class="10b13d19-4c5e-4bba-9083-462531715fd6" d="M644.74,419.67s-18.36-23.83-25.66-50.54c-1.93-7-9-9.65-13.86-5.1h0A12.06,12.06,0,0,0,602,375c2.87,14.81,12.2,49.17,38,59.19" transform="translate(-108 -218.78)"/><path class="10b13d19-4c5e-4bba-9083-462531715fd6" d="M617.23,356.46c2.66,5.35-.45,12.32-6.94,15.59s-13.91,1.57-16.57-3.77.45-12.32,6.94-15.59S614.57,351.12,617.23,356.46Z" transform="translate(-108 -218.78)"/><path class="10b13d19-4c5e-4bba-9083-462531715fd6" d="M596,347.17c5.15,3.33,8.18,7.81,6.78,10s-6.72,1.26-11.86-2.07-8.18-7.81-6.78-10S590.84,343.84,596,347.17Z" transform="translate(-108 -218.78)"/><path class="10b13d19-4c5e-4bba-9083-462531715fd6" d="M733.3,426.71a31.4,31.4,0,0,1,1.08,4.3c.83,4.6,1.14,11.7-3.71,15.31-7.52,5.61,34.6,0,34.6,0s-6.82-11.11-1.91-26.58-28.18,1.35-28.18,1.35" transform="translate(-108 -218.78)"/><path class="0768f54e-023b-4409-ba5f-513ec173ae9c" d="M698.68,428.38s31.54,17.23,54.05,10.52,51.95-17.43,51.95-17.43L844,397.17,869.66,439s-26.7,29.05-49.88,35.24A8.82,8.82,0,0,0,814.24,487c6,11.25,14.16,29.39,17.64,49.91,5.81,34.24-158.31,1.48-158.31,1.48l21.06-64.2s-75.53-6.85-87.15-47.94l34.86-30.82,56.34,33" transform="translate(-108 -218.78)"/><path d="M832.48,333.95s4.06,44.88,17.31,52.26a18.23,18.23,0,0,1,5.2,4.07c7.58,9,26.47,35.55,9.23,59.06,0,0-3.23-18.22-12.3-19.74s-7.8-26.87-11.88-28.85c-3.13-1.52-7,12.83,2.19,22.77,11.2,12.15,5.37,28.85,2.35,36.44,0,0-6-16.7-18.13-18.22s-9.07-33.4-9.07-33.4-9.07,34.92,4.53,42.51-13.6,30.37-13.6,30.37,6-19.74-7.56-24.29-27.81-23.87-27.81-23.87L759.7,339.14Z" transform="translate(-108 -218.78)"/><path d="M661.3,329.39s-4.06,44.88-17.31,52.26a18.23,18.23,0,0,0-5.2,4.07c-7.58,9-26.47,35.55-9.23,59.06,0,0,3.23-18.22,12.3-19.74s7.8-26.87,11.88-28.85c3.13-1.52,7,12.83-2.19,22.77-11.2,12.15-5.37,28.85-2.35,36.44,0,0,6-16.7,18.13-18.22s9.07-33.4,9.07-33.4,9.07,34.92-4.53,42.51,13.6,30.37,13.6,30.37-6-19.74,7.56-24.29,21.7-31.22,21.7-31.22l-9.61-100.87Z" transform="translate(-108 -218.78)"/><ellipse class="10b13d19-4c5e-4bba-9083-462531715fd6" cx="642.67" cy="123.52" rx="74.04" ry="90.34"/><path d="M691.35,278.75" transform="translate(-108 -218.78)"/><path d="M670.31,343.73s107.53,11.47,111.69-31c0,0,30.87,37.12,50.27,21.26,1.36-6.75,4.79-85-76.18-91.07s-94.56,86.47-94.56,86.47S660.83,341.37,670.31,343.73Z" transform="translate(-108 -218.78)"/><path class="10b13d19-4c5e-4bba-9083-462531715fd6" d="M679.65,358.24s-15.11,0-10.58,13.66,15.11,10.63,15.11,10.63Z" transform="translate(-108 -218.78)"/><path class="10b13d19-4c5e-4bba-9083-462531715fd6" d="M820.84,361.28s15.11,0,10.58,13.66-15.11,10.63-15.11,10.63Z" transform="translate(-108 -218.78)"/></g><g id="6d00cb71-15f5-473c-9843-2b69c6e5f48b" data-name="林"><path d="M999.15,322.11S963.4,477.27,984.56,486.34s60.84,10.2,60.84,10.2L1216,470.47s-45.61-138.92-50.58-172" transform="translate(-108 -218.78)"/><ellipse class="10b13d19-4c5e-4bba-9083-462531715fd6" cx="970.6" cy="126.37" rx="76.59" ry="81.29"/><path d="M1119.47,301.17s-41.09,62.58-126,55.13c0,0-23.85-107.27,83.47-114.72,0,0,99.86-22.35,89.43,98.33C1166.33,339.91,1155.25,377.15,1119.47,301.17Z" transform="translate(-108 -218.78)"/><path class="10b13d19-4c5e-4bba-9083-462531715fd6" d="M1151.51,350.69s15.11,0,10.58,13.66S1147,375,1147,375Z" transform="translate(-108 -218.78)"/><path class="10b13d19-4c5e-4bba-9083-462531715fd6" d="M1004.15,360.8s-14.54,4.11-6.47,16,17.43,6.12,17.43,6.12Z" transform="translate(-108 -218.78)"/><path class="10b13d19-4c5e-4bba-9083-462531715fd6" d="M1066.62,421.42a31.4,31.4,0,0,1,1.08,4.3c.83,4.6,1.14,11.7-3.71,15.31-7.52,5.61,34.6,0,34.6,0s-6.82-11.11-1.91-26.58-28.18,1.35-28.18,1.35" transform="translate(-108 -218.78)"/><path class="10b13d19-4c5e-4bba-9083-462531715fd6" d="M1230.1,337.28c1.71,5.91,5.11,10.11,7.6,9.39s3.12-6.11,1.41-12-5.11-10.11-7.6-9.39S1228.39,331.37,1230.1,337.28Z" transform="translate(-108 -218.78)"/><path class="10b13d19-4c5e-4bba-9083-462531715fd6" d="M1193.64,409.68s18.36-23.83,25.66-50.54c1.93-7,9-9.65,13.86-5.1h0a12.06,12.06,0,0,1,3.21,10.94c-2.87,14.81-12.2,49.17-38,59.19" transform="translate(-108 -218.78)"/><path class="10b13d19-4c5e-4bba-9083-462531715fd6" d="M1221.14,346.47c-2.66,5.35.45,12.32,6.94,15.59s13.91,1.57,16.57-3.77-.45-12.32-6.94-15.59S1223.8,341.12,1221.14,346.47Z" transform="translate(-108 -218.78)"/><path class="10b13d19-4c5e-4bba-9083-462531715fd6" d="M1242.38,337.18c-5.15,3.33-8.18,7.81-6.78,10s6.72,1.26,11.86-2.07,8.18-7.81,6.78-10S1247.53,333.84,1242.38,337.18Z" transform="translate(-108 -218.78)"/><path class="10b13d19-4c5e-4bba-9083-462531715fd6" d="M948.29,355.79c-1.71,5.91-5.11,10.11-7.6,9.39s-3.12-6.11-1.41-12,5.11-10.11,7.6-9.39S950,349.88,948.29,355.79Z" transform="translate(-108 -218.78)"/><path class="10b13d19-4c5e-4bba-9083-462531715fd6" d="M984.76,428.2s-18.36-23.83-25.66-50.54c-1.93-7-9-9.65-13.86-5.1h0A12.06,12.06,0,0,0,942,383.5c2.87,14.81,12.2,49.17,38,59.19" transform="translate(-108 -218.78)"/><path class="10b13d19-4c5e-4bba-9083-462531715fd6" d="M957.26,365c2.66,5.35-.45,12.32-6.94,15.59s-13.91,1.57-16.57-3.77.45-12.32,6.94-15.59S954.6,359.64,957.26,365Z" transform="translate(-108 -218.78)"/><path class="10b13d19-4c5e-4bba-9083-462531715fd6" d="M936,355.7c5.15,3.33,8.18,7.81,6.78,10s-6.72,1.26-11.86-2.07-8.18-7.81-6.78-10S930.87,352.36,936,355.7Z" transform="translate(-108 -218.78)"/><path class="2b5b2d9b-8748-4da7-a6a0-ef0ffe8905a7" d="M1036.37,430.87s30.76,15.23,52.72,9.3,50.67-15.41,50.67-15.41L1191,388.08l25.06,37s-34.33,36-56.94,41.48c-5.35,1.3-12.63,11.63-10,16.08,5.84,9.94,13.81,26,17.21,44.12,5.67,30.27-154.41,1.31-154.41,1.31l4-59.16s-57.14-3.65-68.48-40l34-27.24,54.95,29.17" transform="translate(-108 -218.78)"/></g><g id="32724400-ac83-468e-b547-dbb6bc292b46" data-name="王"><path d="M1504.76,267.44s49.7,71.82,28.52,109.17-50.4,20.46-50.4,20.46l-16.62-10.41C1465.77,386.84,1517.44,361.42,1504.76,267.44Z" transform="translate(-108 -218.78)"/><ellipse class="10b13d19-4c5e-4bba-9083-462531715fd6" cx="1330.37" cy="110.26" rx="72.62" ry="77.08"/><path d="M1509,305.41s-48.94-1.32-56.21-41.66c0,0,2.65,29.1-21.16,33.07s-48.94,7.94-47.62,48.94c0,0-1.32,50.26,25.13,62.17,0,0-63.49,7.94-64.81-76.72s41-100.52,41-100.52,123-39.68,134.91,62.17" transform="translate(-108 -218.78)"/><path class="10b13d19-4c5e-4bba-9083-462531715fd6" d="M1511.28,330.85s15.11,0,10.58,13.66-15.11,10.63-15.11,10.63Z" transform="translate(-108 -218.78)"/><path class="10b13d19-4c5e-4bba-9083-462531715fd6" d="M1368.34,335.64s-13.87,2.23-7.53,15.05,15.56,8.26,15.56,8.26Z" transform="translate(-108 -218.78)"/><path class="10b13d19-4c5e-4bba-9083-462531715fd6" d="M1430.35,398.84a43.12,43.12,0,0,1,1.08,5.12c.83,5.46,1.14,13.91-3.71,18.2-7.52,6.66,34.6,0,34.6,0s-6.82-13.21-1.91-31.59-28.18,1.61-28.18,1.61" transform="translate(-108 -218.78)"/><path class="10b13d19-4c5e-4bba-9083-462531715fd6" d="M1592.52,317.44c1.71,5.91,5.11,10.11,7.6,9.39s3.12-6.11,1.41-12-5.11-10.11-7.6-9.39S1590.81,311.53,1592.52,317.44Z" transform="translate(-108 -218.78)"/><path class="10b13d19-4c5e-4bba-9083-462531715fd6" d="M1556.05,389.84s18.36-23.83,25.66-50.54c1.93-7,9-9.65,13.86-5.1h0a12.06,12.06,0,0,1,3.21,10.94c-2.87,14.81-12.2,49.17-38,59.19" transform="translate(-108 -218.78)"/><path class="10b13d19-4c5e-4bba-9083-462531715fd6" d="M1583.55,326.63c-2.66,5.35.45,12.32,6.94,15.59s13.91,1.57,16.57-3.77-.45-12.32-6.94-15.59S1586.21,321.28,1583.55,326.63Z" transform="translate(-108 -218.78)"/><path class="10b13d19-4c5e-4bba-9083-462531715fd6" d="M1604.79,317.34c-5.15,3.33-8.18,7.81-6.78,10s6.72,1.26,11.86-2.07,8.18-7.81,6.78-10S1609.94,314,1604.79,317.34Z" transform="translate(-108 -218.78)"/><path class="10b13d19-4c5e-4bba-9083-462531715fd6" d="M1310.71,336c-1.71,5.91-5.11,10.11-7.6,9.39s-3.12-6.11-1.41-12,5.11-10.11,7.6-9.39S1312.41,330,1310.71,336Z" transform="translate(-108 -218.78)"/><path class="10b13d19-4c5e-4bba-9083-462531715fd6" d="M1347.17,408.35s-18.36-23.83-25.66-50.54c-1.93-7-9-9.65-13.86-5.1h0a12.06,12.06,0,0,0-3.21,10.94c2.87,14.81,12.2,49.17,38,59.19" transform="translate(-108 -218.78)"/><path class="10b13d19-4c5e-4bba-9083-462531715fd6" d="M1319.67,345.15c2.66,5.35-.45,12.32-6.94,15.59s-13.91,1.57-16.57-3.77.45-12.32,6.94-15.59S1317,339.8,1319.67,345.15Z" transform="translate(-108 -218.78)"/><path class="10b13d19-4c5e-4bba-9083-462531715fd6" d="M1298.43,335.85c5.15,3.33,8.18,7.81,6.78,10s-6.72,1.26-11.86-2.07-8.18-7.81-6.78-10S1293.28,332.52,1298.43,335.85Z" transform="translate(-108 -218.78)"/><path class="88afe96c-016c-452b-97f9-b5a17585db71" d="M1398.78,411s30.76,15.23,52.72,9.3,50.67-15.41,50.67-15.41l51.22-36.68,25.06,37s-34.33,36-56.94,41.48c-5.35,1.3-12.63,11.63-10,16.08,5.84,9.94,13.81,26,17.21,44.12,5.67,30.27-154.41,1.31-154.41,1.31l4-59.16s-57.14-3.65-68.48-40l34-27.24L1398.78,411" transform="translate(-108 -218.78)"/></g><g id="ba0140e9-6a92-4ce5-857a-9f6dd9584960" data-name="wave"><path class="352c714a-135e-42e4-833f-d6e11570253f" d="M1653,575.4c-.41-.32-.83-.62-1.26-.91-6.25-4.36-58.25-41.37-63.46-69.59a27.45,27.45,0,0,0-11.06-17.79c-12.06-8.38-36.22-19.09-82.13-21.17a29.06,29.06,0,0,0-15.65,3.83c-12.38,7-44,19-98,1.94-71.93-22.76-102.54-21.25-137.74,19.73s-154.58,3-154.58,3S995.35,469,922.07,522.39a27.74,27.74,0,0,1-3.39,2.13c-9,4.76-45.34,20.94-85.1-2.72-45.91-27.32-171.41-41-220.39-7.59-45,30.68-152,21.64-169.09,20a28.45,28.45,0,0,1-4.45-.8l-78.08-20.45c-.64-.17-1.27-.31-1.92-.43-14.83-2.79-186.89-32.69-213.25,79.12" transform="translate(-108 -218.78)"/><path class="9a20f6f8-54ea-45b6-8028-6f3359d57633" d="M1785.37,598.77c-.41-.3-.84-.59-1.26-.87-6.28-4.16-58.5-39.51-63.73-66.46a26.09,26.09,0,0,0-11.11-17c-12.11-8-36.38-18.24-82.48-20.22a30.39,30.39,0,0,0-15.72,3.66c-12.44,6.72-44.14,18.18-98.38,1.86-72.23-21.74-103-20.29-138.32,18.84s-155.23,2.9-155.23,2.9-94.2-24.36-167.8,26.66a28.12,28.12,0,0,1-3.41,2c-9.06,4.55-45.53,20-85.46-2.6-46.11-26.09-172.13-39.14-221.31-7.25C696,569.62,588.54,561,571.38,559.4a29.9,29.9,0,0,1-4.47-.76L488.49,539.1c-.64-.16-1.28-.3-1.92-.41-14.89-2.67-187.67-31.22-214.14,75.56" transform="translate(-108 -218.78)"/><path class="1bb80333-65a3-468d-b077-518da9847870" d="M1797.27,676.84c.19-.41,9.5-58,4-76.46-1.39-4.67-5.65-9-12.59-11.86-14-5.76-42.08-13.36-95.88-15.92a57.41,57.41,0,0,0-18.45,2.08c-14.68,4.25-52,11.22-115-1.31-83.88-16.69-119.82-16.5-162,9.2S1216,580.49,1216,580.49s-109.49-19-196.61,13.75c-1.29.48-2.62.92-4,1.29-10.68,2.86-53.64,12.42-99.76-4-53.26-19-200.18-31.14-258.35-10.72-53.45,18.76-178.77,10.07-198.78,8.53-1.76-.14-3.5-.35-5.21-.63l-91.15-15.35c-.74-.12-1.48-.24-2.24-.33-17.33-2.21-218.51-26.16-251.86,45.82,0,0-7,103.59,214.35,106.11,0,0,139.86,20.13,161.37,70.45,0,0,11.53,38.37,48.41,39.63s104.51-21.39,136.78-78c0,0,90.68-16.35,69.16,93.09,0,0,4.61,57.87,69.16,46.55,46.39-8.14,53.09-59.17,53.19-87.23.08-23.78,18.67-45.24,46.55-51.91,13-3.12,28.91-3.38,47.8,2,66.09,18.87,50.72,67.93,50.72,67.93S987.68,935,1095.94,962.69c22.75,5.83,42.3,18,54.42,34.82l1.12,1.54c24.45,33.47,86.19,25.14,96.19-13,9.1-34.69,22-63.57,45.56-92.58,21.85-26.94,58.06-43.93,97.53-45.4,26.27-1,57.07-5.38,77.26-18.84,28.75-19.17,63.7-30.86,100.39-35.26,30.64-3.67,62.81-13.12,81.44-35,13.07-15.35,32.59-26.12,55-29.95C1738.22,723.33,1782,709.64,1797.27,676.84Z" transform="translate(-108 -218.78)"/><path class="1bb80333-65a3-468d-b077-518da9847870" d="M1350.56,912.4s-10.76,22.64,10.76,27.68c0,0,16.91,3.77,9.22-12.58S1350.56,912.4,1350.56,912.4Z" transform="translate(-108 -218.78)"/><path class="1bb80333-65a3-468d-b077-518da9847870" d="M1452,902.33s6.15,22.64,32.27,23.9c0,0,6.15-16.35-10.76-22.64S1452,902.33,1452,902.33Z" transform="translate(-108 -218.78)"/></g></svg>