<svg id="6c2d5fef-86e8-4a34-ba13-06226952986d" data-name="圖層 2" xmlns="http://www.w3.org/2000/svg" viewBox="0 0 290.74 285.44"><defs><style>.\35 65fa95f-a80c-4bf4-ad99-8d44638ecba7{fill:#8dce82;}.\34 69ce59b-3ff0-4591-aa0c-a95d56c7fa04{fill:#9ee493;}.\31 639365d-c361-4b2b-acd0-948facea5677{fill:#737782;}.fe890895-22fb-49e7-8322-5fdfac80d25a{fill:#a5a8af;}</style></defs><title>watergrass</title><path class="565fa95f-a80c-4bf4-ad99-8d44638ecba7" d="M139.06,217s-2.61,26.88,7.08,25.21c0,0,11,3.18,2.2-31.89,0,0,.23-24.95,15.46-26.05,0,0,29-3,17-24.8,0,0-5.6-6.15-12.78,2.21,0,0-8.55,1.73,6.82-23.54,0,0,7-16.2-5.09-18.94,0,0-9.79,2.45-10.75,17.87,0,0-3,11.45-10.53,10,0,0-7.25-10.44,11.15-33.95,0,0,15.93-22.07-.86-35.18,0,0-13-1.82-11.4,23.32,0,0,1,6.95-4.05,8.07,0,0-1.29-20.62,1.52-28,0,0-.43-12.63-6.68-16.13,0,0-11.19-.61-4,29.4,0,0,2.1,9.55-2.62,11.13s-9.4-28.11-9.4-28.11.44-15.83,6-24.17c0,0,1.29-9.63-5-9.3s-6.7,9.8-6.7,9.8-16.78-6.5,1.56-35.6c0,0,1-8.81-6.91-8.46S83.4,47.18,107,85l2.3,13.33S102.62,98,97.94,84.05c0,0-4.56-11.92-14.07-10.53S91.8,95.79,91.8,95.79,78.86,87.86,73.15,77.16c0,0-7-9-13.47-.47s9.62,28.07,36.75,32.79c0,0,23.71,3.27,30.08,29.62,0,0,7.3,25.68,1.91,28.39,0,0-9.27-5.29-11.84-20.9a32.57,32.57,0,0,0-4.22-11.65c-3.69-6.06-9.3-13.9-12.7-12-5.39,3,2.47,22.19,2.47,22.19s-8.49-8.44-15.66-2.63,19.69,28.62,19.69,28.62,31.94,19.39,30.86,31.52Z" transform="translate(-4.63 -9.83)"/><path class="469ce59b-3ff0-4591-aa0c-a95d56c7fa04" d="M203.48,115.82a23.57,23.57,0,0,1-11.24-8.56c-5.61-7.77-17.64-22.17-23.51-12-7.81,13.53,12.21,43.22,37.29,59.18,0,0,44.26,32.94,32,71.6,0,0-12,44,.15,43.95S249,235,249,235s-6.24-36.13,26.21-51.89,15.94-29.14,15.94-29.14-16.38-10.37-24.88,16.53c0,0-15.13-17.06,6.66-39.77,5.84-6.08,8.26-11.38,8.69-15.88C283,100.8,262,97.9,259.2,111.7a25.9,25.9,0,0,0-.5,6,11.42,11.42,0,0,1-8.52,11.68c-6.44,1.51-12.24-3-2.87-33.5,16-52.16-1.43-55.23-1.43-55.23S230.78,36.11,230,79.35a8.53,8.53,0,0,1-3.52,6.89c-3.64,2.53-10.11,2.48-19.25-14.55-6.86-12.77-13.58-14-18.85-11.69-7.35,3.29-9.61,12.68-5,19.26,4.77,6.75,12.17,15.5,20.16,18.59a13.77,13.77,0,0,1,8.91,13.62C212.26,115.37,210.12,118.14,203.48,115.82Z" transform="translate(-4.63 -9.83)"/><path class="469ce59b-3ff0-4591-aa0c-a95d56c7fa04" d="M86.74,135.29a9.46,9.46,0,0,0,1-4.16C87.86,123.68,89.1,99,101,105c13.94,7,13.44,42.85,1.19,69.94,0,0-19,51.8,12.42,77.43,0,0,34.15,30.27,23.93,36.86s-28.26-23.37-28.26-23.37S95.69,232.19,59.9,236.77s-29.29-15.66-29.29-15.66,4.49-9.86,15.88-7.38c6.87,1.5,11.56-7.07,6.58-12-4.08-4.07-10.35-7.8-19.93-10-8.21-1.9-13.14-5-16-8.53-8.79-11,7.16-24.9,17.06-14.89A25.9,25.9,0,0,1,38,173a11.42,11.42,0,0,0,13.52,5.11c6.21-2.26,8.6-9.21-15.93-29.61-42-34.88-29-47-29-47S17.06,89,42.39,127.4c0,0,16.14,10.45,13.41-21.05-1.25-14.44,3.67-19.19,9.37-20.1,8-1.27,15,5.35,14.69,13.4-.32,8.71-1.86,20.89-7.56,27.7a10,10,0,0,0-1.85,10C73.1,144.18,78.42,151.62,86.74,135.29Z" transform="translate(-4.63 -9.83)"/><path class="1639365d-c361-4b2b-acd0-948facea5677" d="M105,295.26H210s37.5-6,0-54c0,0-46.5-52.5-97.5-7.5S105,295.26,105,295.26Z" transform="translate(-4.63 -9.83)"/><path class="fe890895-22fb-49e7-8322-5fdfac80d25a" d="M157.41,235.71a10,10,0,0,1,14-3.38,14.28,14.28,0,0,1,5.06,5.78c3.52,7-6.49,3.45-11.61,1.27a10.2,10.2,0,0,0-5.31-.69C157.71,238.93,155.75,238.63,157.41,235.71Z" transform="translate(-4.63 -9.83)"/><ellipse class="fe890895-22fb-49e7-8322-5fdfac80d25a" cx="195.33" cy="241.58" rx="4.7" ry="7.67" transform="translate(-116.18 280.12) rotate(-60)"/><ellipse class="fe890895-22fb-49e7-8322-5fdfac80d25a" cx="192.43" cy="257.36" rx="2.12" ry="2.84" transform="translate(-131.29 285.5) rotate(-60)"/><path class="1639365d-c361-4b2b-acd0-948facea5677" d="M229.35,253s24.36-13.33,34,4.64a73.87,73.87,0,0,1,6.37,15.71A13.38,13.38,0,0,1,259,290.12c-14.67,2.41-37.41,3.87-39.64-9.67C216.08,260.32,229.35,253,229.35,253Z" transform="translate(-4.63 -9.83)"/><ellipse class="fe890895-22fb-49e7-8322-5fdfac80d25a" cx="256.67" cy="257.86" rx="1.46" ry="2.2" transform="translate(-99.61 341.39) rotate(-60)"/><ellipse class="fe890895-22fb-49e7-8322-5fdfac80d25a" cx="248.03" cy="252.87" rx="2.12" ry="2.84" transform="translate(-99.61 331.4) rotate(-60)"/></svg>