<svg xmlns="http://www.w3.org/2000/svg" width="430" height="240.435" viewBox="0 0 430 240.435">
  <g id="Group_11" data-name="Group 11" transform="translate(4.158 -1865.661)">
    <g id="page5_b-01" data-name="page5 b-01" transform="translate(425.842 2106.096) rotate(180)">
      <path id="Path_119" data-name="Path 119" d="M0,211S121.813-2.443,392.564.021V211Z" transform="translate(37.436 29.438)" fill="#4c6dca"/>
      <path id="Path_120" data-name="Path 120" d="M4.694,240.435s-31.655-72.636,69.437-81c0,0,74.547-4.182,43.908-64.8-20.562-40.69,46.609-47.177,93-47.043a86.321,86.321,0,0,0,57.342-21.752c12.959-11.439,34.691-21.5,69.5-15.186a73.485,73.485,0,0,0,40.166-3.994C389.118,2.281,406.032-1.471,430,.573V240.435Z" transform="translate(0 0)" fill="#4c6dca"/>
    </g>
    <text id="問題" transform="translate(139 1988)" fill="#f7f7f7" font-size="65" font-family="MicrosoftJhengHeiBold, Microsoft JhengHei" letter-spacing="0.05em"><tspan x="-66.625" y="0">問題</tspan></text>
  </g>
</svg>
